<svg xmlns="http://www.w3.org/2000/svg" width="176" height="42" viewBox="0 0 176 42">
  <g fill="none">
    <polygon fill="#010101" points="20.326 22.147 25.003 22.147 24.291 14.433"/>
    <path fill="#010101" d="M35.5719,6.321 C28.549621,-0.711718307 17.5371118,-1.8039218 9.27023446,3.7124418 C1.00335708,9.22880541 -2.21497354,19.8170354 1.58375227,29.0007825 C5.38247808,38.1845297 15.1400443,43.4054653 24.8881816,41.4701754 C34.636319,39.5348855 41.659476,30.9824863 41.6619529,21.0441 C41.6743684,15.5210656 39.4822452,10.2214186 35.5719,6.321 Z M26.0169,32.865 L25.41,26.6532 L17.9886,26.6532 L14.8386,32.865 L7.623,32.865 L11.0775,26.6532 L7.1148,26.6532 L9.7566,22.1466 L13.5177,22.1466 L21.2415,8.2236 L29.4735,8.2236 L32.5227,32.865 L26.0169,32.865 Z"/>
    <path fill="#FFF" d="M21.2415,8.1228 L13.5177,22.05 L9.7566,22.05 L7.1148,26.5545 L11.0775,26.5545 L7.623,32.76 L14.8386,32.76 L17.9886,26.5503 L25.41,26.5503 L26.019,32.76 L32.4219,32.76 L29.3727,8.1228 L21.2415,8.1228 Z M20.3259,22.1466 L24.2907,14.5341 L25.0026,22.1466 L20.3259,22.1466 Z"/>
    <path fill="#010101" d="M56.9394,14.2506 L54.7113,14.2506 L50.3013,27.8292 L51.8364,27.8292 L53.1867,23.6859 L58.4367,23.6859 L59.7723,27.8292 L61.2969,27.8292 L56.9394,14.2506 Z M57.9474,22.1781 L53.6739,22.1781 L55.8222,15.5778 L57.9474,22.1781 Z"/>
    <polygon fill="#010101" points="71.595 14.251 71.595 24.906 65.174 14.301 65.142 14.251 62.954 14.251 62.954 27.829 64.46 27.829 64.46 15.897 71.61 27.779 71.641 27.829 73.093 27.829 73.093 14.251"/>
    <polygon fill="#010101" points="74.703 14.251 74.703 15.739 78.973 15.739 78.973 27.829 80.478 27.829 80.478 15.739 84.712 15.739 84.712 14.251"/>
    <path fill="#010101" d="M90.2286 14.2506L87.99 14.2506 83.58 27.8292 85.113 27.8292 86.4633 23.6859 91.7133 23.6859 93.0468 27.8292 94.5735 27.8292 90.2286 14.2506zM91.2366 22.1781L86.961 22.1781 89.1114 15.5778 91.2366 22.1781zM100.8882 22.68L104.2209 22.68C104.223639 23.1698492 104.168661 23.6583157 104.0571 24.1353 103.939868 24.575034 103.734853 24.9864933 103.4544 25.3449 103.131639 25.7528138 102.720106 26.0817528 102.2511 26.3067 101.749636 26.5619589 101.194691 26.6943971 100.632 26.6931 99.911488 26.6893583 99.2104822 26.458629 98.6286 26.0337 97.9537436 25.5197115 97.4495068 24.8142192 97.1817 24.0093 96.8271955 23.0388191 96.6514572 22.0121377 96.663 20.979 96.663 19.1667 97.0704 17.766 97.8726 16.8168 98.6748 15.8676 99.6177 15.3951 100.6845 15.3951 101.251468 15.3903707 101.808525 15.543816 102.2931 15.8382 102.799551 16.1547823 103.224074 16.5865002 103.5321 17.0982 103.77959 17.5298489 103.968835 17.9923686 104.0949 18.4737L104.1201 18.5661 105.7371 18.2448 105.7077 18.1356C105.539056 17.4279021 105.249941 16.7544846 104.853 16.1448 104.379357 15.4718673 103.744761 14.928237 103.0071 14.5635 102.256986 14.1874029 101.429117 13.9924832 100.59 13.9942818 99.0655758 13.9840506 97.6158979 14.6538434 96.6357 15.8214 95.5626 17.0289 95.0166 18.7971 95.0166 21.0714 95.0166 23.3457 95.5836 25.137 96.6966 26.4138 97.6413261 27.5190126 99.0358737 28.1367524 100.4892 28.0938 101.253726 28.1084508 102.009935 27.9331085 102.69 27.5835 103.274173 27.2622935 103.793342 26.8349934 104.2209 26.3235L104.2209 27.8355 105.7077 27.8355 105.7077 21.1743 100.8777 21.1743 100.8882 22.68z"/>
    <polygon fill="#010101" points="116.789 14.251 116.789 24.906 110.368 14.301 110.336 14.251 108.148 14.251 108.148 27.829 109.654 27.829 109.654 15.897 116.804 27.779 116.836 27.829 118.287 27.829 118.287 14.251"/>
    <rect width="1.506" height="13.579" x="121.508" y="14.251" fill="#010101"/>
    <polygon fill="#010101" points="134.904 14.251 134.904 24.906 128.482 14.301 128.451 14.251 126.263 14.251 126.263 27.829 127.768 27.829 127.768 15.897 134.919 27.779 134.95 27.829 136.401 27.829 136.401 14.251"/>
    <path fill="#010101" d="M144.6312,22.68 L147.9639,22.68 C147.966639,23.1698492 147.911661,23.6583157 147.8001,24.1353 C147.682127,24.5751574 147.476402,24.9866074 147.1953,25.3449 C146.87335,25.7527729 146.462505,26.0817358 145.9941,26.3067 C145.491754,26.5616024 144.936217,26.6940101 144.3729,26.6931 C143.653107,26.6889177 142.952901,26.45821 142.3716,26.0337 C141.695111,25.520845 141.189912,24.815031 140.9226,24.0093 C140.568095,23.0388191 140.392357,22.0121377 140.4039,20.979 C140.4039,19.1667 140.8113,17.766 141.6135,16.8168 C142.4157,15.8676 143.3586,15.3951 144.4275,15.3951 C144.99377,15.3906506 145.550078,15.5440896 146.034,15.8382 C146.540451,16.1547823 146.964974,16.5865002 147.273,17.0982 C147.521438,17.527656 147.712085,17.9880343 147.84,18.4674 L147.8673,18.5598 L149.4822,18.2385 L149.4528,18.1293 C149.284805,17.4217376 148.996403,16.7483277 148.6002,16.1385 C148.125308,15.4659022 147.490132,14.922394 146.7522,14.5572 C145.998383,14.1816808 145.166755,13.9888813 144.3246,13.9942848 C142.800303,13.9846393 141.350864,14.6543219 140.3703,15.8214 C139.2972,17.0289 138.7533,18.7971 138.7533,21.0714 C138.7533,23.3457 139.3182,25.137 140.4333,26.4138 C141.378026,27.5190126 142.772574,28.1367524 144.2259,28.0938 C144.993908,28.1096684 145.753809,27.9343067 146.4372,27.5835 C147.020345,27.2616723 147.538718,26.8344421 147.966,26.3235 L147.966,27.8355 L149.4549,27.8355 L149.4549,21.1743 L144.6249,21.1743 L144.6312,22.68 Z"/>
    <rect width="1.955" height="2.22" x="151.477" y="25.61" fill="#010101"/>
    <path fill="#010101" d="M163.59,21.6846 C162.96,21.0546 161.7987,20.4981 160.1502,20.0277 C158.7915,19.635 157.9053,19.236 157.5126,18.8391 C157.147574,18.5034074 156.93586,18.0329325 156.9267,17.5371 C156.930197,16.9470779 157.194693,16.3888683 157.6491,16.0125 C158.188375,15.5601575 158.877975,15.3270425 159.5811,15.3594 C160.282253,15.3427267 160.969127,15.5591291 161.5341,15.9747 C162.10108,16.4225854 162.504775,17.0447321 162.6828,17.745 L162.7122,17.8479 L164.262,17.3712 L164.2326,17.2725 C164.083147,16.709814 163.824881,16.181867 163.4724,15.7185 C163.013727,15.1516514 162.421232,14.7078218 161.7483,14.427 C161.056487,14.1384231 160.313882,13.9913302 159.5643,13.9943529 C158.3043,13.9943529 157.2543,14.3619 156.4731,15.0864 C155.716976,15.7433722 155.28456,16.6971421 155.2887,17.6988 C155.277905,18.5950224 155.669392,19.4488962 156.3555,20.0256 C157.0506,20.6556 158.2245,21.1953 159.8436,21.6615 C161.0175,21.9975 161.805,22.3314 162.1851,22.6527 C162.650907,23.0291691 162.919897,23.597293 162.9159,24.1962 C162.913695,24.8667949 162.614564,25.5019686 162.099,25.9308 C161.5551,26.4201 160.7907,26.6679 159.8289,26.6679 C159.21438,26.683689 158.606369,26.5389243 158.0649,26.2479 C157.590051,25.9789455 157.187859,25.5983768 156.8931,25.1391 C156.676902,24.7648972 156.514983,24.3618675 156.4122,23.9421 L156.3828,23.8413 L154.7889,24.2613 L154.8162,24.3642 C154.963388,24.9839477 155.226295,25.5703231 155.5911,26.0925 C156.060828,26.7240263 156.679929,27.2291199 157.3929,27.5625 C158.155538,27.9171224 158.987893,28.0965093 159.8289,28.0875 C161.2422,28.0875 162.393,27.6969 163.2498,26.9262 C164.076872,26.2243785 164.551199,25.1926978 164.5455,24.108 C164.569455,23.2039367 164.224502,22.3290461 163.59,21.6846 L163.59,21.6846 Z"/>
    <polygon fill="#010101" points="167.752 26.332 167.752 21.384 172.645 21.384 172.645 19.885 167.752 19.885 167.752 15.731 174.329 15.731 174.329 14.251 166.244 14.251 166.244 27.829 174.964 27.829 174.964 26.332"/>
  </g>
</svg>
