<?xml version="1.0" encoding="UTF-8" ?>
<svg enable-background="new 0 0 193.6 35.6" height="35.6" width="193.6" version="1.1" viewBox="0 0 193.6 35.6" xml:space="preserve" xmlns="http://www.w3.org/2000/svg">
<style type="text/css">
	.st0{fill:#8B1D69;}
</style>
<path class="st0" d="m17.8 0c-9.8 0-17.8 8-17.8 17.8 0 5.9 2.9 11.1 7.3 14.4 0.9-1.4 2.2-3.4 2.1-3.8-0.1-0.5-3.2-7.5-3.5-8.6-0.5-1.5 0.6-8.4 2.1-9.8 0.6-0.6 4.6-3.4 4.6-3.4s0.7-0.4 1.1-0.1c0.4 0.2 0.4 0.9 0.4 0.9s0 0.7-0.3 1.6c-0.3 0.8-1.3 1.4-1.6 1.6-0.1 0.1-0.1 0.1-0.2 0.1-0.7 0.5-1 0.5-1.4 1.4-0.5 1.1-1 5.6-0.8 6.2 0.3 0.6 1.5 4.5 2.9 4.5 0.3 0 1.1-1.3 1.5-1.8 0.1-0.2 0.2-0.4 0.2-0.6 0-0.7 0.2-4.9 1.1-5.2h0.1c0.8-0.3 1.7 0.3 1.7 1.2v11.9 0.1c-0.2 1.5-1.8 4.8-3 7 1.2 0.2 2.4 0.4 3.7 0.4s2.5-0.1 3.6-0.4c-1.2-2.2-2.9-5.5-3-7v-0.1-11.9c0-0.9 0.9-1.5 1.7-1.2h0.1c0.9 0.4 1 4.5 1.1 5.2 0 0.2 0.1 0.4 0.2 0.6 0.4 0.6 1.2 1.8 1.5 1.8 1.4 0 2.6-3.9 2.9-4.5s-0.3-5-0.8-6.2c-0.4-0.9-0.7-0.9-1.4-1.4-0.1 0-0.1-0.1-0.2-0.1-0.3-0.2-1.4-0.8-1.6-1.6-0.3-0.9-0.3-1.6-0.3-1.6s0-0.7 0.4-0.9c0.1-0.2 0.8 0.1 0.8 0.1s4 2.8 4.6 3.4c1.5 1.4 2.6 8.2 2.1 9.8-0.4 1.1-3.5 8.1-3.5 8.6 0 0.3 1.2 2.3 2.1 3.8 4.4-3.2 7.3-8.5 7.3-14.4 0-9.8-8-17.8-17.8-17.8zm0 13.8c-1.7 0-3-1.3-3-3s1.3-3 3-3 3 1.3 3 3-1.3 3-3 3z" />
<path d="m49.3 14.9c0 0.2 0 0.5-0.1 0.7s-0.2 0.5-0.3 0.7-0.3 0.4-0.6 0.5c-0.2 0.2-0.5 0.3-0.8 0.4v0.1c0.3 0 0.6 0.1 0.8 0.2 0.3 0.1 0.5 0.3 0.7 0.5s0.3 0.4 0.5 0.7 0.2 0.6 0.2 1c0 0.5-0.1 1-0.3 1.3-0.2 0.4-0.5 0.7-0.9 0.9s-0.8 0.4-1.3 0.5-1 0.2-1.4 0.2h-0.6-0.8c-0.3 0-0.6 0-0.9-0.1-0.3 0-0.6-0.1-0.8-0.1v-9.9c0.2 0 0.4-0.1 0.6-0.1s0.5-0.1 0.8-0.1h0.8 0.8c0.5 0 0.9 0 1.4 0.1 0.4 0.1 0.8 0.2 1.2 0.4 0.3 0.2 0.6 0.4 0.8 0.8 0.1 0.4 0.2 0.8 0.2 1.3zm-4.2 1.9h0.5 0.4c0.4-0.1 0.7-0.3 0.9-0.5 0.3-0.2 0.4-0.5 0.4-0.9 0-0.2 0-0.4-0.1-0.6s-0.2-0.3-0.4-0.4-0.3-0.2-0.5-0.2-0.4-0.1-0.6-0.1h-0.7-0.5v2.7h0.6zm0.6 4.3c0.2 0 0.5 0 0.7-0.1s0.4-0.1 0.6-0.3c0.2-0.1 0.3-0.3 0.4-0.4 0.1-0.2 0.2-0.4 0.2-0.6 0-0.3-0.1-0.6-0.2-0.7-0.1-0.2-0.3-0.3-0.5-0.4s-0.4-0.2-0.7-0.2h-0.7-1v2.6h0.2 0.3 0.4c0.1 0.1 0.2 0.1 0.3 0.1z" />
<path d="m55.1 17.2c-0.3-0.1-0.6-0.2-0.8-0.2-0.3 0-0.6 0.1-0.8 0.3-0.3 0.2-0.5 0.4-0.5 0.7v4.6h-1.9v-7.2h1.4l0.2 0.9h0.1c0.2-0.4 0.4-0.6 0.7-0.8s0.6-0.3 1-0.3c0.2 0 0.5 0.1 0.8 0.2l-0.2 1.8z" />
<path d="m55.8 19c0-1.2 0.3-2.1 0.9-2.8s1.4-1 2.5-1c0.6 0 1.1 0.1 1.5 0.3s0.8 0.4 1 0.8c0.3 0.3 0.5 0.7 0.6 1.2s0.2 1 0.2 1.5c0 1.2-0.3 2.1-0.9 2.8s-1.4 1-2.5 1c-0.6 0-1.1-0.1-1.5-0.3s-0.8-0.4-1.1-0.8c-0.3-0.3-0.5-0.7-0.6-1.2 0-0.4-0.1-0.9-0.1-1.5zm1.9 0c0 0.3 0 0.6 0.1 0.9s0.1 0.5 0.3 0.7c0.1 0.2 0.3 0.4 0.5 0.5s0.4 0.2 0.7 0.2c0.5 0 0.9-0.2 1.1-0.5 0.2-0.4 0.4-0.9 0.4-1.7 0-0.7-0.1-1.2-0.3-1.6s-0.6-0.6-1.1-0.6-0.8 0.2-1.1 0.5c-0.4 0.3-0.6 0.9-0.6 1.6z" />
<path d="m63.3 15.5h1v-1.3l1.9-0.5v1.9h1.8v1.4h-1.8v2.8c0 0.5 0.1 0.9 0.2 1.1s0.3 0.3 0.6 0.3c0.2 0 0.4 0 0.5-0.1 0.1 0 0.3-0.1 0.5-0.2l0.3 1.4c-0.3 0.1-0.6 0.2-0.9 0.3s-0.7 0.1-1 0.1c-0.7 0-1.1-0.2-1.5-0.5-0.3-0.3-0.5-0.9-0.5-1.7v-3.5h-1v-1.5z" />
<path d="m67.6 15.5h1.9v-1.3l1.9-0.5v1.9h1.8v1.4h-1.8v2.8c0 0.5 0.1 0.9 0.2 1.1s0.3 0.3 0.6 0.3c0.2 0 0.4 0 0.5-0.1 0.1 0 0.3-0.1 0.5-0.2l0.3 1.4c-0.3 0.1-0.6 0.2-0.9 0.3s-0.7 0.1-1 0.1c-0.7 0-1.1-0.2-1.5-0.5-0.3-0.3-0.5-0.9-0.5-1.7v-3.5h-1.9v-1.5z" />
<path d="m77.7 20.6c0-0.2-0.1-0.3-0.2-0.5l-0.6-0.3c-0.2-0.1-0.5-0.2-0.8-0.3s-0.6-0.2-0.8-0.4-0.4-0.4-0.6-0.7-0.2-0.6-0.2-1.1c0-0.7 0.2-1.2 0.6-1.6s1-0.6 1.8-0.6c0.5 0 1 0.1 1.5 0.2 0.4 0.1 0.8 0.2 1 0.4l-0.4 1.5c-0.2-0.1-0.5-0.2-0.8-0.3s-0.7-0.1-1-0.1c-0.6 0-0.8 0.2-0.8 0.6 0 0.2 0.1 0.3 0.2 0.4l0.6 0.3c0.2 0.1 0.5 0.2 0.8 0.3s0.6 0.2 0.8 0.4 0.4 0.4 0.6 0.7 0.2 0.6 0.2 1c0 0.7-0.2 1.3-0.7 1.7s-1.2 0.6-2.1 0.6c-0.5 0-1-0.1-1.4-0.2s-0.8-0.3-1.1-0.5l0.5-1.4c0.2 0.1 0.5 0.2 0.9 0.4 0.4 0.1 0.7 0.2 1.1 0.2 0.3 0 0.5-0.1 0.7-0.2 0.2 0 0.2-0.2 0.2-0.5z" />
<path d="m80.5 19c0-1.2 0.3-2.1 0.9-2.8s1.4-1 2.5-1c0.6 0 1.1 0.1 1.5 0.3s0.8 0.4 1 0.8c0.3 0.3 0.5 0.7 0.6 1.2s0.2 1 0.2 1.5c0 1.2-0.3 2.1-0.9 2.8s-1.4 1-2.5 1c-0.6 0-1.1-0.1-1.5-0.3s-0.8-0.4-1.1-0.8-0.5-0.7-0.6-1.2c0-0.4-0.1-0.9-0.1-1.5zm1.9 0c0 0.3 0 0.6 0.1 0.9s0.1 0.5 0.3 0.7c0.1 0.2 0.3 0.4 0.5 0.5s0.4 0.2 0.7 0.2c0.5 0 0.9-0.2 1.1-0.5 0.2-0.4 0.4-0.9 0.4-1.7 0-0.7-0.1-1.2-0.3-1.6s-0.6-0.6-1.1-0.6-0.8 0.2-1.1 0.5-0.6 0.9-0.6 1.6z" />
<path d="m88.2 15.5h1v-0.4c0-0.9 0.2-1.6 0.6-2s0.9-0.6 1.7-0.6 1.4 0.1 1.9 0.3l-0.4 1.4c-0.2-0.1-0.4-0.1-0.6-0.2s-0.3 0-0.5 0-0.3 0-0.5 0.1c-0.1 0.1-0.2 0.1-0.2 0.3-0.1 0.1-0.1 0.3-0.1 0.4v0.6h1.6v1.6h-1.6v5.6h-1.9v-5.6h-1v-1.5z" />
<path d="m92.4 15.5h1.9v-0.4c0-0.9 0.2-1.6 0.6-2s0.9-0.6 1.7-0.6 1.4 0.1 1.9 0.3l-0.5 1.4c-0.2-0.1-0.4-0.1-0.6-0.2h-0.5c-0.2 0-0.3 0-0.5 0.1-0.1 0.1-0.2 0.1-0.2 0.3-0.1 0.1-0.1 0.3-0.1 0.4v0.6h1.6v1.6h-1.6v5.6h-1.9v-5.6h-1.9v-1.5z" />
<path d="m104.7 22c-0.3 0.2-0.7 0.4-1.2 0.6s-1 0.2-1.6 0.2c-1.2 0-2-0.3-2.5-1s-0.8-1.6-0.8-2.8c0-1.3 0.3-2.2 0.9-2.8s1.4-0.9 2.5-0.9c0.4 0 0.7 0 1.1 0.1 0.3 0.1 0.7 0.3 0.9 0.5 0.3 0.2 0.5 0.5 0.6 0.9 0.2 0.4 0.2 0.8 0.2 1.4v0.6c0 0.2-0.1 0.5-0.1 0.7h-4.3c0 0.6 0.2 1.1 0.5 1.4s0.7 0.5 1.4 0.5c0.4 0 0.7-0.1 1.1-0.2 0.3-0.1 0.5-0.2 0.7-0.4l0.6 1.2zm-2.6-5.3c-0.5 0-0.8 0.1-1.1 0.4-0.2 0.3-0.4 0.7-0.4 1.2h2.7c0-0.5 0-0.9-0.2-1.2-0.3-0.2-0.6-0.4-1-0.4z" />
<path d="m110.3 17.2c-0.3-0.1-0.6-0.2-0.8-0.2-0.3 0-0.6 0.1-0.8 0.3s-0.4 0.4-0.5 0.7v4.6h-1.9v-7.2h1.4l0.2 0.9h0.1c0.2-0.4 0.4-0.6 0.7-0.8s0.6-0.3 1-0.3c0.2 0 0.5 0.1 0.8 0.2l-0.2 1.8z" />
<path d="m115.8 22.6v-3.9c0-0.7-0.1-1.1-0.2-1.4s-0.4-0.4-0.8-0.4c-0.3 0-0.6 0.1-0.8 0.3s-0.4 0.4-0.5 0.7v4.8h-1.9v-7.2h1.4l0.2 0.9h0.1c0.2-0.3 0.5-0.6 0.8-0.8s0.8-0.3 1.3-0.3 0.8 0.1 1.1 0.3 0.5 0.5 0.7 0.9c0.2-0.4 0.5-0.7 0.8-0.9s0.8-0.3 1.2-0.3 0.7 0 1 0.1 0.5 0.3 0.7 0.5 0.3 0.5 0.4 0.9 0.1 0.9 0.1 1.5v4.3h-1.9v-4c0-0.6-0.1-1-0.2-1.3s-0.4-0.4-0.8-0.4c-0.3 0-0.6 0.1-0.8 0.3s-0.3 0.4-0.4 0.7v4.7h-1.5z" />
<path d="m126.1 19.5l0.3 1.1h0.1l0.2-1.1 1.1-4h1.9l-2.2 6.5c-0.2 0.5-0.4 1-0.5 1.5l-0.6 1.2c-0.2 0.3-0.4 0.6-0.7 0.8-0.2 0.2-0.5 0.3-0.9 0.3-0.5 0-0.9-0.1-1.2-0.2l0.3-1.5c0.1 0.1 0.3 0.1 0.4 0.1 0.2 0 0.4-0.1 0.6-0.3s0.4-0.5 0.5-1l-3-7.2h2.2l1.5 3.8z" />
<path d="m135.1 22.6v-4.1c0-0.6-0.1-1-0.3-1.3s-0.5-0.4-0.9-0.4-0.7 0.1-0.9 0.3-0.4 0.5-0.5 0.8v4.6h-1.9v-7.2h1.5l0.2 0.9h0.1c0.2-0.3 0.5-0.6 0.9-0.8s0.8-0.3 1.4-0.3c0.4 0 0.7 0 0.9 0.1 0.3 0.1 0.5 0.3 0.7 0.5s0.3 0.5 0.4 0.9 0.1 0.8 0.1 1.4v4.5h-1.7z" />
<path d="m144.8 20.1v1.2c0 0.4 0.1 0.8 0.1 1.3h-1.3l-0.3-0.9h-0.1c-0.2 0.3-0.5 0.6-0.8 0.8-0.4 0.2-0.8 0.3-1.3 0.3-0.9 0-1.6-0.3-2.1-0.9s-0.7-1.5-0.7-2.8c0-1.2 0.3-2.2 0.8-2.9 0.6-0.7 1.4-1 2.4-1 0.3 0 0.5 0 0.7 0.1 0.2 0 0.4 0.1 0.6 0.2v-2.9h1.9v7.5zm-3.2 1.2c0.4 0 0.7-0.1 0.9-0.3s0.4-0.4 0.4-0.8v-3c-0.1-0.1-0.3-0.2-0.4-0.2-0.2-0.1-0.4-0.1-0.6-0.1-0.5 0-0.9 0.2-1.2 0.5-0.3 0.4-0.4 1-0.4 1.8 0 0.6 0.1 1.1 0.3 1.5s0.6 0.6 1 0.6z" />
<path d="m146.5 13.4c0-0.3 0.1-0.5 0.3-0.7s0.5-0.3 0.9-0.3 0.7 0.1 0.9 0.3 0.3 0.4 0.3 0.7-0.1 0.5-0.3 0.7-0.5 0.3-0.9 0.3-0.6-0.1-0.9-0.3c-0.2-0.2-0.3-0.4-0.3-0.7zm0.3 2.1h1.9v7.2h-1.9v-7.2z" />
<path d="m156.7 22.6c0 1-0.3 1.8-0.8 2.3-0.6 0.5-1.4 0.7-2.4 0.7-0.7 0-1.2 0-1.6-0.1s-0.7-0.2-0.9-0.3l0.4-1.5c0.2 0.1 0.5 0.2 0.8 0.3s0.7 0.1 1.1 0.1c0.7 0 1.1-0.1 1.3-0.4s0.4-0.7 0.4-1.2v-0.5h-0.1c-0.3 0.4-0.9 0.7-1.8 0.7s-1.6-0.3-2.1-0.9-0.7-1.5-0.7-2.7c0-1.3 0.3-2.3 0.9-2.9 0.6-0.7 1.5-1 2.7-1 0.6 0 1.2 0 1.6 0.1 0.5 0.1 0.9 0.2 1.2 0.3v7zm-3.2-1.3c0.4 0 0.6-0.1 0.8-0.2 0.2-0.2 0.3-0.4 0.5-0.7v-3.4c-0.3-0.1-0.7-0.2-1.1-0.2-0.5 0-0.9 0.2-1.1 0.5-0.3 0.4-0.4 0.9-0.4 1.7 0 0.7 0.1 1.2 0.3 1.6 0.3 0.5 0.6 0.7 1 0.7z" />
<path d="m163 22.6v-4.1c0-0.6-0.1-1-0.2-1.3-0.2-0.3-0.5-0.4-0.9-0.4-0.3 0-0.6 0.1-0.9 0.3s-0.4 0.5-0.5 0.8v4.6h-1.9v-10h1.9v3.7h0.1c0.2-0.3 0.5-0.5 0.8-0.7s0.8-0.3 1.3-0.3c0.4 0 0.7 0 1 0.1s0.5 0.3 0.7 0.5 0.3 0.5 0.4 0.9 0.1 0.8 0.1 1.4v4.5h-1.9z" />
<path d="m172.3 22c-0.3 0.2-0.7 0.4-1.2 0.6s-1 0.2-1.6 0.2c-1.2 0-2-0.3-2.5-1s-0.8-1.6-0.8-2.8c0-1.3 0.3-2.2 0.9-2.8s1.4-0.9 2.5-0.9c0.4 0 0.7 0 1.1 0.1 0.3 0.1 0.7 0.3 0.9 0.5 0.3 0.2 0.5 0.5 0.6 0.9 0.2 0.4 0.2 0.8 0.2 1.4v0.6c0 0.2-0.1 0.5-0.1 0.7h-4.3c0 0.6 0.2 1.1 0.5 1.4s0.7 0.5 1.4 0.5c0.4 0 0.7-0.1 1.1-0.2 0.3-0.1 0.5-0.2 0.7-0.4l0.6 1.2zm-2.6-5.3c-0.5 0-0.8 0.1-1.1 0.4s-0.4 0.7-0.4 1.2h2.7c0-0.5 0-0.9-0.2-1.2-0.3-0.2-0.6-0.4-1-0.4z" />
<path d="m173.7 15.5h1v-1.3l1.9-0.5v1.9h1.7v1.4h-1.7v2.8c0 0.5 0.1 0.9 0.2 1.1s0.3 0.3 0.6 0.3c0.2 0 0.4 0 0.5-0.1 0.1 0 0.3-0.1 0.5-0.2l0.3 1.4c-0.3 0.1-0.6 0.2-0.9 0.3s-0.7 0.1-1 0.1c-0.7 0-1.1-0.2-1.5-0.5-0.3-0.3-0.5-0.9-0.5-1.7v-3.5h-1v-1.5z" />
<path d="m185.6 22c-0.3 0.2-0.7 0.4-1.2 0.6s-1 0.2-1.6 0.2c-1.2 0-2-0.3-2.5-1s-0.8-1.6-0.8-2.8c0-1.3 0.3-2.2 0.9-2.8s1.4-0.9 2.5-0.9c0.4 0 0.7 0 1.1 0.1 0.3 0.1 0.7 0.3 0.9 0.5 0.3 0.2 0.5 0.5 0.6 0.9 0.2 0.4 0.2 0.8 0.2 1.4v0.6c0 0.2-0.1 0.5-0.1 0.7h-4.3c0 0.6 0.2 1.1 0.5 1.4s0.7 0.5 1.4 0.5c0.4 0 0.7-0.1 1.1-0.2 0.3-0.1 0.5-0.2 0.7-0.4l0.6 1.2zm-2.7-5.3c-0.5 0-0.8 0.1-1.1 0.4s-0.4 0.7-0.4 1.2h2.7c0-0.5 0-0.9-0.2-1.2-0.3-0.2-0.6-0.4-1-0.4z" />
<path d="m191.8 22.6v-4.1c0-0.6-0.1-1-0.3-1.3s-0.5-0.4-0.9-0.4-0.7 0.1-0.9 0.3-0.4 0.5-0.5 0.8v4.6h-1.9v-7.2h1.5l0.2 0.9h0.1c0.2-0.3 0.5-0.6 0.9-0.8s0.8-0.3 1.4-0.3c0.4 0 0.7 0 0.9 0.1 0.3 0.1 0.5 0.3 0.7 0.5s0.3 0.5 0.4 0.9 0.1 0.8 0.1 1.4v4.5h-1.7z" />
</svg>