<?xml version="1.0" encoding="UTF-8"?>
<svg width="153px" height="153px" viewBox="0 0 153 153" version="1.1" xmlns="http://www.w3.org/2000/svg" xmlns:xlink="http://www.w3.org/1999/xlink">
    <title>CSN Logo</title>
    <defs>
        <polygon id="path-1" points="0.82 152.196 152.197 152.196 152.197 0.86 0.82 0.86"></polygon>
    </defs>
    <g id="Page-1" stroke="none" stroke-width="1" fill="none" fill-rule="evenodd">
        <g id="csn-logo">
            <g id="Group-3">
                <mask id="mask-2" fill="white">
                    <use xlink:href="#path-1"></use>
                </mask>
                <g id="Clip-2"></g>
                <polyline id="Fill-1" fill="#e4022d" mask="url(#mask-2)" points="0.82 152.301 152.26 0.86 152.26 152.301 0.82 152.301"></polyline>
            </g>
            <path d="M80.02,103.819 C76.548,100.066 72.002,98.939 67.78,99.02 C54.211,98.939 48.018,107.691 48.1,120.86 C48.018,132.357 53.421,142.635 66.58,142.7 C71.804,142.635 76.745,140.978 80.02,136.7 L80.02,125.181 C77.207,128.777 74.177,130.965 69.7,130.94 C63.239,130.965 60.8,126.456 60.82,121.58 C60.8,115.184 63.831,111.802 69.94,111.74 C73.189,111.802 76.548,112.731 80.02,116.54 L80.02,103.819" id="Fill-4" fill="#FFFFFF"></path>
            <path d="M110.26,102.62 C107.731,99.875 102.065,98.416 97.54,98.3 C89.349,98.416 81.969,102.859 81.94,111.74 C81.969,128.983 99.231,122.552 99.221,129.019 C99.231,132.034 96.201,132.432 94.181,132.38 C90.666,132.432 84.868,129.846 82.9,126.62 L82.9,138.14 C86.515,140.52 91.522,142.111 96.34,142.221 C104.965,142.111 111.224,137.007 111.221,128.301 C111.224,113.666 93.96,118.242 93.94,112.94 C93.96,110.351 96.992,109.687 98.981,109.58 C102.79,109.687 107.93,111.744 110.26,114.86 L110.26,102.62" id="Fill-5" fill="#FFFFFF"></path>
            <path d="M112.66,141.5 L125.86,141.5 L125.86,120.14 C125.904,115.383 127.42,111.404 131.62,111.5 C135.194,111.404 136.118,113.858 136.181,117.5 L136.181,141.5 L149.38,141.5 L149.38,111.74 C149.296,102.519 144.617,98.939 138.1,99.02 C132.23,98.939 127.75,101.923 125.14,109.1 L125.14,100.22 L112.66,100.22 L112.66,141.5" id="Fill-6" fill="#FFFFFF"></path>
        </g>
    </g>
</svg>