<?xml version="1.0" encoding="UTF-8"?> <svg xmlns="http://www.w3.org/2000/svg" viewBox="0 0 185.62 51.26"><defs><style>.cls-1{fill:#2e99af;}.cls-2{fill:#003e5f;}</style></defs><g id="Layer_2" data-name="Layer 2"><g id="Layer_1-2" data-name="Layer 1"><rect class="cls-1" x="17.9" y="0.35" width="5.08" height="18.33" transform="translate(-1.76 5.61) rotate(-15)"></rect><rect class="cls-1" x="38.74" y="21.17" width="5.08" height="18.33" transform="translate(1.3 62.37) rotate(-75.01)"></rect><rect class="cls-1" x="27.46" y="11.97" width="18.33" height="5.08" transform="translate(0.46 30.14) rotate(-45)"></rect><path class="cls-1" d="M27.1,25.33a2.55,2.55,0,0,0-1.69-1.48L1.31,17.39,0,22.3l19.91,5.33L4.78,42.77l3.59,3.58L23.49,31.24l5.36,20,4.91-1.32L27.3,25.85A2.45,2.45,0,0,0,27.1,25.33Z"></path><path class="cls-2" d="M57.7,18.4l2.83-1.66a4.8,4.8,0,0,0,5,3.38c2.6,0,3.72-1.17,3.72-2.63,0-1.78-1.57-2.38-4.55-3.29s-6.15-2.09-6.15-5.87S61.59,2.54,65,2.54A7.44,7.44,0,0,1,72,7L69.17,8.56A4.3,4.3,0,0,0,65,5.75c-1.92,0-3.15,1-3.15,2.49s1.11,2.21,4,3.12c3.32,1.06,6.67,2.09,6.67,6.07,0,3.66-2.92,5.9-7.1,5.9C61.47,23.33,58.75,21.38,57.7,18.4Z"></path><path class="cls-2" d="M87.7,8.64,82.11,23H78.54L73,8.64h3.38l4,10.88,4-10.88Z"></path><path class="cls-2" d="M95.68,20.49a4.39,4.39,0,0,0,3.7-1.77l2.55,1.49a7.26,7.26,0,0,1-6.27,3.12c-4.73,0-7.79-3.24-7.79-7.53a7.3,7.3,0,0,1,7.56-7.53c4.26,0,7.18,3.43,7.18,7.56a9.1,9.1,0,0,1-.11,1.29H91.1A4.31,4.31,0,0,0,95.68,20.49Zm3.81-5.89a4,4,0,0,0-4.09-3.52,4.15,4.15,0,0,0-4.32,3.52Z"></path><path class="cls-2" d="M118,14.17V23h-3.09V14.48a3,3,0,0,0-3.21-3.32c-2,0-3.64,1.2-3.64,4.12V23h-3.09V8.64H108v1.83a5,5,0,0,1,4.44-2.2C115.67,8.27,118,10.45,118,14.17Z"></path><path class="cls-2" d="M131.56,18.92c0,2.86-2.49,4.41-5.59,4.41-2.86,0-4.92-1.29-5.84-3.35l2.67-1.55A3.13,3.13,0,0,0,126,20.49c1.38,0,2.44-.45,2.44-1.6,0-2.55-7.7-1.12-7.7-6.24,0-2.69,2.32-4.38,5.24-4.38a5.76,5.76,0,0,1,5.29,3l-2.6,1.46A2.79,2.79,0,0,0,126,11.08c-1.12,0-2.09.48-2.09,1.51C123.86,15.2,131.56,13.62,131.56,18.92Z"></path><path class="cls-2" d="M142.86,23,137,16.34V23h-3.1v-20H137V15l5.55-6.33h3.78l-6.3,7,6.53,7.3Z"></path><path class="cls-2" d="M161.53,8.64V23h-3.09V20.89a5.89,5.89,0,0,1-5,2.44,7.32,7.32,0,0,1-7.13-7.53,7.3,7.3,0,0,1,7.13-7.53,6,6,0,0,1,5,2.4v-2Zm-3.09,7.16a4.53,4.53,0,1,0-9.05,0,4.53,4.53,0,1,0,9.05,0Z"></path><path class="cls-2" d="M70.92,45.55V48.7H58.75v-20h12v3.15H62.05V37h8v3.12h-8v5.41Z"></path><path class="cls-2" d="M72.87,44.15l2.83-1.66a4.82,4.82,0,0,0,5,3.38c2.61,0,3.72-1.17,3.72-2.63,0-1.78-1.57-2.38-4.55-3.3s-6.15-2.09-6.15-5.87,3.06-5.78,6.44-5.78a7.44,7.44,0,0,1,7,4.41l-2.77,1.6a4.33,4.33,0,0,0-4.21-2.8c-1.92,0-3.15,1-3.15,2.49s1.12,2.2,4,3.12c3.32,1.06,6.67,2.09,6.67,6.07,0,3.66-2.92,5.9-7.1,5.9C76.65,49.08,73.93,47.13,72.87,44.15Z"></path><path class="cls-2" d="M93.68,31.81v5.61h8.16v3.15H93.68V48.7H90.39v-20h11.73v3.15Z"></path><path class="cls-2" d="M105.39,38.51h7.92v3h-7.92Z"></path><path class="cls-2" d="M124.33,34.13v3.35c-2-.14-4.41.8-4.41,4V48.7h-3.09V34.39h3.09v2.4A4.51,4.51,0,0,1,124.33,34.13Z"></path><path class="cls-2" d="M140.59,34.39V48.7h-3.1V46.64a5.86,5.86,0,0,1-5,2.44,7.32,7.32,0,0,1-7.12-7.53A7.29,7.29,0,0,1,132.48,34a5.91,5.91,0,0,1,5,2.4v-2Zm-3.1,7.16A4.52,4.52,0,1,0,133,46.13,4.41,4.41,0,0,0,137.49,41.55ZM129.76,30A3.06,3.06,0,0,1,133,26.72,3.39,3.39,0,0,1,136.61,30a3.43,3.43,0,0,1-6.85,0Zm2.18,0a1.25,1.25,0,0,0,2.49,0,1.25,1.25,0,0,0-2.49,0Z"></path><path class="cls-2" d="M158.22,28.66v20h-3.09V46.64a5.89,5.89,0,0,1-5,2.44A7.32,7.32,0,0,1,143,41.55,7.3,7.3,0,0,1,150.12,34a5.93,5.93,0,0,1,5,2.4V28.66Zm-3.09,12.89a4.53,4.53,0,1,0-4.52,4.58A4.42,4.42,0,0,0,155.13,41.55Z"></path><path class="cls-2" d="M168.44,46.24a4.35,4.35,0,0,0,3.69-1.77L174.68,46a7.23,7.23,0,0,1-6.27,3.12c-4.72,0-7.78-3.24-7.78-7.53A7.3,7.3,0,0,1,168.18,34c4.27,0,7.19,3.43,7.19,7.56a9,9,0,0,1-.12,1.28H163.86A4.3,4.3,0,0,0,168.44,46.24Zm3.81-5.9a4,4,0,0,0-4.09-3.52,4.17,4.17,0,0,0-4.33,3.52Z"></path><path class="cls-2" d="M182.07,37.37v6.87c0,1.83,1.2,1.8,3.55,1.69V48.7c-4.75.58-6.64-.74-6.64-4.46V37.37h-2.64v-3H179V31.3l3.09-.92v4h3.55v3Z"></path></g></g></svg> 