<svg width="199" height="59" viewBox="0 0 199 59" fill="none" xmlns="http://www.w3.org/2000/svg">
<path d="M27.933 24.489V23.944C28.795 23.978 29.527 23.995 30.129 23.995C30.555 23.995 31.317 23.984 32.418 23.961C33.519 23.939 34.262 23.927 34.647 23.927C35.061 23.927 35.44 23.932 35.784 23.94C36.128 23.948 36.438 23.964 36.717 23.987C36.575 24.469 36.484 25.328 36.444 26.566H35.909C35.857 25.879 35.787 25.351 35.695 24.983C35.4 24.881 35.036 24.805 34.602 24.757C34.167 24.709 33.664 24.685 33.091 24.685C32.517 24.685 31.925 24.718 31.312 24.787C31.278 25.093 31.255 25.38 31.245 25.646C31.238 25.8 31.224 26.449 31.202 27.595V29.485C31.837 29.502 32.398 29.51 32.888 29.51C33.608 29.51 34.184 29.473 34.615 29.4C34.78 29.371 34.886 29.325 34.934 29.26C34.983 29.194 35.036 28.954 35.092 28.54L35.16 28.012H35.695L35.636 29.953L35.695 32.037H35.16L35.1 31.494C35.038 30.875 34.993 30.543 34.963 30.498C34.918 30.418 34.81 30.358 34.64 30.318C34.316 30.244 33.584 30.207 32.444 30.207C32.042 30.207 31.628 30.219 31.202 30.242V31.961C31.202 32.732 31.214 33.484 31.235 34.217C31.248 34.756 31.286 35.076 31.35 35.179C31.415 35.282 31.521 35.357 31.669 35.407C31.816 35.454 32.225 35.484 32.895 35.495V36.04C32.175 35.995 31.457 35.972 30.743 35.972C30.1 35.972 29.165 35.995 27.933 36.04V35.495C28.602 35.484 29.011 35.454 29.16 35.407C29.306 35.357 29.409 35.292 29.466 35.206C29.534 35.093 29.577 34.817 29.594 34.38C29.599 34.261 29.611 33.456 29.628 31.964V28.023C29.628 27.252 29.619 26.496 29.602 25.759C29.585 25.22 29.544 24.901 29.479 24.802C29.414 24.702 29.309 24.629 29.164 24.58C29.018 24.53 28.608 24.5 27.933 24.489Z" fill="black"/>
<path d="M38.105 30.073C38.105 29.175 38.241 28.347 38.509 27.587C38.779 26.826 39.226 26.143 39.85 25.536C40.474 24.928 41.181 24.47 41.969 24.161C42.758 23.851 43.66 23.697 44.676 23.697C45.612 23.697 46.463 23.829 47.229 24.093C47.996 24.357 48.625 24.705 49.114 25.14C49.605 25.574 49.993 26.049 50.276 26.565C50.493 26.951 50.664 27.405 50.793 27.927C50.919 28.449 50.982 29.008 50.982 29.604C50.982 31.516 50.34 33.107 49.055 34.379C47.77 35.65 46.148 36.283 44.19 36.283C43.3 36.283 42.468 36.139 41.697 35.849C40.926 35.56 40.272 35.13 39.739 34.559C39.207 33.99 38.801 33.296 38.522 32.483C38.245 31.67 38.105 30.868 38.105 30.073ZM39.876 29.366C39.876 29.905 39.929 30.451 40.037 31.008C40.144 31.564 40.28 32.043 40.445 32.447C40.717 33.127 41.074 33.699 41.513 34.162C41.953 34.625 42.443 34.965 42.985 35.183C43.527 35.401 44.128 35.51 44.786 35.51C45.7 35.51 46.494 35.287 47.169 34.842C47.845 34.397 48.348 33.77 48.681 32.961C49.012 32.151 49.178 31.221 49.178 30.164C49.178 29.264 49.059 28.432 48.821 27.671C48.674 27.205 48.477 26.784 48.233 26.407C47.991 26.03 47.7 25.701 47.361 25.419C47.023 25.139 46.586 24.902 46.047 24.709C45.508 24.516 44.926 24.419 44.302 24.419C43.4 24.419 42.608 24.62 41.928 25.024C41.247 25.427 40.734 26.01 40.392 26.773C40.047 27.537 39.876 28.401 39.876 29.366ZM42.965 21.016C43.226 21.016 43.444 21.105 43.625 21.284C43.803 21.463 43.893 21.683 43.893 21.944C43.893 22.199 43.802 22.417 43.621 22.599C43.438 22.781 43.221 22.871 42.966 22.871C42.71 22.871 42.492 22.781 42.311 22.599C42.13 22.417 42.039 22.199 42.039 21.944C42.039 21.683 42.13 21.463 42.311 21.284C42.491 21.105 42.709 21.016 42.965 21.016ZM46.48 21.016C46.735 21.016 46.955 21.105 47.135 21.284C47.317 21.463 47.408 21.683 47.408 21.944C47.408 22.199 47.316 22.417 47.135 22.599C46.954 22.781 46.735 22.871 46.48 22.871C46.225 22.871 46.006 22.781 45.826 22.599C45.643 22.417 45.553 22.199 45.553 21.944C45.553 21.683 45.643 21.463 45.822 21.284C46 21.105 46.219 21.016 46.48 21.016Z" fill="black"/>
<path d="M52.21 24.489V23.944C52.432 23.949 52.769 23.958 53.223 23.969L54.857 24.012C55.181 24.012 55.683 24.001 56.364 23.978C57.25 23.944 57.763 23.927 57.904 23.927C58.988 23.927 59.778 24.024 60.274 24.217C60.771 24.409 61.156 24.723 61.428 25.157C61.7 25.591 61.836 26.063 61.836 26.574C61.836 27.051 61.709 27.524 61.454 27.995C61.197 28.467 60.828 28.858 60.342 29.17C59.858 29.482 59.227 29.723 58.449 29.893C58.591 30.092 58.926 30.536 59.453 31.221L61.598 34.047C62.211 34.836 62.568 35.276 62.67 35.365C62.722 35.406 62.773 35.433 62.824 35.451C62.909 35.479 63.095 35.494 63.386 35.494V36.039C62.955 36.004 62.577 35.987 62.253 35.987C61.918 35.987 61.507 36.004 61.02 36.039C60.65 35.612 60.032 34.781 59.165 33.545C58.683 32.858 58.257 32.285 57.888 31.824C57.293 31.064 56.725 30.375 56.186 29.757L56.271 29.501C56.566 29.518 56.791 29.527 56.943 29.527C57.976 29.527 58.759 29.283 59.294 28.795C59.827 28.306 60.094 27.663 60.094 26.863C60.094 26.165 59.864 25.61 59.404 25.198C58.944 24.787 58.251 24.581 57.319 24.581C56.735 24.581 56.162 24.67 55.6 24.845C55.578 25.152 55.56 25.438 55.548 25.705C55.543 25.784 55.523 26.61 55.488 28.182V31.96C55.488 32.731 55.501 33.483 55.522 34.216C55.535 34.755 55.572 35.075 55.637 35.178C55.702 35.281 55.809 35.356 55.956 35.406C56.103 35.453 56.512 35.483 57.182 35.494V36.039C56.376 35.994 55.636 35.971 54.961 35.971C54.416 35.971 53.5 35.994 52.211 36.039V35.494C52.88 35.483 53.289 35.453 53.437 35.406C53.585 35.356 53.687 35.291 53.744 35.205C53.812 35.092 53.854 34.816 53.872 34.379C53.878 34.26 53.889 33.455 53.905 31.963V28.022C53.905 27.251 53.897 26.495 53.88 25.758C53.862 25.219 53.821 24.9 53.757 24.801C53.691 24.701 53.587 24.628 53.442 24.579C53.295 24.53 52.886 24.5 52.21 24.489Z" fill="black"/>
<path d="M64.896 35.622C64.987 35.077 65.042 34.195 65.058 32.976H65.637C65.665 33.805 65.711 34.292 65.777 34.445C65.842 34.595 66.001 34.756 66.251 34.925C66.5 35.095 66.834 35.247 67.254 35.38C67.675 35.514 68.08 35.579 68.472 35.579C69.045 35.579 69.573 35.448 70.055 35.183C70.537 34.918 70.889 34.575 71.11 34.144C71.333 33.715 71.442 33.258 71.442 32.769C71.442 32.395 71.387 32.073 71.276 31.799C71.167 31.528 70.998 31.307 70.77 31.14C70.543 30.973 70.262 30.854 69.927 30.787C69.717 30.752 69.297 30.695 68.668 30.615C68.038 30.537 67.501 30.449 67.059 30.351C66.469 30.169 66.036 29.957 65.757 29.713C65.478 29.469 65.253 29.148 65.08 28.751C64.906 28.354 64.819 27.926 64.819 27.466C64.819 26.797 64.995 26.165 65.343 25.572C65.691 24.979 66.208 24.518 66.892 24.189C67.577 23.86 68.317 23.696 69.119 23.696C69.6 23.696 70.127 23.759 70.696 23.89C71.267 24.019 71.8 24.207 72.293 24.453C72.214 24.81 72.156 25.144 72.123 25.453C72.089 25.762 72.063 26.218 72.046 26.819H71.468C71.451 25.946 71.425 25.469 71.391 25.389C71.25 25.185 71.056 25.001 70.813 24.836C70.228 24.507 69.619 24.342 68.982 24.342C68.161 24.342 67.503 24.593 67.012 25.095C66.521 25.597 66.276 26.247 66.276 27.047C66.276 27.529 66.364 27.902 66.541 28.165C66.716 28.429 67.03 28.64 67.484 28.799C67.796 28.907 68.307 29.008 69.017 29.101C69.726 29.195 70.364 29.295 70.932 29.403C71.465 29.562 71.859 29.75 72.115 29.969C72.371 30.187 72.581 30.474 72.745 30.828C72.91 31.182 72.991 31.599 72.991 32.074C72.991 33.203 72.523 34.185 71.588 35.025C70.65 35.865 69.44 36.285 67.954 36.285C66.828 36.286 65.81 36.063 64.896 35.622Z" fill="black"/>
<path d="M79.348 36.124C79.178 35.63 78.823 34.677 78.285 33.265L75.39 26.107C75.084 25.347 74.893 24.907 74.82 24.788C74.769 24.714 74.698 24.66 74.607 24.626C74.483 24.57 74.17 24.524 73.671 24.49V23.945C74.698 23.991 75.455 24.014 75.943 24.014C76.402 24.014 77.182 23.991 78.284 23.945V24.55C77.592 24.561 77.189 24.575 77.08 24.592C76.969 24.609 76.892 24.642 76.849 24.69C76.807 24.738 76.787 24.793 76.787 24.856C76.787 24.918 76.827 25.066 76.905 25.299C77.149 26.053 77.362 26.661 77.545 27.12L80.209 33.843L82.43 28.269C82.753 27.469 83.063 26.598 83.358 25.656C83.482 25.253 83.546 25.004 83.546 24.907C83.546 24.771 83.473 24.68 83.324 24.635C83.211 24.595 82.774 24.547 82.013 24.49V23.945C82.87 23.979 83.514 23.997 83.945 23.997C84.388 23.997 84.998 23.979 85.775 23.945V24.49C85.344 24.507 85.087 24.536 85.001 24.575C84.916 24.615 84.837 24.694 84.763 24.813C84.712 24.898 84.502 25.358 84.133 26.192L81.478 32.729L80.823 34.408C80.686 34.742 80.577 35.031 80.491 35.274C80.405 35.518 80.312 35.802 80.211 36.127H79.351V36.124H79.348Z" fill="black"/>
<path d="M84.025 36.04V35.46C84.473 35.454 84.754 35.438 84.864 35.405C84.974 35.374 85.077 35.314 85.171 35.225C85.264 35.137 85.4 34.911 85.575 34.539C85.677 34.33 86.047 33.533 86.681 32.147L88.809 27.347C89.041 26.819 89.538 25.644 90.298 23.823H90.851L94.485 32.36C95.077 33.744 95.467 34.613 95.661 34.964C95.768 35.163 95.886 35.292 96.015 35.357C96.142 35.419 96.43 35.453 96.878 35.459V36.039C95.993 35.981 95.375 35.953 95.023 35.953L92.282 36.039V35.459C92.919 35.449 93.303 35.429 93.44 35.399C93.577 35.371 93.669 35.33 93.716 35.276C93.765 35.221 93.789 35.156 93.789 35.076C93.789 34.951 93.749 34.791 93.67 34.592L92.623 31.988H87.693L86.766 34.175C86.601 34.568 86.519 34.855 86.519 35.036C86.519 35.114 86.542 35.18 86.587 35.23C86.649 35.303 86.746 35.355 86.877 35.383C87.086 35.428 87.455 35.453 87.982 35.459V36.037C87.023 35.986 86.305 35.961 85.83 35.961C85.279 35.961 84.677 35.988 84.025 36.04ZM87.983 31.263H92.281L90.153 26.131L87.983 31.263Z" fill="black"/>
<path d="M97.668 24.489V23.944C97.89 23.949 98.227 23.958 98.681 23.969L100.315 24.012C100.639 24.012 101.141 24.001 101.822 23.978C102.708 23.944 103.221 23.927 103.363 23.927C104.446 23.927 105.236 24.024 105.733 24.217C106.23 24.409 106.614 24.723 106.886 25.157C107.158 25.591 107.294 26.063 107.294 26.574C107.294 27.051 107.166 27.524 106.911 27.995C106.654 28.467 106.286 28.858 105.801 29.17C105.316 29.482 104.685 29.723 103.905 29.893C104.049 30.092 104.384 30.536 104.911 31.221L107.057 34.047C107.668 34.836 108.027 35.276 108.129 35.365C108.18 35.406 108.231 35.433 108.28 35.451C108.366 35.479 108.553 35.494 108.842 35.494V36.039C108.41 36.004 108.032 35.987 107.708 35.987C107.374 35.987 106.963 36.004 106.476 36.039C106.106 35.612 105.49 34.781 104.622 33.545C104.14 32.858 103.714 32.285 103.346 31.824C102.749 31.064 102.182 30.375 101.643 29.757L101.728 29.501C102.023 29.518 102.248 29.527 102.4 29.527C103.434 29.527 104.217 29.283 104.751 28.795C105.284 28.306 105.552 27.663 105.552 26.863C105.552 26.165 105.322 25.61 104.863 25.198C104.403 24.787 103.709 24.581 102.777 24.581C102.193 24.581 101.62 24.67 101.058 24.845C101.036 25.152 101.018 25.438 101.006 25.705C101 25.784 100.981 26.61 100.945 28.182V31.96C100.945 32.731 100.958 33.483 100.979 34.216C100.992 34.755 101.029 35.075 101.094 35.178C101.158 35.281 101.266 35.356 101.412 35.406C101.559 35.453 101.97 35.483 102.639 35.494V36.039C101.832 35.994 101.093 35.971 100.417 35.971C99.873 35.971 98.957 35.994 97.667 36.039V35.494C98.336 35.483 98.745 35.453 98.893 35.406C99.041 35.356 99.143 35.291 99.199 35.205C99.267 35.092 99.31 34.816 99.328 34.379C99.334 34.26 99.345 33.455 99.361 31.963V28.022C99.361 27.251 99.353 26.495 99.336 25.758C99.318 25.219 99.277 24.9 99.213 24.801C99.147 24.701 99.043 24.628 98.898 24.579C98.753 24.53 98.344 24.5 97.668 24.489Z" fill="black"/>
<path d="M110.354 35.622C110.444 35.077 110.499 34.195 110.515 32.976H111.094C111.122 33.805 111.168 34.292 111.234 34.445C111.3 34.595 111.459 34.756 111.708 34.925C111.958 35.095 112.292 35.247 112.712 35.38C113.134 35.514 113.538 35.579 113.931 35.579C114.502 35.579 115.031 35.448 115.514 35.183C115.995 34.918 116.348 34.575 116.569 34.144C116.792 33.715 116.901 33.258 116.901 32.769C116.901 32.395 116.846 32.073 116.734 31.799C116.626 31.528 116.456 31.307 116.229 31.14C116.001 30.973 115.721 30.854 115.386 30.787C115.176 30.752 114.755 30.695 114.125 30.615C113.495 30.537 112.959 30.449 112.518 30.351C111.927 30.169 111.495 29.957 111.215 29.713C110.938 29.469 110.71 29.148 110.537 28.751C110.364 28.354 110.277 27.926 110.277 27.466C110.277 26.797 110.452 26.165 110.801 25.572C111.149 24.979 111.665 24.518 112.35 24.189C113.035 23.86 113.775 23.696 114.577 23.696C115.057 23.696 115.585 23.759 116.154 23.89C116.725 24.019 117.258 24.207 117.751 24.453C117.673 24.81 117.614 25.144 117.581 25.453C117.546 25.762 117.521 26.218 117.504 26.819H116.927C116.909 25.946 116.884 25.469 116.85 25.389C116.708 25.185 116.515 25.001 116.271 24.836C115.687 24.507 115.077 24.342 114.441 24.342C113.619 24.342 112.962 24.593 112.471 25.095C111.98 25.597 111.735 26.247 111.735 27.047C111.735 27.529 111.823 27.902 111.999 28.165C112.176 28.429 112.489 28.64 112.943 28.799C113.255 28.907 113.766 29.008 114.476 29.101C115.185 29.195 115.823 29.295 116.39 29.403C116.924 29.562 117.318 29.75 117.574 29.969C117.83 30.187 118.039 30.474 118.204 30.828C118.369 31.182 118.451 31.599 118.451 32.074C118.451 33.203 117.982 34.185 117.047 35.025C116.109 35.865 114.9 36.285 113.412 36.285C112.286 36.286 111.268 36.063 110.354 35.622Z" fill="black"/>
<path d="M120.146 24.489V23.944C120.743 23.967 121.313 23.978 121.857 23.978C122.408 23.978 122.935 23.967 123.44 23.944C123.939 25.079 124.396 26.075 124.81 26.931L128.038 33.571L130.947 27.485C131.742 25.828 132.272 24.648 132.54 23.944C133.142 23.967 133.648 23.978 134.062 23.978C134.442 23.978 135.058 23.967 135.91 23.944V24.489C135.234 24.5 134.823 24.53 134.681 24.578C134.535 24.627 134.436 24.693 134.379 24.778C134.306 24.892 134.263 25.167 134.251 25.604C134.245 25.718 134.23 26.523 134.208 28.021V31.961C134.208 32.732 134.221 33.484 134.242 34.217C134.26 34.756 134.301 35.076 134.364 35.179C134.43 35.282 134.535 35.357 134.679 35.407C134.823 35.454 135.234 35.484 135.908 35.495V36.04C134.762 35.989 133.953 35.964 133.482 35.964C133.101 35.964 132.261 35.989 130.962 36.04V35.495C131.637 35.484 132.049 35.454 132.194 35.407C132.342 35.357 132.441 35.292 132.494 35.206C132.565 35.093 132.608 34.817 132.621 34.38C132.627 34.261 132.642 33.456 132.663 31.964V25.716L129.725 31.861C129.266 32.82 128.907 33.59 128.645 34.174C128.458 34.601 128.174 35.277 127.794 36.199H127.462C127.389 35.984 127.319 35.811 127.257 35.679L126.679 34.447L122.61 25.994V31.96C122.61 32.731 122.624 33.483 122.644 34.216C122.663 34.755 122.704 35.075 122.767 35.178C122.833 35.281 122.938 35.356 123.083 35.406C123.227 35.453 123.638 35.483 124.312 35.494V36.039L122.262 35.971L120.142 36.039V35.494C120.812 35.483 121.221 35.453 121.369 35.406C121.516 35.356 121.619 35.291 121.676 35.205C121.743 35.092 121.786 34.816 121.804 34.379C121.809 34.26 121.821 33.455 121.838 31.963V28.022C121.838 27.251 121.828 26.495 121.812 25.758C121.795 25.219 121.754 24.9 121.689 24.801C121.626 24.701 121.519 24.628 121.374 24.579C121.23 24.53 120.821 24.5 120.146 24.489Z" fill="black"/>
<path d="M136.572 36.04V35.46C137.021 35.454 137.301 35.438 137.412 35.405C137.521 35.374 137.624 35.314 137.718 35.225C137.813 35.137 137.947 34.911 138.122 34.539C138.225 34.33 138.594 33.533 139.228 32.147L141.355 27.347C141.588 26.819 142.084 25.644 142.844 23.823H143.398L147.034 32.36C147.624 33.744 148.014 34.613 148.208 34.964C148.315 35.163 148.435 35.292 148.562 35.357C148.689 35.419 148.977 35.453 149.424 35.459V36.039C148.539 35.981 147.921 35.953 147.57 35.953L144.83 36.039V35.459C145.466 35.449 145.851 35.429 145.987 35.399C146.124 35.371 146.216 35.33 146.264 35.276C146.312 35.221 146.335 35.156 146.335 35.076C146.335 34.951 146.295 34.791 146.216 34.592L145.168 31.988H140.24L139.312 34.175C139.148 34.568 139.065 34.855 139.065 35.036C139.065 35.114 139.086 35.18 139.132 35.23C139.194 35.303 139.291 35.355 139.422 35.383C139.631 35.428 140.001 35.453 140.527 35.459V36.037C139.568 35.986 138.85 35.961 138.374 35.961C137.827 35.961 137.226 35.988 136.572 36.04ZM140.53 31.263H144.829L142.701 26.131L140.53 31.263Z" fill="black"/>
<path d="M155.066 35.495V36.04L152.498 35.972C152.32 35.972 151.519 35.993 150.089 36.04V35.495C150.758 35.483 151.167 35.454 151.315 35.405C151.463 35.356 151.564 35.29 151.623 35.206C151.69 35.091 151.732 34.816 151.751 34.38C151.757 34.261 151.768 33.454 151.784 31.962V28.022C151.784 27.251 151.775 26.495 151.759 25.758C151.742 25.219 151.701 24.9 151.635 24.801C151.57 24.701 151.465 24.628 151.321 24.579C151.176 24.531 150.766 24.501 150.092 24.49V23.945C151.193 23.979 152.036 23.996 152.62 23.996C153.196 23.996 154.015 23.979 155.069 23.945V24.49C154.4 24.501 153.993 24.531 153.843 24.579C153.696 24.628 153.597 24.694 153.546 24.779C153.472 24.893 153.427 25.168 153.41 25.605C153.41 25.719 153.396 26.524 153.376 28.022V29.775C153.682 29.611 154.045 29.325 154.465 28.916L155.538 27.877L157.434 25.979C158.166 25.247 158.62 24.776 158.788 24.567V23.945C159.463 23.968 159.993 23.979 160.379 23.979C160.794 23.979 161.238 23.968 161.716 23.945V24.498C161.176 24.498 160.814 24.521 160.626 24.567C160.438 24.612 160.255 24.697 160.07 24.822C159.71 25.089 159.151 25.565 158.402 26.252L155.007 29.358L160.113 34.142C160.934 34.913 161.403 35.333 161.516 35.402C161.629 35.471 161.848 35.507 162.171 35.511V36.04C161.615 36.017 161.243 36.005 161.056 36.005C160.847 36.005 160.406 36.017 159.728 36.04C159.598 35.909 159.124 35.452 158.307 34.669L157.43 33.827L153.566 30.2L153.373 30.311V31.961C153.373 32.732 153.384 33.484 153.407 34.217C153.418 34.756 153.456 35.076 153.519 35.179C153.585 35.282 153.691 35.357 153.838 35.407C153.989 35.454 154.397 35.483 155.066 35.495Z" fill="black"/>
<path d="M163.593 26.761H163.065C163.059 25.406 163.031 24.466 162.98 23.944C163.598 23.966 164.568 23.995 165.891 24.029C166.964 24.052 167.678 24.063 168.037 24.063C168.422 24.063 169.315 24.046 170.718 24.012C171.734 23.989 172.474 23.966 172.939 23.944C172.873 24.579 172.826 25.518 172.803 26.761H172.259L172.19 25.944C172.144 25.45 172.113 25.169 172.096 25.101C172.079 25.033 172.055 24.985 172.024 24.956C171.994 24.928 171.946 24.906 171.884 24.888C171.804 24.871 171.52 24.849 171.031 24.821C170.544 24.792 170.156 24.778 169.875 24.778H168.837C168.778 25.323 168.752 26.057 168.752 26.982V31.961C168.752 32.732 168.76 33.483 168.775 34.217C168.794 34.756 168.835 35.074 168.898 35.178C168.964 35.282 169.068 35.356 169.214 35.405C169.358 35.454 169.768 35.482 170.443 35.493V36.04C169.427 35.993 168.667 35.972 168.154 35.972C167.933 35.972 167.05 35.993 165.5 36.04V35.493C166.176 35.482 166.587 35.454 166.732 35.405C166.88 35.356 166.979 35.29 167.03 35.206C167.104 35.093 167.15 34.816 167.169 34.38C167.169 34.261 167.18 33.456 167.203 31.962V27C167.203 26.762 167.195 26.501 167.184 26.217L167.133 24.779H165.862C165.132 24.779 164.55 24.807 164.12 24.864C163.982 24.881 163.893 24.918 163.853 24.974C163.791 25.071 163.734 25.38 163.683 25.902L163.593 26.761Z" fill="black"/>
<path d="M174.336 36.04V35.503C174.932 35.497 175.322 35.452 175.511 35.368C175.59 35.333 175.647 35.278 175.681 35.206C175.738 35.091 175.778 34.794 175.8 34.31C175.834 33.561 175.851 32.914 175.851 32.372V28.021C175.851 27.25 175.842 26.495 175.827 25.757C175.808 25.218 175.767 24.899 175.704 24.8C175.639 24.7 175.534 24.627 175.388 24.579C175.244 24.53 174.835 24.5 174.159 24.489V23.944L176.585 23.996L179.154 23.953C180.384 23.936 181.279 23.927 181.836 23.927C182.398 23.927 182.928 23.958 183.428 24.021C183.337 24.344 183.275 24.625 183.241 24.864C183.227 24.914 183.178 25.505 183.088 26.634H182.551C182.557 26.055 182.52 25.527 182.441 25.051C182.129 24.92 181.787 24.832 181.412 24.787C180.775 24.707 180.141 24.668 179.506 24.668C179.37 24.668 179.066 24.679 178.596 24.702C178.124 24.725 177.787 24.745 177.582 24.762C177.56 25.391 177.543 25.981 177.53 26.532L177.497 29.409C178.161 29.443 178.769 29.46 179.328 29.46C180.003 29.46 180.578 29.429 181.055 29.366C181.237 29.344 181.353 29.298 181.405 29.23C181.457 29.162 181.503 28.929 181.543 28.532L181.593 27.936H182.104V28.098L182.061 29.868L182.104 31.851H181.509L181.483 31.271C181.471 30.852 181.433 30.59 181.368 30.489C181.304 30.387 181.18 30.315 181 30.276C180.677 30.208 180.05 30.174 179.117 30.174C178.737 30.174 178.197 30.187 177.501 30.215C177.473 30.783 177.459 31.625 177.459 32.744C177.459 33.793 177.473 34.59 177.501 35.135C178.316 35.197 179.233 35.229 180.251 35.229C180.971 35.229 181.483 35.208 181.791 35.163C182.097 35.118 182.382 35.04 182.642 34.934C182.71 34.757 182.778 34.519 182.846 34.218C182.971 33.712 183.053 33.333 183.094 33.077H183.656C183.509 34.223 183.434 35.175 183.434 35.929C182.946 36.003 182.353 36.04 181.655 36.04L176.574 35.972C176.492 35.969 175.749 35.993 174.336 36.04Z" fill="black"/>
<path d="M185.299 36.04V35.503C185.896 35.497 186.286 35.452 186.475 35.368C186.555 35.333 186.611 35.278 186.645 35.206C186.703 35.091 186.743 34.794 186.764 34.31C186.797 33.561 186.815 32.914 186.815 32.372V25.434C186.815 25.247 186.804 25.124 186.781 25.068C186.736 24.966 186.635 24.844 186.475 24.702C186.372 24.611 186.255 24.553 186.121 24.528C185.986 24.501 185.69 24.486 185.23 24.48V23.944C186.178 23.967 186.774 23.978 187.017 23.978C187.432 23.978 187.843 23.967 188.251 23.944C188.732 24.574 189.088 25.039 189.314 25.34L191.077 27.511L193.646 30.609C194.468 31.596 195.129 32.374 195.628 32.942C195.945 33.316 196.212 33.611 196.429 33.827V27.605C196.429 27.049 196.408 26.396 196.369 25.647C196.347 25.177 196.308 24.885 196.259 24.771C196.22 24.697 196.159 24.643 196.08 24.609C195.892 24.53 195.503 24.487 194.913 24.481V23.945C195.583 23.968 196.262 23.979 196.948 23.979C197.594 23.979 198.18 23.968 198.709 23.945V24.481C198.119 24.487 197.73 24.53 197.544 24.609C197.464 24.643 197.407 24.7 197.373 24.779C197.315 24.887 197.275 25.185 197.254 25.673C197.221 26.422 197.203 27.066 197.203 27.605V31.7C197.203 32.528 197.218 34.075 197.245 36.339L196.369 36.083L196.165 36.04C196.131 36.028 196.101 36.011 196.069 35.989C196.031 35.96 195.923 35.846 195.747 35.647C195.275 35.116 194.931 34.711 194.709 34.439L193.61 33.051L187.576 25.842V32.372C187.576 32.927 187.597 33.583 187.637 34.337C187.658 34.809 187.696 35.098 187.747 35.206C187.787 35.286 187.847 35.341 187.927 35.376C188.114 35.456 188.502 35.497 189.092 35.503V36.04C188.593 35.999 188.042 35.978 187.441 35.978C186.786 35.978 186.071 35.999 185.299 36.04Z" fill="black"/>
<path d="M10.557 55.859H9.10497L8.62997 46.891V3.225L10.557 0.485001L12.482 3.225V46.891L12.008 55.859H10.557Z" fill="white"/>
<path d="M12.078 55.933H9.03399L9.02899 55.863L8.55399 46.894V3.202L10.555 0.354996L12.556 3.202V46.89L12.078 55.933ZM9.17599 55.784H11.936L12.408 46.888V3.249L10.556 0.614996L8.70499 3.249V46.89L9.17599 55.784Z" fill="black"/>
<path d="M9.114 55.87L8.711 56.586L9.155 58.594H11.975L12.418 56.586L12.015 55.87H9.114Z" fill="white"/>
<path d="M11.975 58.668H9.15499C9.12099 58.668 9.09099 58.645 9.08299 58.61L8.63999 56.601C8.63599 56.583 8.63799 56.565 8.64799 56.548L9.04999 55.829C9.06399 55.807 9.08899 55.792 9.11399 55.792H12.016C12.043 55.792 12.068 55.807 12.081 55.829L12.483 56.548C12.493 56.565 12.495 56.583 12.491 56.601L12.048 58.61C12.041 58.645 12.01 58.668 11.975 58.668ZM9.21499 58.52H11.915L12.34 56.599L11.972 55.945H9.15899L8.79199 56.599L9.21499 58.52Z" fill="black"/>
<path d="M8.61898 44.299L2.13098 43.478V45.76L8.61898 46.89H12.472L18.959 45.76V43.478L12.472 44.299H8.61898Z" fill="white"/>
<path d="M8.61998 46.965L2.11898 45.834C2.08298 45.828 2.05698 45.797 2.05698 45.76V43.478C2.05698 43.457 2.06598 43.436 2.08198 43.42C2.09798 43.406 2.12098 43.401 2.14098 43.402L8.62398 44.223H12.472L18.951 43.402C18.972 43.401 18.994 43.406 19.01 43.42C19.026 43.436 19.035 43.455 19.035 43.478V45.76C19.035 45.797 19.009 45.828 18.973 45.834L12.485 46.963L8.61998 46.965ZM2.20598 45.7L8.63198 46.817L12.472 46.816L18.885 45.7V43.563L12.481 44.374H8.62098C8.61798 44.374 8.61298 44.374 8.60998 44.374L2.20698 43.563V45.7H2.20598Z" fill="black"/>
<path d="M8.67098 47.924C8.64598 47.924 8.62098 47.91 8.60698 47.888C8.58598 47.853 8.59698 47.807 8.63198 47.785L10.234 46.824C10.27 46.801 10.315 46.814 10.338 46.849C10.359 46.884 10.348 46.931 10.313 46.953L8.71098 47.912C8.69698 47.92 8.68398 47.924 8.67098 47.924Z" fill="black"/>
<path d="M8.76797 49.695C8.74397 49.695 8.71797 49.682 8.70497 49.659C8.68397 49.624 8.69497 49.579 8.72997 49.556L12.391 47.392C12.426 47.371 12.471 47.381 12.495 47.418C12.516 47.453 12.503 47.5 12.468 47.521L8.80697 49.685C8.79397 49.692 8.78097 49.695 8.76797 49.695Z" fill="black"/>
<path d="M8.84499 51.477C8.81999 51.477 8.79499 51.463 8.78099 51.442C8.75999 51.407 8.77099 51.36 8.80599 51.338L12.312 49.24C12.347 49.219 12.393 49.23 12.415 49.264C12.436 49.3 12.425 49.346 12.39 49.368L8.88499 51.464C8.87099 51.474 8.85799 51.477 8.84499 51.477Z" fill="black"/>
<path d="M8.983 53.234C8.959 53.234 8.933 53.221 8.92 53.198C8.899 53.163 8.91 53.118 8.945 53.094L12.189 51.17C12.222 51.149 12.27 51.16 12.292 51.195C12.313 51.231 12.301 51.276 12.266 51.299L9.022 53.223C9.009 53.231 8.996 53.234 8.983 53.234Z" fill="black"/>
<path d="M9.06398 54.977C9.03898 54.977 9.01298 54.963 8.99998 54.939C8.97898 54.904 8.99198 54.858 9.02698 54.836L12.094 53.076C12.129 53.055 12.174 53.066 12.196 53.102C12.218 53.138 12.205 53.184 12.17 53.205L9.10198 54.967C9.08898 54.974 9.07698 54.977 9.06398 54.977Z" fill="black"/>
<path d="M10.53 55.944C10.505 55.944 10.479 55.931 10.467 55.907C10.446 55.872 10.458 55.825 10.493 55.805L12.013 54.922C12.048 54.901 12.094 54.912 12.115 54.949C12.136 54.984 12.125 55.031 12.089 55.051L10.569 55.934C10.556 55.941 10.542 55.944 10.53 55.944Z" fill="black"/>
<path d="M10.633 0.519989H10.484V42.479H10.633V0.519989Z" fill="black"/>
<path d="M8.63498 44.299L10.565 42.478L12.485 44.299" fill="white"/>
<path d="M8.635 44.374C8.615 44.374 8.595 44.366 8.581 44.353C8.552 44.322 8.554 44.275 8.584 44.248L10.513 42.428C10.543 42.401 10.588 42.401 10.617 42.428L12.536 44.248C12.565 44.275 12.567 44.324 12.539 44.353C12.512 44.382 12.464 44.384 12.434 44.355L10.566 42.584L8.687 44.355C8.672 44.368 8.654 44.374 8.635 44.374Z" fill="black"/>
<path d="M12.482 46.89L12.471 44.299H8.62L8.63 46.89H12.482Z" fill="white"/>
<path d="M12.558 46.965H8.55698L8.54398 44.225H12.546L12.558 46.965ZM8.70498 46.816H12.408L12.396 44.374H8.69398L8.70498 46.816Z" fill="black"/>
<path d="M19.978 20.596V37.223C19.978 40.125 17.901 40.715 14.83 41.256C12.462 41.672 10.747 41.748 10.547 42.313C10.347 41.749 8.69299 41.672 6.32599 41.256C3.25299 40.715 1.17599 40.125 1.17599 37.223C1.17599 37.223 1.17299 20.596 1.17599 20.596H19.978V20.596Z" fill="black"/>
<path d="M10.545 42.424L10.51 42.324C10.367 41.92 9.39899 41.773 7.93399 41.551C7.45199 41.479 6.90399 41.396 6.31799 41.293C3.28599 40.758 1.13799 40.153 1.13799 37.223L1.13599 28.91C1.13599 26.831 1.13599 24.753 1.13599 23.194L1.13699 21.31C1.13699 20.559 1.13699 20.559 1.17499 20.559H20.014L20.015 37.223C20.015 40.155 17.869 40.758 14.834 41.293C14.232 41.397 13.668 41.482 13.17 41.558C11.749 41.771 10.722 41.924 10.58 42.327L10.545 42.424ZM1.21199 20.633C1.20899 21.485 1.21199 37.062 1.21199 37.223C1.21199 40.103 3.23799 40.674 6.33099 41.219C6.91699 41.323 7.46299 41.405 7.94399 41.479C9.35099 41.692 10.307 41.836 10.545 42.227C10.782 41.84 11.745 41.696 13.159 41.485C13.657 41.411 14.221 41.325 14.82 41.219C17.914 40.674 19.94 40.103 19.94 37.223L19.939 20.633H1.21199V20.633Z" fill="black"/>
<path d="M10.253 4.113H10.883V4.815H11.565V5.446H10.883V6.096H10.253V5.446H9.58099V4.815H10.253V4.113Z" fill="white"/>
<path d="M10.958 6.16999H10.179V5.51999H9.50699V4.73999H10.179V4.03799H10.958V4.73999H11.639V5.51999H10.958V6.16999V6.16999ZM10.328 6.02099H10.807V5.37099H11.49V4.88999H10.807V4.18699H10.328V4.88999H9.65499V5.37099H10.328V6.02099Z" fill="black"/>
<path d="M9.28598 7.30899C9.28598 6.59899 9.86098 6.02299 10.57 6.02299C11.283 6.02299 11.857 6.59899 11.857 7.30899C11.857 8.01899 11.283 8.59499 10.57 8.59499C9.86198 8.59499 9.28598 8.01899 9.28598 7.30899Z" fill="black"/>
<path d="M10.27 5.89999H10.898V7.04599H11.936V7.67399H9.18802V7.04599H10.27V5.89999Z" fill="white"/>
<path d="M11.972 7.711H9.15201V7.01H10.232V5.864H10.936V7.01H11.972V7.711ZM9.22601 7.638H11.898V7.084H10.862V5.938H10.307V7.084H9.22601V7.638Z" fill="black"/>
<path d="M10.571 8.67C9.82098 8.67 9.21198 8.059 9.21198 7.309C9.21198 6.559 9.82098 5.949 10.571 5.949C11.322 5.949 11.932 6.559 11.932 7.309C11.932 8.059 11.322 8.67 10.571 8.67ZM10.571 6.098C9.90398 6.098 9.36098 6.641 9.36098 7.309C9.36098 7.977 9.90398 8.52 10.571 8.52C11.239 8.52 11.784 7.977 11.784 7.309C11.784 6.641 11.239 6.098 10.571 6.098Z" fill="black"/>
<path d="M19.497 18.509L20.36 13.72L19.835 12.931C19.835 12.931 16.527 8.872 10.595 8.911C10.595 8.911 5.41298 8.5 1.41298 12.725L1.18698 13.195V15.73L1.88198 19.091L19.497 18.509Z" fill="black"/>
<path d="M10.632 13.083C10.062 13.083 9.59898 13.545 9.59898 14.115C9.59898 14.364 9.68698 14.592 9.83298 14.77C9.70398 14.721 9.58898 14.697 9.45098 14.697C8.87998 14.697 8.41698 15.159 8.41698 15.729C8.41698 16.301 8.87998 16.762 9.45098 16.762C9.81798 16.762 10.143 16.573 10.328 16.283C10.317 16.369 10.317 16.43 10.317 16.509C10.317 17.08 9.85298 17.758 9.28298 17.758C8.82398 17.758 8.39598 17.456 8.26298 17.041C8.12998 17.456 7.69299 17.758 7.23199 17.758C6.66299 17.758 6.19598 17.08 6.19598 16.509C6.19598 16.43 6.19598 16.369 6.18898 16.283C6.37298 16.573 6.69899 16.762 7.06699 16.762C7.63599 16.762 8.09898 16.301 8.09898 15.729C8.09898 15.159 7.63599 14.697 7.06699 14.697C6.92699 14.697 6.81198 14.721 6.68298 14.77C6.82998 14.592 6.91798 14.364 6.91798 14.115C6.91798 13.545 6.45498 13.083 5.88498 13.083C5.31398 13.083 4.85198 13.545 4.85198 14.115C4.85198 14.364 4.93999 14.592 5.08599 14.77C4.95599 14.721 4.84198 14.697 4.70298 14.697C4.13198 14.697 3.67098 15.159 3.67098 15.729C3.67098 16.301 4.13198 16.762 4.70298 16.762C5.06998 16.762 5.39598 16.573 5.57998 16.283C5.57598 16.378 5.57598 16.43 5.57598 16.509C5.57598 17.08 5.10598 17.758 4.53598 17.758C4.07598 17.758 3.65298 17.456 3.51898 17.041C3.38698 17.456 3.03098 17.758 2.56898 17.758C1.99998 17.758 1.73698 17.148 1.59698 16.604C1.57698 16.527 1.54098 16.369 1.52598 16.284C1.70998 16.573 2.03498 16.764 2.40398 16.764C2.97398 16.764 3.36698 16.301 3.36698 15.729C3.36698 15.159 2.90398 14.697 2.33398 14.697C2.19398 14.697 2.08098 14.721 1.95198 14.77C2.09798 14.592 2.18498 14.364 2.18498 14.115C2.18498 13.545 1.64098 13.075 1.07198 13.075H0.471985L1.77598 20.561H19.483L20.782 13.083H20.11C19.541 13.083 19.078 13.545 19.078 14.115C19.078 14.364 19.166 14.592 19.311 14.77C19.182 14.721 19.069 14.697 18.927 14.697C18.358 14.697 17.895 15.159 17.895 15.729C17.895 16.301 18.276 16.817 18.847 16.817C19.215 16.817 19.541 16.627 19.724 16.336C19.703 16.436 19.69 16.499 19.675 16.575C19.563 17.157 19.251 17.755 18.68 17.755C18.219 17.755 17.875 17.456 17.742 17.041C17.607 17.456 17.185 17.758 16.725 17.758C16.154 17.758 15.686 17.08 15.686 16.509C15.686 16.43 15.675 16.369 15.68 16.283C15.865 16.573 16.191 16.762 16.558 16.762C17.129 16.762 17.591 16.301 17.591 15.729C17.591 15.159 17.129 14.697 16.558 14.697C16.42 14.697 16.304 14.721 16.175 14.77C16.321 14.592 16.41 14.364 16.41 14.115C16.41 13.545 15.947 13.083 15.378 13.083C14.807 13.083 14.344 13.545 14.344 14.115C14.344 14.364 14.432 14.592 14.579 14.77C14.449 14.721 14.334 14.697 14.195 14.697C13.626 14.697 13.164 15.159 13.164 15.729C13.164 16.301 13.626 16.762 14.195 16.762C14.564 16.762 14.889 16.573 15.073 16.283C15.064 16.378 15.064 16.45 15.064 16.528C15.064 17.099 14.599 17.758 14.028 17.758C13.567 17.758 13.132 17.456 12.999 17.041C12.866 17.456 12.438 17.758 11.978 17.758C11.408 17.758 10.944 17.08 10.944 16.509C10.944 16.43 10.944 16.388 10.934 16.283C11.118 16.573 11.443 16.762 11.812 16.762C12.381 16.762 12.844 16.301 12.844 15.729C12.844 15.159 12.381 14.697 11.812 14.697C11.672 14.697 11.557 14.721 11.429 14.77C11.575 14.592 11.662 14.364 11.662 14.115C11.664 13.545 11.202 13.083 10.632 13.083Z" fill="white"/>
<path d="M19.548 20.635H1.71599L0.385986 13H1.07399C1.70799 13 2.26199 13.521 2.26199 14.115C2.26199 14.302 2.21699 14.481 2.12999 14.641C2.19499 14.629 2.26299 14.623 2.33499 14.623C2.94499 14.623 3.44199 15.119 3.44199 15.73C3.44199 16.361 2.99799 16.838 2.40699 16.838C2.12699 16.838 1.86499 16.737 1.66499 16.559C1.66699 16.569 1.66999 16.577 1.67199 16.586C1.86199 17.324 2.15699 17.683 2.56999 17.683C2.97499 17.683 3.31999 17.422 3.44999 17.018L3.51999 16.796L3.59199 17.018C3.71599 17.403 4.11299 17.683 4.53699 17.683C5.05599 17.683 5.50199 17.038 5.50199 16.509V16.503C5.29599 16.715 5.00999 16.837 4.70399 16.837C4.09299 16.837 3.59599 16.34 3.59599 15.73C3.59599 15.119 4.09299 14.623 4.70399 14.623C4.77599 14.623 4.84399 14.629 4.90999 14.641C4.82299 14.48 4.77599 14.299 4.77599 14.115C4.77599 13.505 5.27299 13.008 5.88399 13.008C6.49499 13.008 6.99199 13.505 6.99199 14.115C6.99199 14.299 6.94599 14.481 6.85799 14.641C6.92499 14.629 6.99299 14.623 7.06499 14.623C7.67499 14.623 8.17199 15.119 8.17199 15.73C8.17199 16.34 7.67499 16.837 7.06499 16.837C6.75999 16.837 6.47599 16.716 6.26999 16.507V16.509C6.26999 17.041 6.69899 17.683 7.22999 17.683C7.66399 17.683 8.06699 17.403 8.19099 17.018L8.26199 16.796L8.33299 17.018C8.45599 17.403 8.85399 17.683 9.28099 17.683C9.81199 17.683 10.241 17.041 10.241 16.509V16.508C10.035 16.717 9.75199 16.837 9.44799 16.837C8.83699 16.837 8.33999 16.34 8.33999 15.73C8.33999 15.119 8.83699 14.623 9.44799 14.623C9.51899 14.623 9.58799 14.629 9.65399 14.641C9.56699 14.481 9.52099 14.302 9.52099 14.115C9.52099 13.505 10.018 13.008 10.629 13.008C11.239 13.008 11.734 13.505 11.734 14.115C11.734 14.299 11.688 14.48 11.601 14.642C11.669 14.629 11.738 14.623 11.81 14.623C12.42 14.623 12.916 15.119 12.916 15.73C12.916 16.34 12.42 16.837 11.81 16.837C11.505 16.837 11.222 16.717 11.016 16.509C11.016 17.041 11.445 17.683 11.976 17.683C12.403 17.683 12.801 17.403 12.924 17.018L13 16.796L13.071 17.018C13.194 17.403 13.597 17.683 14.029 17.683C14.562 17.683 14.992 17.051 14.992 16.528V16.507C14.786 16.716 14.503 16.837 14.196 16.837C13.587 16.837 13.09 16.34 13.09 15.73C13.09 15.119 13.587 14.623 14.196 14.623C14.269 14.623 14.337 14.629 14.402 14.641C14.315 14.481 14.27 14.302 14.27 14.115C14.27 13.505 14.767 13.008 15.378 13.008C15.987 13.008 16.484 13.505 16.484 14.115C16.484 14.299 16.438 14.481 16.351 14.642C16.418 14.629 16.486 14.623 16.558 14.623C17.169 14.623 17.666 15.119 17.666 15.73C17.666 16.34 17.169 16.837 16.558 16.837C16.252 16.837 15.966 16.715 15.76 16.504V16.509C15.76 17.038 16.205 17.683 16.724 17.683C17.148 17.683 17.545 17.403 17.669 17.018L17.74 16.796L17.81 17.018C17.941 17.426 18.274 17.68 18.677 17.68C19.298 17.68 19.525 16.912 19.59 16.608C19.389 16.789 19.126 16.891 18.844 16.891C18.268 16.891 17.818 16.381 17.818 15.73C17.818 15.119 18.314 14.623 18.925 14.623C18.998 14.623 19.066 14.629 19.132 14.641C19.046 14.481 19 14.302 19 14.115C19 13.505 19.497 13.008 20.107 13.008H20.87L19.548 20.635ZM1.84199 20.486H19.422L20.694 13.157H20.11C19.582 13.157 19.152 13.587 19.152 14.115C19.152 14.34 19.227 14.549 19.369 14.723L19.285 14.84C19.16 14.792 19.056 14.772 18.928 14.772C18.4 14.772 17.97 15.202 17.97 15.73C17.97 16.227 18.298 16.742 18.847 16.742C19.181 16.742 19.485 16.575 19.661 16.297L19.797 16.351L19.777 16.445C19.766 16.496 19.757 16.54 19.749 16.589C19.599 17.366 19.2 17.83 18.68 17.83C18.269 17.83 17.922 17.606 17.741 17.235C17.549 17.59 17.148 17.833 16.726 17.833C16.109 17.833 15.613 17.109 15.613 16.509C15.613 16.479 15.611 16.451 15.61 16.424C15.607 16.379 15.604 16.333 15.607 16.278L15.621 16.046L15.746 16.242C15.923 16.521 16.226 16.688 16.56 16.688C17.088 16.688 17.518 16.258 17.518 15.73C17.518 15.202 17.088 14.772 16.56 14.772C16.433 14.772 16.328 14.792 16.205 14.84L16.12 14.723C16.262 14.549 16.338 14.339 16.338 14.115C16.338 13.587 15.908 13.157 15.38 13.157C14.851 13.157 14.421 13.587 14.421 14.115C14.421 14.34 14.496 14.55 14.639 14.723L14.554 14.84C14.43 14.792 14.325 14.772 14.198 14.772C13.671 14.772 13.24 15.202 13.24 15.73C13.24 16.258 13.671 16.688 14.198 16.688C14.532 16.688 14.838 16.521 15.012 16.243L15.149 16.288C15.142 16.382 15.142 16.452 15.142 16.528C15.142 17.132 14.657 17.833 14.031 17.833C13.601 17.833 13.194 17.588 13.002 17.231C12.811 17.588 12.407 17.833 11.982 17.833C11.368 17.833 10.874 17.109 10.874 16.509C10.874 16.433 10.874 16.392 10.863 16.29L11.001 16.242C11.177 16.521 11.481 16.688 11.816 16.688C12.344 16.688 12.773 16.258 12.773 15.73C12.773 15.202 12.344 14.772 11.816 14.772C11.688 14.772 11.582 14.792 11.46 14.84L11.375 14.723C11.517 14.549 11.592 14.339 11.592 14.115C11.592 13.587 11.162 13.157 10.635 13.157C10.106 13.157 9.67699 13.587 9.67699 14.115C9.67699 14.34 9.75199 14.55 9.89299 14.723L9.80899 14.84C9.68599 14.792 9.57999 14.772 9.45399 14.772C8.92599 14.772 8.49499 15.202 8.49499 15.73C8.49499 16.258 8.92599 16.688 9.45399 16.688C9.78799 16.688 10.092 16.521 10.268 16.242L10.405 16.291C10.395 16.374 10.395 16.43 10.395 16.509C10.395 17.109 9.89999 17.833 9.28699 17.833C8.85999 17.833 8.45899 17.588 8.26699 17.231C8.07399 17.588 7.66699 17.833 7.23499 17.833C6.62099 17.833 6.12599 17.109 6.12599 16.509C6.12599 16.433 6.12599 16.374 6.11799 16.29L6.25599 16.242C6.43199 16.521 6.73599 16.688 7.06999 16.688C7.59799 16.688 8.02799 16.258 8.02799 15.73C8.02799 15.202 7.59799 14.772 7.06999 14.772C6.94299 14.772 6.83699 14.792 6.71499 14.84L6.62999 14.723C6.77299 14.549 6.84799 14.339 6.84799 14.115C6.84799 13.587 6.41799 13.157 5.88899 13.157C5.36099 13.157 4.92999 13.587 4.92999 14.115C4.92999 14.339 5.00599 14.549 5.14799 14.723L5.05999 14.84C4.93699 14.792 4.83099 14.772 4.70599 14.772C4.17699 14.772 3.74799 15.202 3.74799 15.73C3.74799 16.258 4.17699 16.688 4.70599 16.688C5.03999 16.688 5.34399 16.521 5.51899 16.242L5.65599 16.286C5.65199 16.381 5.65199 16.431 5.65199 16.509C5.65199 17.109 5.15499 17.833 4.53899 17.833C4.11699 17.833 3.71699 17.59 3.52399 17.234C3.33999 17.603 2.98299 17.833 2.57099 17.833C2.07999 17.833 1.73799 17.437 1.52699 16.623C1.50799 16.547 1.46999 16.386 1.45599 16.297L1.59299 16.244C1.76899 16.523 2.07399 16.689 2.40799 16.689C2.91299 16.689 3.29499 16.277 3.29499 15.73C3.29499 15.202 2.86299 14.772 2.33599 14.772C2.20999 14.772 2.10399 14.792 1.98099 14.84L1.89699 14.723C2.03899 14.549 2.11399 14.34 2.11399 14.115C2.11399 13.601 1.62899 13.15 1.07499 13.15H0.562986L1.84199 20.486Z" fill="black"/>
<path d="M10.595 13.07L11.727 12.495C11.727 12.495 11.442 9.689 11.41 9.206C13.803 10.645 14.044 12.495 14.044 12.495C14.044 12.495 15.314 13.022 15.329 13.022C15.344 13.022 16.177 12.495 16.177 12.495C16.177 12.495 15.425 10.516 13.209 9.335C16.493 10.052 18.38 12.495 18.38 12.495L19.917 13.087L20.18 12.364C20.18 12.364 16.542 8.409 10.591 8.409C4.63999 8.409 1.01099 12.364 1.01099 12.364L1.24799 13.07L2.80999 12.495C2.80999 12.495 4.75599 10.052 8.03999 9.335C5.82299 10.516 5.01199 12.495 5.01199 12.495C5.01199 12.495 5.82499 13.053 5.83899 13.053C5.85399 13.053 7.14599 12.495 7.14599 12.495C7.14599 12.495 7.38699 10.645 9.77999 9.206C9.74799 9.689 9.46199 12.495 9.46199 12.495L10.595 13.07Z" fill="white"/>
<path d="M19.96 13.183L18.333 12.558L18.319 12.541C18.301 12.518 16.607 10.362 13.697 9.535C15.565 10.726 16.238 12.451 16.246 12.469L16.267 12.526L16.216 12.558C15.362 13.097 15.356 13.097 15.327 13.097C15.306 13.097 15.298 13.097 14.014 12.564L13.974 12.548L13.968 12.505C13.966 12.487 13.71 10.737 11.494 9.347C11.556 10.082 11.798 12.462 11.8 12.488L11.806 12.539L10.594 13.154L9.38097 12.539L9.38597 12.488C9.38897 12.462 9.63097 10.082 9.69397 9.347C7.47697 10.737 7.22097 12.487 7.21897 12.505L7.21397 12.547L7.17497 12.564C5.86897 13.128 5.85897 13.128 5.83897 13.128C5.80797 13.128 5.80097 13.128 4.96797 12.557L4.91997 12.523L4.94197 12.467C4.94997 12.449 5.67297 10.726 7.54797 9.535C4.63097 10.363 2.88497 12.519 2.86697 12.542L2.85297 12.558L2.83397 12.565L1.19897 13.167L0.922974 12.346L0.952974 12.314C0.988974 12.274 4.67297 8.335 10.588 8.335C16.504 8.335 20.196 12.274 20.233 12.313L20.263 12.347L19.96 13.183ZM18.425 12.433L19.872 12.989L20.093 12.382C19.726 12.004 16.152 8.484 10.59 8.484C5.02497 8.484 1.45697 12.01 1.09497 12.383L1.29397 12.974L2.76497 12.433C2.94497 12.215 4.89397 9.946 8.02397 9.262L8.07597 9.401C6.11197 10.447 5.25697 12.143 5.10497 12.469C5.36997 12.65 5.74297 12.904 5.84597 12.971C5.99297 12.911 6.62797 12.638 7.07897 12.443C7.13097 12.149 7.51697 10.48 9.74197 9.142L9.86497 9.068L9.85397 9.211C9.82397 9.654 9.57997 12.069 9.54097 12.452L10.595 12.987L11.648 12.452C11.609 12.069 11.366 9.654 11.336 9.211L11.326 9.068L11.448 9.142C13.672 10.479 14.058 12.147 14.111 12.442C14.555 12.627 15.181 12.885 15.322 12.94C15.426 12.879 15.811 12.638 16.084 12.466C15.941 12.138 15.131 10.444 13.174 9.401L13.225 9.262C16.354 9.946 18.249 12.215 18.425 12.433Z" fill="black"/>
<path d="M10.526 30.958C10.108 30.958 9.77198 31.294 9.77198 31.71C9.77198 31.96 9.89498 32.184 10.084 32.319C9.96498 32.247 9.82898 32.208 9.68298 32.208C9.26798 32.208 8.93098 32.544 8.93098 32.958C8.93098 33.374 9.26798 33.71 9.68298 33.71C9.92998 33.71 10.149 33.591 10.286 33.407L10.281 34.07C10.279 34.484 9.94298 34.817 9.52998 34.817C9.11998 34.817 8.78598 34.486 8.77898 34.077C8.77398 34.486 8.43998 34.817 8.02798 34.817C7.61698 34.817 7.35898 34.474 7.27698 34.07L7.17798 33.575C7.29898 33.659 7.43798 33.721 7.59598 33.721C8.00998 33.721 8.34698 33.383 8.34698 32.969C8.34698 32.555 8.00998 32.217 7.59598 32.217C7.43598 32.217 7.25998 32.227 7.13798 32.312C7.28498 32.174 7.33098 31.931 7.33098 31.715C7.33098 31.299 6.99498 30.963 6.57998 30.963C6.51798 30.963 6.48398 30.949 6.42798 30.963C6.42798 30.963 7.13798 37.609 7.13798 37.61C7.13798 37.615 13.906 37.615 13.906 37.61C13.906 37.607 14.617 30.963 14.617 30.963C14.559 30.949 14.526 30.963 14.466 30.963C14.051 30.963 13.715 31.299 13.715 31.715C13.715 31.931 13.761 32.174 13.906 32.312C13.786 32.227 13.609 32.217 13.45 32.217C13.035 32.217 12.698 32.555 12.698 32.969C12.698 33.383 13.035 33.721 13.45 33.721C13.606 33.721 13.747 33.659 13.867 33.575L13.767 34.07C13.686 34.474 13.429 34.817 13.016 34.817C12.605 34.817 12.271 34.486 12.265 34.077C12.259 34.486 11.925 34.817 11.514 34.817C11.101 34.817 10.765 34.484 10.763 34.07L10.759 33.407C10.896 33.591 11.115 33.71 11.362 33.71C11.777 33.71 12.113 33.374 12.113 32.958C12.113 32.544 11.777 32.208 11.362 32.208C11.216 32.208 11.081 32.247 10.961 32.319C11.15 32.182 11.274 31.96 11.274 31.71C11.274 31.293 10.944 30.958 10.526 30.958Z" fill="white"/>
<path d="M14.378 35.646H6.66898V36.161H14.378V35.646Z" fill="black"/>
<path d="M6.23999 23.884C5.87399 23.884 5.58099 24.177 5.58099 24.54C5.58099 24.759 5.68699 24.953 5.85299 25.071C5.74899 25.009 5.62999 24.974 5.50199 24.974C5.13999 24.974 4.84699 25.268 4.84699 25.63C4.84699 25.992 5.13999 26.285 5.50199 26.285C5.71699 26.285 5.90899 26.182 6.02799 26.022L6.02399 26.601C6.02199 26.962 5.72899 27.253 5.36899 27.253C5.00999 27.253 4.71899 26.964 4.71499 26.607C4.70899 26.964 4.41699 27.253 4.05799 27.253C3.69799 27.253 3.47299 26.954 3.40299 26.601L3.31599 26.169C3.42199 26.241 3.54399 26.296 3.67999 26.296C4.04299 26.296 4.33599 26.002 4.33599 25.64C4.33599 25.278 4.04299 24.985 3.67999 24.985C3.54099 24.985 3.38699 24.991 3.28199 25.065C3.40999 24.946 3.44999 24.734 3.44999 24.545C3.44999 24.183 3.15699 23.889 2.79399 23.889C2.74099 23.889 2.71199 23.877 2.66199 23.889C2.66199 23.889 3.28199 29.69 3.28199 29.692C3.28199 29.695 9.18999 29.695 9.18999 29.692C9.18999 29.69 9.80899 23.889 9.80899 23.889C9.75899 23.877 9.73099 23.889 9.67699 23.889C9.31499 23.889 9.02099 24.183 9.02099 24.545C9.02099 24.734 9.06099 24.946 9.18999 25.065C9.08399 24.991 8.92899 24.985 8.79099 24.985C8.42899 24.985 8.13499 25.278 8.13499 25.64C8.13499 26.002 8.42899 26.296 8.79099 26.296C8.92799 26.296 9.04999 26.241 9.15499 26.169L9.06799 26.601C8.99799 26.954 8.77299 27.253 8.41299 27.253C8.05399 27.253 7.76199 26.964 7.75799 26.607C7.75299 26.964 7.46099 27.253 7.10199 27.253C6.74199 27.253 6.44899 26.962 6.44699 26.601L6.44299 26.022C6.56299 26.182 6.75499 26.285 6.96899 26.285C7.33099 26.285 7.62499 25.992 7.62499 25.63C7.62499 25.268 7.33099 24.974 6.96899 24.974C6.84099 24.974 6.72199 25.009 6.61899 25.071C6.78399 24.953 6.88999 24.759 6.88999 24.54C6.89099 24.177 6.60399 23.884 6.23999 23.884Z" fill="white"/>
<path d="M9.49299 27.966H2.98099V28.481H9.49299V27.966Z" fill="black"/>
<path d="M14.821 23.881C15.186 23.881 15.48 24.174 15.48 24.536C15.48 24.756 15.373 24.95 15.207 25.069C15.311 25.006 15.43 24.971 15.558 24.971C15.921 24.971 16.214 25.265 16.214 25.627C16.214 25.988 15.921 26.282 15.558 26.282C15.343 26.282 15.152 26.178 15.032 26.018L15.036 26.598C15.038 26.958 15.331 27.25 15.691 27.25C16.05 27.25 16.342 26.961 16.346 26.603C16.352 26.961 16.643 27.25 17.002 27.25C17.362 27.25 17.587 26.951 17.658 26.598L17.744 26.166C17.639 26.237 17.516 26.293 17.38 26.293C17.017 26.293 16.724 25.999 16.724 25.637C16.724 25.275 17.017 24.981 17.38 24.981C17.519 24.981 17.674 24.987 17.779 25.062C17.65 24.943 17.61 24.731 17.61 24.542C17.61 24.179 17.904 23.886 18.266 23.886C18.32 23.886 18.348 23.873 18.399 23.886C18.399 23.886 17.779 29.686 17.779 29.689C17.779 29.692 11.871 29.692 11.871 29.689C11.871 29.686 11.251 23.886 11.251 23.886C11.301 23.873 11.33 23.886 11.384 23.886C11.746 23.886 12.04 24.179 12.04 24.542C12.04 24.731 11.999 24.943 11.871 25.062C11.977 24.987 12.131 24.981 12.269 24.981C12.632 24.981 12.925 25.275 12.925 25.637C12.925 25.999 12.632 26.293 12.269 26.293C12.132 26.293 12.011 26.237 11.905 26.166L11.993 26.598C12.063 26.951 12.288 27.25 12.648 27.25C13.007 27.25 13.298 26.961 13.302 26.603C13.308 26.961 13.599 27.25 13.959 27.25C14.319 27.25 14.611 26.958 14.613 26.598L14.618 26.018C14.498 26.178 14.306 26.282 14.091 26.282C13.729 26.282 13.436 25.988 13.436 25.627C13.436 25.265 13.729 24.971 14.091 24.971C14.219 24.971 14.338 25.006 14.442 25.069C14.277 24.95 14.17 24.756 14.17 24.536C14.169 24.174 14.456 23.881 14.821 23.881Z" fill="white"/>
<path d="M18.203 27.958H11.459V28.473H18.203V27.958Z" fill="black"/>
</svg>
