<?xml version="1.0" encoding="utf-8"?>
<!-- Generator: Adobe Illustrator 21.1.0, SVG Export Plug-In . SVG Version: 6.00 Build 0)  -->
<svg version="1.1" id="Layer_1" xmlns="http://www.w3.org/2000/svg" xmlns:xlink="http://www.w3.org/1999/xlink" x="0px" y="0px"
	 width="302px" height="53px" viewBox="0 0 302 53" style="enable-background:new 0 0 302 53;" xml:space="preserve">
<style type="text/css">
	.st0{clip-path:url(#SVGID_2_);}
	.st1{clip-path:url(#SVGID_4_);fill:#004a95;}
</style>
<g>
	<defs>
		<rect id="SVGID_1_" x="1" y="0.6" width="300" height="51.8"/>
	</defs>
	<clipPath id="SVGID_2_">
		<use xlink:href="#SVGID_1_"  style="overflow:visible;"/>
	</clipPath>
	<g class="st0">
		<defs>
			<rect id="SVGID_3_" x="0.7" y="0" width="300.3" height="51.8"/>
		</defs>
		<clipPath id="SVGID_4_">
			<use xlink:href="#SVGID_3_"  style="overflow:visible;"/>
		</clipPath>
		<rect x="103.7" y="12.3" class="st1" width="1.8" height="10.5"/>
		<path class="st1" d="M108.7,15.4c1.9,0,1.9,0,1.9,0c0,1.3,0,1.3,0,1.3c0.8-1.3,0.8-1.3,0.8-1.3c0.8-0.3,1.3-0.3,1.6-0.3
			c2.1,0,2.6,1.3,2.6,2.9c0,4.7,0,4.7,0,4.7c-1.9,0-1.9,0-1.9,0c0-4.2,0-4.2,0-4.2c0-1-0.3-2.1-1.6-2.1c-0.5,0-1.1,0.3-1.6,0.5
			c0,5.8,0,5.8,0,5.8c-1.9,0-1.9,0-1.9,0V15.4z"/>
		<path class="st1" d="M123,17c-0.3,0-0.8-0.5-1.6-0.5c-1.1,0-1.3,0.5-1.3,0.8c0,0.8,0.5,0.8,1.1,1c0.8,0.3,0.8,0.3,0.8,0.3
			c0.3,0.3,0.5,0.3,0.8,0.5c0.3,0.3,0.8,0.8,0.8,1.6c0,1-1.1,2.4-2.9,2.4c-0.5,0-1.3-0.3-2.4-0.5c0-1.6,0-1.6,0-1.6
			c0.5,0.5,1.6,0.8,2.1,0.8c0.8,0,1.3-0.5,1.3-1c0-0.5-0.8-0.8-1.1-1c-0.8-0.3-0.8-0.3-0.8-0.3c-0.3-0.3-1.6-0.5-1.6-1.8
			c0-1.3,1.1-2.4,2.9-2.4c0.8,0,1.6,0.3,1.8,0.5V17z"/>
		<path class="st1" d="M127.7,21.2c0.3,0,0.8,0.5,1.6,0.5c1.3,0,2.1-1.3,2.1-2.6c0-0.8-0.3-1.6-0.5-1.8c-0.3-0.3-0.8-0.8-1.6-0.8
			c-0.5,0-1.1,0.3-1.6,0.3V21.2z M128.8,15.4c0.3,0,0.5-0.3,1.1-0.3c2.1,0,3.4,1.6,3.4,3.7c0,2.6-1.6,4.2-3.7,4.2
			c-0.8,0-1.3-0.3-1.8-0.5c0,3.4,0,3.4,0,3.4c-1.6,0-1.6,0-1.6,0c0-10.5,0-10.5,0-10.5c1.6,0,1.6,0,1.6,0c0,1.3,0,1.3,0,1.3
			L128.8,15.4z"/>
		<path class="st1" d="M140.7,18c0-0.3,0-0.8-0.5-1.3c-0.3-0.3-0.5-0.3-1.1-0.3c-0.8,0-1.6,0.5-1.6,1.6H140.7z M141.2,22.8
			c-0.5,0-1.1,0.3-1.6,0.3c-2.9,0-4.2-1.6-4.2-3.9c0-2.4,1.6-3.9,3.7-3.9c0.5,0,1.1,0,1.6,0.3c1.6,0.8,1.9,2.9,1.9,3.7c-5,0-5,0-5,0
			c0,0.5,0,1.3,0.5,1.8c0.5,0.5,1.3,0.8,2.1,0.8c0.8,0,1.6-0.3,2.1-0.5L141.2,22.8z"/>
		<polygon class="st1" points="152.3,22.8 149.9,22.8 146.7,18.8 146.7,22.8 144.9,22.8 144.9,12.3 146.7,12.3 146.7,18.6 
			149.6,15.4 151.8,15.4 148.6,18.6 		"/>
		<path class="st1" d="M157.3,22.8c-0.3,0-0.5,0.3-1.1,0.3c-0.3,0-1.1-0.3-1.3-0.5c-0.5-0.5-0.5-1-0.5-1.8c0-3.9,0-3.9,0-3.9
			c-0.8,0-0.8,0-0.8,0c0.8-1.3,0.8-1.3,0.8-1.3l0,0c0-1.3,0-1.3,0-1.3c1.9-0.8,1.9-0.8,1.9-0.8c0,2.1,0,2.1,0,2.1c1.6,0,1.6,0,1.6,0
			c0,1.3,0,1.3,0,1.3c-1.6,0-1.6,0-1.6,0c0,3.1,0,3.1,0,3.1c0,0.8,0,1,0,1.3c0.3,0.3,0.5,0.5,1.1,0.5c0.3,0,0.5-0.3,1.1-0.3
			L157.3,22.8z"/>
		<path class="st1" d="M162.1,12.8c0,0.5-0.3,1-0.8,1c-0.5,0-1.1-0.5-1.1-1c0-0.5,0.5-0.8,1.1-0.8C161.8,12,162.1,12.3,162.1,12.8z
			 M162.1,22.8c-1.8,0-1.8,0-1.8,0c0-7.3,0-7.3,0-7.3c1.8,0,1.8,0,1.8,0V22.8z"/>
		<path class="st1" d="M168.4,16.5c-0.5,0-1.1,0.3-1.3,0.8c-0.3,0.5-0.5,1.3-0.5,1.8c0,0.5,0.3,1.3,0.5,1.8c0.3,0.5,0.8,0.8,1.3,0.8
			c1.3,0,1.8-1.3,1.8-2.6C170.2,17.8,169.7,16.5,168.4,16.5z M168.4,23c-2.4,0-3.7-1.8-3.7-3.9c0-2.1,1.6-3.9,3.7-3.9
			c2.4,0,3.7,1.6,3.7,3.9C172.1,21.2,170.8,23,168.4,23z"/>
		<path class="st1" d="M174.7,15.4c1.8,0,1.8,0,1.8,0c0,1.3,0,1.3,0,1.3c1.1-1.3,1.1-1.3,1.1-1.3c0.5-0.3,1.1-0.3,1.3-0.3
			c2.1,0,2.6,1.3,2.6,2.9c0,4.7,0,4.7,0,4.7c-1.8,0-1.8,0-1.8,0c0-4.2,0-4.2,0-4.2c0-1-0.3-2.1-1.6-2.1c-0.5,0-1.1,0.3-1.6,0.5
			c0,5.8,0,5.8,0,5.8c-1.8,0-1.8,0-1.8,0V15.4z"/>
		<path class="st1" d="M189.3,18c0-0.3,0-0.8-0.3-1.3c-0.3-0.3-0.8-0.3-1.1-0.3c-1.1,0-1.6,0.5-1.8,1.6H189.3z M190.1,22.8
			c-0.5,0-1.1,0.3-1.8,0.3c-2.6,0-4-1.6-4-3.9c0-2.4,1.3-3.9,3.7-3.9c0.5,0,1.1,0,1.3,0.3c1.9,0.8,1.9,2.9,1.9,3.7c-5,0-5,0-5,0
			c0,0.5,0.3,1.3,0.8,1.8c0.5,0.5,1.3,0.8,1.8,0.8c1.1,0,1.8-0.3,2.1-0.5L190.1,22.8z"/>
		<path class="st1" d="M193.8,15.4c1.6,0,1.6,0,1.6,0c0,1.3,0,1.3,0,1.3c1.1-1.3,1.1-1.3,1.1-1.3c0.5-0.3,1.3-0.3,1.6-0.3
			c2.1,0,2.4,1.3,2.4,2.9c0,4.7,0,4.7,0,4.7c-1.6,0-1.6,0-1.6,0c0-4.2,0-4.2,0-4.2c0-1-0.3-2.1-1.6-2.1c-0.5,0-1.3,0.3-1.8,0.5
			c0,5.8,0,5.8,0,5.8c-1.6,0-1.6,0-1.6,0V15.4z"/>
		<path class="st1" d="M210.7,22.8c-1.8,0-1.8,0-1.8,0c0-6,0-6,0-6c-1.1,0-1.1,0-1.1,0c0.8-1.3,0.8-1.3,0.8-1.3c0.3,0,0.3,0,0.3,0
			c0-0.8,0-0.8,0-0.8c0-0.5,0-1,0.3-1.6c0.5-0.8,1.6-1,2.1-1c0.5,0,0.8,0,1.1,0c0,1.6,0,1.6,0,1.6c0-0.3-0.3-0.3-0.5-0.3
			c-1.1,0-1.1,0.5-1.1,1.3c0,0.8,0,0.8,0,0.8c1.3,0,1.3,0,1.3,0c0,1.3,0,1.3,0,1.3c-1.3,0-1.3,0-1.3,0V22.8z"/>
		<path class="st1" d="M217.5,16.5c-0.5,0-1.1,0.3-1.3,0.8c-0.3,0.5-0.5,1.3-0.5,1.8c0,0.5,0.3,1.3,0.5,1.8c0.3,0.5,0.8,0.8,1.3,0.8
			c1.3,0,1.8-1.3,1.8-2.6C219.4,17.8,218.8,16.5,217.5,16.5z M217.5,23c-2.4,0-3.7-1.8-3.7-3.9c0-2.1,1.6-3.9,4-3.9
			c2.1,0,3.4,1.6,3.4,3.9C221.2,21.2,219.9,23,217.5,23z M220.2,13.6c0,0.5-0.5,0.8-1.1,0.8c-0.5,0-1.1-0.3-1.1-0.8
			c0-0.5,0.5-1,1.1-1C219.6,12.5,220.2,13.1,220.2,13.6z M217,13.6c0,0.5-0.3,0.8-1.1,0.8c-0.3,0-0.8-0.3-0.8-0.8c0-0.5,0.5-1,0.8-1
			C216.5,12.5,217,13.1,217,13.6z"/>
		<path class="st1" d="M225.7,22.8c-1.8,0-1.8,0-1.8,0c0-7.3,0-7.3,0-7.3c1.8,0,1.8,0,1.8,0c0,1.3,0,1.3,0,1.3
			c0.8-1.3,0.8-1.3,0.8-1.3c0.5,0,0.8-0.3,1.6-0.3c0.3,0,0.5,0,0.5,0.3c0,1.6,0,1.6,0,1.6c-0.3-0.3-0.8-0.3-1.3-0.3
			c-0.3,0-1.1,0-1.6,0.3V22.8z"/>
		<path class="st1" d="M107.4,36.6c-0.3,0-0.3,0-0.5,0c-0.8,0-1.1,0-1.1,0c-0.8,0.3-1.1,0.5-1.1,1c0,0.5,0.3,1,1.3,1
			c0.5,0,1.1-0.3,1.3-0.3V36.6z M109,37.9c0,1.6,0.3,1.6,0.3,1.8c-1.9,0-1.9,0-1.9,0c0-0.3,0-0.5,0-1c-0.8,1.3-0.8,1.3-0.8,1.3
			c-0.3,0-0.5,0-1.1,0c-0.8,0-1.3-0.3-1.9-0.5c-0.3-0.3-0.8-0.8-0.8-1.6c0-1.3,0.8-1.8,1.6-2.4c0.5-0.3,1.3-0.3,1.9-0.3
			c0.5,0,0.5,0,1.1,0c0-1-0.3-1.8-1.6-1.8c-0.8,0-1.6,0.3-2.1,0.5c0.8-1.6,0.8-1.6,0.8-1.6c0.5,0,1.1-0.3,1.9-0.3
			c0.5,0,1.6,0.3,2.1,0.8c0.5,0.5,0.5,1.3,0.5,2.1V37.9z"/>
		<path class="st1" d="M114,39.8c-1.9,0-1.9,0-1.9,0c0-7.3,0-7.3,0-7.3c1.9,0,1.9,0,1.9,0c0,1.3,0,1.3,0,1.3c0.8-1,0.8-1,0.8-1
			c0.3-0.3,0.8-0.3,1.6-0.3c0.3,0,0.3,0,0.5,0c0,1.8,0,1.8,0,1.8c-0.3-0.3-0.8-0.5-1.3-0.5c-0.5,0-1.1,0-1.6,0.5V39.8z"/>
		<path class="st1" d="M120.9,38.2c0,0.3,0.5,0.5,1.3,0.5c1.6,0,2.1-1.3,2.1-2.6c0-1-0.3-2.4-2.1-2.4c-0.8,0-1.3,0-1.3,0.3V38.2z
			 M120.9,33.7c0.8-1.3,0.8-1.3,0.8-1.3c0.3,0,0.8-0.3,1.1-0.3c2.4,0,3.4,1.8,3.4,3.9c0,1.8-1.1,3.9-4,3.9c-1.1,0-2.4-0.3-3.2-0.8
			c0-9.9,0-9.9,0-9.9c1.8,0,1.8,0,1.8,0V33.7z"/>
		<path class="st1" d="M133.5,35.1c0-0.3,0-0.8-0.5-1c-0.3-0.3-0.5-0.5-1.1-0.5c-0.8,0-1.6,0.8-1.6,1.6H133.5z M134.3,39.8
			c-0.8,0.3-1.3,0.3-1.8,0.3c-2.6,0-4.2-1.6-4.2-3.9c0-2.1,1.6-3.9,3.7-3.9c0.5,0,1.1,0.3,1.6,0.5c1.9,0.8,1.9,2.6,1.9,3.7
			c-5,0-5,0-5,0c0,0.3,0,1,0.5,1.8c0.5,0.5,1.3,0.5,2.1,0.5c1.1,0,1.9-0.3,2.1-0.5L134.3,39.8z"/>
		<path class="st1" d="M140.9,40c-0.3,0-0.5,0-1.1,0c-0.3,0-0.8,0-1.3-0.5c-0.5-0.5-0.5-1-0.5-1.8c0-3.9,0-3.9,0-3.9
			c-0.8,0-0.8,0-0.8,0c0.8-1.3,0.8-1.3,0.8-1.3l0,0c0-1.3,0-1.3,0-1.3c1.9-0.5,1.9-0.5,1.9-0.5c0,1.8,0,1.8,0,1.8c1.6,0,1.6,0,1.6,0
			c0,1.3,0,1.3,0,1.3c-1.6,0-1.6,0-1.6,0c0,3.1,0,3.1,0,3.1c0,0.8,0,1.3,0,1.6c0.3,0,0.5,0.3,1.1,0.3c0.3,0,0.5,0,1.1-0.3L140.9,40z
			"/>
		<path class="st1" d="M148.3,34.3c-0.3-0.3-0.8-0.8-1.6-0.8c-1.1,0-1.3,0.5-1.3,1c0,0.5,0.5,0.8,1.1,0.8c0.8,0.5,0.8,0.5,0.8,0.5
			c0.3,0,0.5,0.3,0.8,0.5c0.3,0,0.8,0.5,0.8,1.3c0,1.3-1.1,2.4-2.9,2.4c-0.8,0-1.6-0.3-2.4-0.5c0-1.6,0-1.6,0-1.6
			c0.5,0.5,1.3,0.8,2.1,0.8c0.8,0,1.1-0.5,1.1-1c0-0.5-0.5-0.8-1.1-1c-0.5-0.3-0.5-0.3-0.5-0.3c-0.5,0-1.6-0.5-1.6-1.8
			c0-1,1.1-2.4,2.9-2.4c0.8,0,1.6,0.5,1.9,0.5V34.3z"/>
		<rect x="151.2" y="29.3" class="st1" width="1.8" height="10.5"/>
		<path class="st1" d="M159.4,33.5c-0.5,0-1.1,0.3-1.3,0.8c-0.3,0.8-0.5,1.3-0.5,1.8c0,0.8,0.3,1.3,0.5,1.8c0.3,0.5,0.8,0.8,1.3,0.8
			c1.3,0,1.9-1.3,1.9-2.6C161.3,34.8,160.7,33.5,159.4,33.5z M159.4,40c-2.4,0-3.7-1.6-3.7-3.7c0-2.4,1.6-4.2,4-4.2
			c2.1,0,3.4,1.6,3.4,3.9C163.1,38.2,161.8,40,159.4,40z M162.1,30.6c0,0.5-0.5,1-1.1,1c-0.5,0-0.8-0.5-0.8-1c0-0.5,0.3-0.8,0.8-0.8
			C161.5,29.8,162.1,30.1,162.1,30.6z M158.9,30.6c0,0.5-0.3,1-1.1,1c-0.3,0-0.8-0.5-0.8-1c0-0.5,0.5-0.8,0.8-0.8
			C158.4,29.8,158.9,30.1,158.9,30.6z"/>
		<path class="st1" d="M170.2,34.3c-0.3-0.3-0.8-0.8-1.6-0.8c-1.1,0-1.3,0.5-1.3,1c0,0.5,0.5,0.8,1.1,0.8c0.5,0.5,0.5,0.5,0.5,0.5
			c0.5,0,0.8,0.3,1.1,0.5c0.3,0,0.5,0.5,0.5,1.3c0,1.3-0.8,2.4-2.6,2.4c-0.8,0-1.6-0.3-2.4-0.5c0-1.6,0-1.6,0-1.6
			c0.5,0.5,1.3,0.8,2.1,0.8c0.8,0,1.1-0.5,1.1-1c0-0.5-0.5-0.8-1.1-1c-0.5-0.3-0.5-0.3-0.5-0.3c-0.5,0-1.6-0.5-1.6-1.8
			c0-1,1.1-2.4,2.6-2.4c1.1,0,1.8,0.5,2.1,0.5V34.3z"/>
		<path class="st1" d="M180,39.8c-1.8,0-1.8,0-1.8,0c0-3.7,0-3.7,0-3.7c0-1,0-1.8-0.5-2.1c0-0.3-0.5-0.3-0.8-0.3
			c-0.5,0-1.3,0-1.9,0.5c0,5.5,0,5.5,0,5.5c-1.8,0-1.8,0-1.8,0c0-10.5,0-10.5,0-10.5c1.8,0,1.8,0,1.8,0c0,4.4,0,4.4,0,4.4
			c1.1-1.3,1.1-1.3,1.1-1.3c0.3,0,0.8-0.3,1.3-0.3c0.5,0,1.3,0.3,1.8,0.8c0.8,0.5,0.8,1.3,0.8,2.1V39.8z"/>
		<path class="st1" d="M187.7,35.1c0-0.3,0-0.8-0.3-1c-0.3-0.3-0.8-0.5-1.1-0.5c-1.1,0-1.6,0.8-1.8,1.6H187.7z M188.5,39.8
			c-0.5,0.3-1.1,0.3-1.8,0.3c-2.6,0-4-1.6-4-3.9c0-2.1,1.3-3.9,3.7-3.9c0.5,0,1.1,0.3,1.3,0.5c1.8,0.8,1.8,2.6,1.8,3.7c-5,0-5,0-5,0
			c0,0.3,0.3,1,0.8,1.8c0.5,0.5,1.3,0.5,1.8,0.5c1.1,0,1.9-0.3,2.1-0.5L188.5,39.8z"/>
		<path class="st1" d="M195.1,40c-0.3,0-0.5,0-0.8,0c-0.5,0-1.1,0-1.6-0.5c-0.3-0.5-0.3-1-0.3-1.8c0-3.9,0-3.9,0-3.9
			c-1.1,0-1.1,0-1.1,0c0.8-1.3,0.8-1.3,0.8-1.3c0.3,0,0.3,0,0.3,0c0-1.3,0-1.3,0-1.3c1.6-0.5,1.6-0.5,1.6-0.5c0,1.8,0,1.8,0,1.8
			c1.8,0,1.8,0,1.8,0c0,1.3,0,1.3,0,1.3c-1.8,0-1.8,0-1.8,0c0,3.1,0,3.1,0,3.1c0,0.8,0,1.3,0.3,1.6c0,0,0.5,0.3,0.8,0.3
			c0.5,0,0.8,0,1.1-0.3L195.1,40z"/>
		<path class="st1" d="M202.7,34.3c-0.3-0.3-0.8-0.8-1.8-0.8c-0.8,0-1.1,0.5-1.1,1c0,0.5,0.5,0.8,0.8,0.8c0.8,0.5,0.8,0.5,0.8,0.5
			c0.5,0,0.8,0.3,1.1,0.5c0,0,0.5,0.5,0.5,1.3c0,1.3-1.1,2.4-2.9,2.4c-0.5,0-1.3-0.3-2.1-0.5c0-1.6,0-1.6,0-1.6
			c0.5,0.5,1.3,0.8,1.8,0.8c1.1,0,1.3-0.5,1.3-1c0-0.5-0.5-0.8-1.1-1c-0.5-0.3-0.5-0.3-0.5-0.3c-0.5,0-1.6-0.5-1.6-1.8
			c0-1,0.8-2.4,2.6-2.4c1.1,0,1.6,0.5,2.1,0.5V34.3z"/>
		<path class="st1" d="M207.7,39.8c-1.8,0-1.8,0-1.8,0c0-6,0-6,0-6c-1.1,0-1.1,0-1.1,0c0.8-1.3,0.8-1.3,0.8-1.3c0.3,0,0.3,0,0.3,0
			c0-0.5,0-0.5,0-0.5c0-0.5,0-1,0.3-1.6c0.5-1,1.6-1.3,2.1-1.3c0.5,0,0.8,0.3,1.1,0.3c0,1.3,0,1.3,0,1.3s-0.3-0.3-0.5-0.3
			c-1.1,0-1.1,0.5-1.1,1.3c0,0.8,0,0.8,0,0.8c1.3,0,1.3,0,1.3,0c0,1.3,0,1.3,0,1.3c-1.3,0-1.3,0-1.3,0V39.8z"/>
		<path class="st1" d="M214.6,33.5c-0.5,0-1.1,0.3-1.3,0.8c-0.3,0.8-0.5,1.3-0.5,1.8c0,0.8,0.3,1.3,0.5,1.8c0.3,0.5,0.8,0.8,1.3,0.8
			c1.3,0,1.8-1.3,1.8-2.6C216.5,34.8,215.9,33.5,214.6,33.5z M214.6,40c-2.4,0-3.7-1.6-3.7-3.7c0-2.4,1.6-4.2,4-4.2
			c2.1,0,3.4,1.6,3.4,3.9C218.3,38.2,217.3,40,214.6,40z M217.3,30.6c0,0.5-0.5,1-1.1,1c-0.5,0-0.8-0.5-0.8-1c0-0.5,0.3-0.8,0.8-0.8
			C216.7,29.8,217.3,30.1,217.3,30.6z M214.1,30.6c0,0.5-0.3,1-0.8,1c-0.5,0-1.1-0.5-1.1-1c0-0.5,0.5-0.8,1.1-0.8
			C213.8,29.8,214.1,30.1,214.1,30.6z"/>
		<path class="st1" d="M222.8,39.8c-1.8,0-1.8,0-1.8,0c0-7.3,0-7.3,0-7.3c1.8,0,1.8,0,1.8,0c0,1.3,0,1.3,0,1.3c1.1-1,1.1-1,1.1-1
			c0.3-0.3,0.5-0.3,1.3-0.3c0.3,0,0.5,0,0.5,0c0,1.8,0,1.8,0,1.8c-0.3-0.3-0.8-0.5-1.3-0.5c-0.3,0-0.8,0-1.6,0.5V39.8z"/>
		<path class="st1" d="M232.3,34.3c-0.3-0.3-0.8-0.8-1.8-0.8c-0.8,0-1.1,0.5-1.1,1c0,0.5,0.5,0.8,0.8,0.8c0.8,0.5,0.8,0.5,0.8,0.5
			c0.5,0,0.8,0.3,1.1,0.5c0.3,0,0.5,0.5,0.5,1.3c0,1.3-1.1,2.4-2.9,2.4c-0.5,0-1.3-0.3-2.1-0.5c0-1.6,0-1.6,0-1.6
			c0.5,0.5,1.3,0.8,1.8,0.8c1.1,0,1.3-0.5,1.3-1c0-0.5-0.5-0.8-1.1-1c-0.5-0.3-0.5-0.3-0.5-0.3c-0.5,0-1.6-0.5-1.6-1.8
			c0-1,0.8-2.4,2.6-2.4c1.1,0,1.6,0.5,2.1,0.5V34.3z"/>
		<path class="st1" d="M239.2,36.6c-0.3,0-0.5,0-0.5,0c-0.8,0-1.1,0-1.3,0c-0.5,0.3-0.8,0.5-0.8,1c0,0.5,0.3,1,1.3,1
			c0.5,0,1.1-0.3,1.3-0.3V36.6z M240.8,37.9c0,1.6,0,1.6,0,1.8c-1.6,0-1.6,0-1.6,0c0-0.3,0-0.5,0-1c-1.1,1.3-1.1,1.3-1.1,1.3
			c-0.3,0-0.3,0-0.8,0c-0.8,0-1.6-0.3-1.9-0.5c-0.3-0.3-0.8-0.8-0.8-1.6c0-1.3,0.8-1.8,1.6-2.4c0.5-0.3,1.1-0.3,1.9-0.3
			c0.3,0,0.5,0,1.1,0c0-1-0.3-1.8-1.6-1.8c-1.1,0-1.6,0.3-2.4,0.5c1.1-1.6,1.1-1.6,1.1-1.6c0.3,0,1.1-0.3,1.9-0.3
			c0.5,0,1.3,0.3,2.1,0.8c0.5,0.5,0.5,1.3,0.5,2.1V37.9z M240.8,30.6c0,0.5-0.5,1-1.1,1c-0.3,0-0.8-0.5-0.8-1c0-0.5,0.5-0.8,0.8-0.8
			C240.2,29.8,240.8,30.1,240.8,30.6z M237.6,30.6c0,0.5-0.3,1-0.8,1c-0.5,0-1.1-0.5-1.1-1c0-0.5,0.5-0.8,1.1-0.8
			C237.3,29.8,237.6,30.1,237.6,30.6z"/>
		<polygon class="st1" points="251.1,39.8 249,39.8 245.8,35.8 245.8,39.8 243.9,39.8 243.9,29.3 245.8,29.3 245.8,35.6 248.7,32.4 
			250.8,32.4 247.6,35.8 		"/>
		<path class="st1" d="M255,39.8c-1.8,0-1.8,0-1.8,0c0-7.3,0-7.3,0-7.3c1.8,0,1.8,0,1.8,0c0,1.3,0,1.3,0,1.3c0.8-1,0.8-1,0.8-1
			c0.3-0.3,0.8-0.3,1.3-0.3s0.5,0,0.8,0c0,1.8,0,1.8,0,1.8c-0.5-0.3-0.8-0.5-1.6-0.5c-0.3,0-0.8,0-1.3,0.5V39.8z"/>
		<path class="st1" d="M261.6,30.1c0,0.5-0.3,0.8-0.8,0.8s-1.1-0.3-1.1-0.8c0-0.5,0.5-1,1.1-1S261.6,29.6,261.6,30.1z M261.6,39.8
			c-1.6,0-1.6,0-1.6,0c0-7.3,0-7.3,0-7.3c1.6,0,1.6,0,1.6,0V39.8z"/>
		<path class="st1" d="M264.8,32.4c1.9,0,1.9,0,1.9,0c0,1.6,0,1.6,0,1.6c0.8-1.6,0.8-1.6,0.8-1.6c0.8,0,1.3-0.3,1.6-0.3
			c2.1,0,2.6,1.6,2.6,2.9c0,4.7,0,4.7,0,4.7c-1.9,0-1.9,0-1.9,0c0-4.2,0-4.2,0-4.2c0-1-0.3-1.8-1.6-1.8c-0.5,0-1.1,0-1.6,0.5
			c0,5.5,0,5.5,0,5.5c-1.9,0-1.9,0-1.9,0V32.4z"/>
		<path class="st1" d="M279.8,33.7c-0.3,0-0.8-0.3-1.6-0.3c-1.3,0-2.1,1-2.1,2.6c0,1.3,0.8,2.1,2.1,2.1c0.5,0,1.3-0.3,1.6-0.3V33.7z
			 M278.8,39.5c-0.3,0-0.5,0-1.1,0c-2.1,0-3.4-1.3-3.4-3.4c0-1.8,1.3-3.9,4.2-3.9c0.5,0,1.6,0.3,2.9,0.8c0,5.8,0,5.8,0,5.8
			c0,0.8,0,1.6-0.5,2.4c-0.5,1-1.9,1.8-3.4,1.8c-0.5,0-0.8,0-1.6-0.3c-0.8,0-1.1-0.3-1.3-0.5c0-1.6,0-1.6,0-1.6c1.1,0.8,2.1,1,2.9,1
			c0.5,0,1.3-0.3,1.6-0.8c0.8-0.5,0.8-1.3,0.8-2.6L278.8,39.5z"/>
		<path class="st1" d="M289.4,35.1c0-0.3-0.3-0.8-0.5-1c-0.3-0.3-0.8-0.5-1.1-0.5c-1.1,0-1.6,0.8-1.8,1.6H289.4z M289.9,39.8
			c-0.5,0.3-1.1,0.3-1.8,0.3c-2.6,0-4-1.6-4-3.9c0-2.1,1.6-3.9,3.7-3.9c0.5,0,1.1,0.3,1.6,0.5c1.6,0.8,1.6,2.6,1.6,3.7c-5,0-5,0-5,0
			c0.3,0.3,0.3,1,0.8,1.8c0.5,0.5,1.3,0.5,1.8,0.5c1.1,0,1.8-0.3,2.1-0.5L289.9,39.8z"/>
		<path class="st1" d="M293.6,32.4c1.8,0,1.8,0,1.8,0c0,1.6,0,1.6,0,1.6c0.8-1.6,0.8-1.6,0.8-1.6c0.5,0,1.3-0.3,1.6-0.3
			c2.1,0,2.6,1.6,2.6,2.9c0,4.7,0,4.7,0,4.7c-1.8,0-1.8,0-1.8,0c0-4.2,0-4.2,0-4.2c0-1-0.3-1.8-1.6-1.8c-0.5,0-1.3,0-1.6,0.5
			c0,5.5,0,5.5,0,5.5c-1.8,0-1.8,0-1.8,0V32.4z"/>
		<rect x="87.8" y="0.3" class="st1" width="1.1" height="51"/>
		<path class="st1" d="M5.4,11.5c0,28,0,28,0,28c-4.5,0-4.5,0-4.5,0c0-21.2,0-21.2,0-21.2C1,12.8,4.9,11.5,5.4,11.5z"/>
		<path class="st1" d="M53.3,19.1c0-5.2,2.4-7.3,8.7-7.3c11.6,0,11.6,0,11.6,0c0,4.2,0,4.2,0,4.2c-12.1,0-12.1,0-12.1,0
			c-1.1,0-1.1,0-1.1,0c-0.3,0-0.3,0-0.3,0c-0.3,0-0.5,0-0.8,0c-1.1,0.5-1.6,1.3-1.6,2.9c0,5,0,5,0,5c15.6,0,15.6,0,15.6,0
			c0,3.9,0,3.9,0,3.9c-15.6,0-15.6,0-15.6,0c0,11.8,0,11.8,0,11.8c-4.5,0-4.5,0-4.5,0V19.1z"/>
		<path class="st1" d="M35,31.1c-5.8-13.9-5.8-13.9-5.8-13.9c-5.5,13.9-5.5,13.9-5.5,13.9c1.6-1,3.4-1.6,5.5-1.6
			C31.3,29.6,33.4,30.1,35,31.1z M20.2,39.5c-4.8,0-4.8,0-4.8,0c10.3-25.1,10.3-25.1,10.3-25.1c1.1-2.4,2.6-3.4,5-2.6
			c0.8,0.3,1.3,1,2.1,2.6c10.3,25.1,10.3,25.1,10.3,25.1c-4.8,0-4.8,0-4.8,0c-1.6-3.4-5-6-9.2-6C25.3,33.5,21.8,36.1,20.2,39.5z"/>
	</g>
</g>
</svg>
