<?xml version="1.0" encoding="utf-8"?>
<!-- Generator: Adobe Illustrator 24.3.0, SVG Export Plug-In . SVG Version: 6.00 Build 0)  -->
<svg version="1.1" id="Layer_1" xmlns="http://www.w3.org/2000/svg" xmlns:xlink="http://www.w3.org/1999/xlink" x="0px" y="0px"
	 viewBox="0 0 1566.5 283.5" style="enable-background:new 0 0 1566.5 283.5;" xml:space="preserve">
<style type="text/css">
	.st0{fill:#003b49;}
</style>
<path class="st0" d="M0,0h75.1v258.7H0V0z M350.7,0l-75,211.5V0h-91.9L91.9,258.7h40.4l68.2-192.2v192.2h98.7l68.2-192.2v192.2h75.1
	V0H350.7z M762.8,67.7h8.5v73.2h-8.5V67.7z M797.5,98.1l1.9-0.9c1.3-0.6,3.2-1.3,5.7-1.9c2.5-0.7,4.8-1,7-1c4.6,0,7.6,1.3,9,3.9
	c1.4,2.7,2.1,7.7,2.1,14.9v27.8h8.2v-28c0-9.7-1.2-16.5-3.7-20.3c-2.5-3.8-7.3-5.8-14.3-5.8c-5.1,0-10.5,1.5-16.1,4.6v-3.5h-8.2v53
	h8.3L797.5,98.1L797.5,98.1z M850.5,122.6c0,7.5,1.1,12.7,3.2,15.4c2.1,2.7,6,4.1,11.5,4.1c2.5,0,6.1-0.4,10.8-1.2l0.2,0l-0.6-6.9
	l-9.6,0.6c-3.2,0-5.2-0.9-6.1-2.7c-0.9-1.9-1.3-5.8-1.3-11.8v-25h16.7v-7.3h-16.7V71.8h-8.2v16.1H843v7.3h7.5L850.5,122.6
	L850.5,122.6z M906.3,141.9c5.7,0,12.6-0.6,20.5-1.7l0.2,0l-0.2-6.4l0-0.2l-3.3,0.3c-5.4,0.4-10.7,0.6-15.9,0.6
	c-5.1,0-8.8-1.4-10.8-4.1c-2-2.7-3.1-7-3.1-12.6h34.7l0.4-6.2c0-8.5-1.8-14.8-5.3-18.8c-3.5-4-8.9-6-16-6
	c-14.7,0-22.2,9.4-22.2,27.9c0,9.3,1.6,16.2,4.8,20.6C893.2,139.7,898.7,141.9,906.3,141.9z M897.2,98c2.3-2.7,5.8-4.1,10.4-4.1
	c4.6,0,7.9,1.3,9.9,3.9c2,2.6,3,7.1,3.1,13.3h-26.9C893.7,105.1,894.9,100.7,897.2,98z M943,142.4c-1.3,1.8-1.9,4.2-1.9,7.1
	c0,6.1,1.7,10.3,5.1,12.6c3.3,2.3,9.3,3.4,17.7,3.4c15.6,0,23.6-5.7,23.6-16.9c0-6.1-1.5-10.4-4.5-12.5c-3-2.1-7.9-3.2-14.6-3.2
	c-6.7,0-10.7-0.3-12-0.8c-1.3-0.5-1.9-1.8-1.9-3.9c0-0.9,0.6-2.8,1.8-5.8c1.5,0.3,3.2,0.4,5,0.4c7,0,12.3-1.3,15.5-4
	c3.3-2.7,5-7.4,5-14c0-4.5-1.1-8-3.2-10.3l9.5,0.2l0.2,0v-7.2l-15.7,0.4l-1.6-0.3c-2.9-0.7-6-1.1-9.4-1.1
	c-13.2,0-19.9,6.1-19.9,18.2c0,8,2.8,13.4,8.2,16l-0.8,1.5c-1.8,3.3-2.7,5.5-2.7,6.7c0,3.4,0.9,5.9,2.8,7.3
	C946.3,138.7,944.2,140.6,943,142.4z M952.7,96.3c1.8-1.7,4.9-2.6,9.1-2.6s7.2,0.9,9,2.6c1.8,1.7,2.7,4.7,2.7,8.7
	c0,4.1-0.9,7-2.7,8.7c-1.8,1.7-4.8,2.6-9,2.6s-7.2-0.9-9.1-2.6s-2.7-4.6-2.7-8.7C950,100.9,950.9,98,952.7,96.3z M950.4,144.2
	c0.8-1.2,2.3-2.7,4.6-4.3l11.3,0.5c5.1,0,8.5,0.5,10.2,1.6c1.7,1,2.5,3.3,2.5,6.8s-1.2,6.1-3.5,7.6c-2.4,1.5-6.4,2.3-11.9,2.3
	s-9.3-0.7-11.3-2.1c-2-1.4-3-3.9-3-7.6C949.2,147,949.7,145.4,950.4,144.2z M1028.1,95.1v-8.4l-0.2,0.1c-6.6,1.3-13,4-19,8.1v-7
	h-8.2v53h8.3v-38.7l2.5-1.3c1.7-0.9,4.1-2,7.3-3.1c3.2-1.2,6.3-2.1,9.2-2.6L1028.1,95.1z M1084.5,134.6c-3.2,0-5.2-0.9-6.1-2.7
	c-0.9-1.9-1.3-5.8-1.3-11.8V95.1h16.7v-7.3h-16.7V71.8h-8.2v16.1h-7.5v7.3h7.5v27.5c0,7.5,1.1,12.7,3.2,15.4c2.1,2.7,6,4.1,11.5,4.1
	c2.4,0,6.1-0.4,10.8-1.2l0.2,0l-0.6-6.9L1084.5,134.6z M1125.9,86.8c-14.7,0-22.2,9.4-22.2,27.9c0,9.3,1.6,16.2,4.8,20.6
	c3.2,4.4,8.7,6.7,16.3,6.7c5.7,0,12.6-0.6,20.6-1.7l0.2,0l-0.2-6.4l0-0.2l-3.3,0.3c-5.4,0.4-10.7,0.6-15.9,0.6
	c-5.1,0-8.8-1.4-10.8-4.1c-2-2.7-3.1-7-3.1-12.6h34.7l0.4-6.2c0-8.5-1.8-14.8-5.3-18.8C1138.4,88.8,1133,86.8,1125.9,86.8z
	 M1112,111.1c0.1-6,1.3-10.4,3.6-13.1c2.3-2.7,5.8-4.1,10.4-4.1c4.6,0,7.9,1.3,9.9,3.9c2,2.6,3,7.1,3.1,13.3L1112,111.1L1112,111.1z
	 M1164.7,122.6c0,7.5,1.1,12.7,3.2,15.4c2.1,2.7,6,4.1,11.5,4.1c2.4,0,6.1-0.4,10.8-1.2l0.2,0l-0.6-6.9l-9.6,0.6
	c-3.2,0-5.2-0.9-6.1-2.7c-0.9-1.9-1.3-5.8-1.3-11.8v-25h16.7v-7.3h-16.7V71.8h-8.2v16.1h-7.5v7.3h7.5L1164.7,122.6L1164.7,122.6z
	 M1235.4,138.1c3.5-2.6,5.3-6.6,5.3-12.1s-1.3-9.2-4-11.2c-2.6-2-7.1-3.5-13.3-4.6c-6.2-1.1-10.2-2.1-11.9-3.1c-1.7-1-2.5-2.6-2.5-5
	c0-5.2,3.7-7.8,11.3-7.8c4.4,0,10.6,0.6,18.4,1.7l0.2,0l0.2-7.2l-3.1-0.6c-6.4-1-11.9-1.5-16.1-1.5c-5.4,0-10,1.2-13.6,3.7
	c-3.7,2.5-5.5,6.4-5.5,11.5s1.3,8.8,4,10.7c2.6,1.9,7.1,3.4,13.2,4.3c6.1,1,10.1,2,11.9,3.1c1.8,1,2.6,3.1,2.6,6s-1.1,5.1-3.1,6.3
	c-2.1,1.3-5.2,1.9-9.2,1.9c-4,0-10.1-0.6-18.1-1.8l-0.2,0l-0.4,7.3l3.3,0.6c5.9,1,11.1,1.5,15.4,1.5
	C1226.8,141.9,1231.9,140.7,1235.4,138.1z M1280.7,132.6c-2.1,1.3-5.2,1.9-9.2,1.9c-4,0-10.1-0.6-18.1-1.8l-0.2,0l-0.4,7.3l3.3,0.6
	c5.9,1,11.1,1.5,15.4,1.5c6.7,0,11.8-1.3,15.3-3.8c3.5-2.6,5.3-6.6,5.3-12.1s-1.3-9.2-4-11.2c-2.6-2-7.1-3.5-13.3-4.6
	c-6.2-1.1-10.2-2.1-11.9-3.1c-1.7-1-2.5-2.6-2.5-5c0-5.2,3.7-7.8,11.3-7.8c4.4,0,10.6,0.6,18.4,1.7l0.2,0l0.2-7.2l-3.1-0.6
	c-6.4-1-11.9-1.5-16.1-1.5c-5.4,0-10,1.2-13.6,3.7c-3.7,2.5-5.5,6.4-5.5,11.5s1.3,8.8,4,10.7c2.6,1.9,7.1,3.4,13.2,4.3
	c6.1,1,10.1,2,11.9,3.1c1.8,1,2.6,3.1,2.6,6C1283.8,129.2,1282.7,131.3,1280.7,132.6z M1314,116.8l8-0.3l15.6,24.3l0.1,0.1h9.4
	l-18-28.6l17.3-24.4h-9.5l-15,21.2l-7.9,0.4V64.9h-8.3v76h8.3V116.8z M1381,133.6h-3.2L1364.8,88l0-0.1h-8.3l15,52.9l0,0.1h7.7
	l-6.8,23.1l-0.1,0.3h8.3l21.9-76.1l0.1-0.3h-8.3L1381,133.6z M1446.5,88.1c-4.5-0.9-8.8-1.3-12.7-1.3c-7.9,0-13.6,2.3-17.1,6.9
	c-3.4,4.5-5.1,12-5.1,22.2c0,10.2,1.9,17.3,5.7,21.1c1.8,1.8,3.8,3.1,6,3.8c2.1,0.7,4.6,1.1,7.4,1.1c5.2,0,10.5-1.5,15.8-4.5v3.4
	h8.2v-76h-8.2L1446.5,88.1L1446.5,88.1z M1446.5,130.7l-2,0.9c-1.4,0.6-3.3,1.3-5.8,1.9c-2.5,0.7-4.7,1-6.7,1c-2,0-3.6-0.2-4.8-0.7
	c-1.2-0.5-2.4-1.4-3.5-2.7c-2.4-2.8-3.6-8.2-3.6-16.3c0-7.1,1.1-12.4,3.1-15.7c2.1-3.3,5.8-5,11-5c3.8,0,7.9,0.4,12.3,1.2V130.7z
	 M1504.4,88.1c-4.5-0.9-8.8-1.3-12.7-1.3c-7.9,0-13.6,2.3-17.1,6.9c-3.4,4.5-5.1,12-5.1,22.2c0,10.2,1.9,17.3,5.7,21.1
	c1.8,1.8,3.8,3.1,6,3.8c2.1,0.7,4.6,1.1,7.4,1.1c5.2,0,10.5-1.5,15.8-4.5v3.4h8.2v-76h-8.2L1504.4,88.1L1504.4,88.1z M1504.4,130.7
	l-2,0.9c-1.4,0.6-3.3,1.3-5.8,1.9c-2.5,0.7-4.7,1-6.7,1c-2,0-3.6-0.2-4.8-0.7c-1.2-0.5-2.4-1.4-3.5-2.7c-2.4-2.8-3.6-8.2-3.6-16.3
	c0-7.1,1.1-12.4,3.1-15.7c2.1-3.3,5.8-5,11-5c3.8,0,7.9,0.4,12.3,1.2V130.7z M1562.5,114.8c-2.6-2-7.1-3.5-13.3-4.6
	c-6.2-1.1-10.2-2.1-11.9-3.1c-1.7-1-2.5-2.6-2.5-5c0-5.2,3.7-7.8,11.3-7.8c4.4,0,10.6,0.6,18.4,1.7l0.2,0l0.2-7.2l-3.1-0.6
	c-6.4-1-11.9-1.5-16.1-1.5c-5.4,0-10,1.2-13.6,3.7c-3.7,2.5-5.5,6.4-5.5,11.5s1.3,8.8,4,10.7c2.6,1.9,7.1,3.4,13.2,4.3
	c6.1,1,10.1,2,11.9,3.1c1.8,1,2.6,3.1,2.6,6s-1.1,5.1-3.1,6.3c-2.1,1.3-5.2,1.9-9.2,1.9c-4,0-10.1-0.6-18.1-1.8l-0.2,0l-0.4,7.3
	l3.3,0.6c5.9,1,11.1,1.5,15.4,1.5c6.7,0,11.8-1.3,15.3-3.8c3.5-2.6,5.3-6.6,5.3-12.1C1566.5,120.6,1565.2,116.8,1562.5,114.8z
	 M817.2,204.7c-2.8,0-6.1,0.6-9.8,1.6c-3.6,1.1-6.6,2.3-8.9,3.7c-2.6-3.5-7.3-5.3-13.7-5.3c-4.9,0-10,1.5-15.2,4.6v-3.5h-8.2v53h8.3
	v-42.8l1.7-0.9c1.2-0.6,3-1.3,5.4-1.9c2.3-0.7,4.6-1,6.8-1c4.5,0,7.5,1.3,8.8,3.9c1.3,2.7,2,7.8,2,15.3v27.4h8.3v-27.6
	c0-7.7-0.4-12.8-1.3-15.2l1.8-0.9c1.3-0.6,3.2-1.3,5.7-1.9c2.4-0.7,4.8-1,7.1-1c4.5,0,7.4,1.3,8.8,3.9c1.4,2.7,2.1,7.7,2.1,14.9
	v27.8h8.3v-28c0-9.8-1.2-16.6-3.7-20.4C829.1,206.6,824.3,204.7,817.2,204.7z M870.4,251.5h-3.2l-13.1-45.6l0-0.1h-8.3l15,52.9
	l0,0.1h7.7l-6.8,23.1l-0.1,0.3h8.3l21.9-76.1l0.1-0.3h-8.3L870.4,251.5z M928.8,204.7c-5.1,0-10.5,1.5-16.1,4.6v-3.5h-8.2v53h8.3
	v-42.8l1.9-0.9c1.3-0.6,3.2-1.3,5.7-1.9c2.5-0.7,4.8-1,7-1c4.6,0,7.6,1.3,9,3.9c1.4,2.7,2.1,7.7,2.1,14.9v27.8h8.2v-28
	c0-9.7-1.2-16.5-3.7-20.3C940.7,206.6,935.9,204.7,928.8,204.7z M996.1,206c-4.5-0.9-8.8-1.3-12.7-1.3c-7.9,0-13.6,2.3-17.1,6.9
	c-3.4,4.5-5.1,12-5.1,22.2c0,10.2,1.9,17.3,5.7,21.1c1.8,1.8,3.8,3.1,6,3.8c2.1,0.7,4.6,1.1,7.4,1.1c5.2,0,10.5-1.5,15.8-4.5v3.4
	h8.2v-76h-8.2L996.1,206L996.1,206z M996.1,248.5l-2,0.9c-1.4,0.6-3.3,1.3-5.8,1.9c-2.5,0.7-4.7,1-6.7,1c-2,0-3.6-0.2-4.8-0.7
	c-1.2-0.5-2.4-1.4-3.5-2.7c-2.4-2.8-3.6-8.2-3.6-16.3c0-7.1,1-12.4,3.1-15.7c2-3.3,5.8-5,11-5c3.8,0,7.9,0.4,12.3,1.2V248.5z
	 M1073.1,205.7c-2.9-0.7-6.1-1.1-9.4-1.1c-13.2,0-19.9,6.1-19.9,18.2c0,8,2.8,13.4,8.2,16l-0.8,1.5c-1.8,3.3-2.7,5.5-2.7,6.7
	c0,3.4,0.9,5.9,2.8,7.3c-2.9,2.2-5,4.2-6.2,5.9c-1.3,1.8-1.9,4.2-1.9,7.1c0,6.1,1.7,10.3,5.1,12.6c3.3,2.3,9.3,3.5,17.7,3.5
	c15.6,0,23.6-5.7,23.6-16.9c0-6.1-1.5-10.4-4.5-12.5c-3-2.1-7.9-3.2-14.6-3.2c-6.7,0-10.7-0.3-12-0.8c-1.3-0.5-1.9-1.8-1.9-3.9
	c0-0.9,0.6-2.8,1.8-5.8c1.5,0.3,3.2,0.4,5,0.4c7,0,12.3-1.3,15.6-4c3.3-2.7,5-7.4,5-14c0-4.5-1.1-8-3.2-10.3l9.5,0.2l0.2,0v-7.2
	l-15.7,0.4L1073.1,205.7z M1057.1,257.7l11.3,0.5c5.1,0,8.5,0.5,10.2,1.5c1.7,1,2.5,3.3,2.5,6.8c0,3.5-1.2,6.1-3.5,7.6
	c-2.4,1.5-6.4,2.3-11.9,2.3s-9.3-0.7-11.3-2.1c-2-1.4-3-3.9-3-7.6c0-1.9,0.4-3.5,1.2-4.7C1053.3,260.8,1054.9,259.3,1057.1,257.7z
	 M1072.9,231.6c-1.8,1.7-4.8,2.6-9,2.6s-7.2-0.9-9.1-2.6c-1.8-1.7-2.7-4.6-2.7-8.7c0-4.1,0.9-7,2.7-8.7c1.8-1.7,4.9-2.6,9.1-2.6
	c4.2,0,7.2,0.9,9,2.6c1.8,1.7,2.7,4.6,2.7,8.7S1074.7,229.8,1072.9,231.6z M1127.1,204.7c-5.1,0-10.5,1.3-16,3.9v-25.8h-8.3v76h8.3
	v-43.5l1.9-0.7c4.1-1.6,8.4-2.4,12.8-2.4c4.5,0,7.5,1.3,8.9,3.9c1.4,2.7,2.1,7.7,2.1,14.9v27.8h8.3v-28c0-9.7-1.2-16.5-3.7-20.3
	C1139,206.6,1134.2,204.7,1127.1,204.7z M1181.5,204.7c-14.7,0-22.2,9.4-22.2,27.9c0,9.3,1.6,16.2,4.8,20.6
	c3.2,4.4,8.7,6.7,16.3,6.7c5.7,0,12.6-0.6,20.6-1.7l0.2,0l-0.2-6.4l0-0.2l-3.3,0.3c-5.4,0.4-10.7,0.6-15.9,0.6
	c-5.1,0-8.8-1.4-10.8-4.1c-2-2.7-3.1-7-3.1-12.6h34.7l0.4-6.2c0-8.5-1.8-14.8-5.3-18.8C1194,206.7,1188.6,204.7,1181.5,204.7z
	 M1167.6,229c0.1-6,1.3-10.4,3.6-13.1c2.3-2.7,5.8-4.1,10.4-4.1c4.6,0,7.9,1.3,9.9,3.9c2,2.6,3,7.1,3.1,13.3L1167.6,229L1167.6,229z
	 M1235.8,252.4c-3.2,0-5.2-0.9-6.1-2.7c-0.9-1.9-1.3-5.8-1.3-11.8V213h16.7v-7.3h-16.7v-16.1h-8.2v16.1h-7.5v7.3h7.5v27.5
	c0,7.5,1.1,12.7,3.2,15.4c2.1,2.7,6,4.1,11.5,4.1c2.4,0,6.1-0.4,10.8-1.2l0.2,0l-0.6-6.9L1235.8,252.4z M1277.3,204.7
	c-14.7,0-22.2,9.4-22.2,27.9c0,9.3,1.6,16.2,4.8,20.6c3.2,4.4,8.7,6.7,16.3,6.7c5.7,0,12.6-0.6,20.6-1.7l0.2,0l-0.2-6.4l0-0.2
	l-3.3,0.3c-5.4,0.4-10.7,0.6-15.9,0.6c-5.1,0-8.8-1.4-10.8-4.1c-2-2.7-3.1-7-3.1-12.6h34.7l0.4-6.2c0-8.5-1.8-14.8-5.3-18.8
	C1289.8,206.7,1284.4,204.7,1277.3,204.7z M1263.4,229c0.1-6,1.3-10.4,3.6-13.1c2.3-2.7,5.8-4.1,10.4-4.1c4.6,0,7.9,1.3,9.9,3.9
	c2,2.6,3,7.1,3.1,13.3L1263.4,229L1263.4,229z M1337.1,204.7c-5.1,0-10.5,1.5-16.1,4.6v-3.5h-8.2v53h8.3v-42.8l1.9-0.9
	c1.3-0.6,3.2-1.3,5.7-1.9c2.5-0.7,4.8-1,7.1-1c4.6,0,7.6,1.3,9,3.9c1.4,2.7,2.1,7.7,2.1,14.9v27.8h8.2v-28c0-9.7-1.2-16.5-3.7-20.3
	C1349,206.6,1344.1,204.7,1337.1,204.7z M654,194.2c17.8,0,32.3,14.4,32.3,32.3s-14.4,32.3-32.3,32.3s-32.3-14.4-32.3-32.3
	S636.1,194.2,654,194.2z M622.3,0l-41,115.7L540.2,0h-80.8l61.2,172.5h40.5l-30.6,86.2h40.4L662.7,0H622.3z M1038.8,66.8h8.3v9.6
	h-8.3V66.8z M1038.8,87.9h8.3v53h-8.3V87.9z M1020.7,184.7h8.3v9.6h-8.3V184.7z M1020.7,205.7h8.3v53h-8.3V205.7z"/>
</svg>
