<?xml version="1.0" encoding="utf-8"?>
<!-- Generator: Adobe Illustrator 15.0.2, SVG Export Plug-In . SVG Version: 6.00 Build 0)  -->
<!DOCTYPE svg PUBLIC "-//W3C//DTD SVG 1.1//EN" "http://www.w3.org/Graphics/SVG/1.1/DTD/svg11.dtd">
<svg version="1.1" id="_x3C_Layer_x3E_" xmlns="http://www.w3.org/2000/svg" xmlns:xlink="http://www.w3.org/1999/xlink" x="0px"
	 y="0px" width="425px" height="78.806px" viewBox="0 0 425 78.806" enable-background="new 0 0 425 78.806" xml:space="preserve">
<path d="M80.946,64.953c-0.372-1.112-0.867-2.454-2.763-2.454c-1.876,0-2.288,1.424-2.288,2.146c0,1.443,1.133,1.896,3.029,2.619
	c1.609,0.617,3.917,1.504,3.917,4.143c0,1.711-1.155,4.02-4.391,4.02c-1.175,0-2.515-0.35-3.381-1.154
	c-0.969-0.887-1.216-1.999-1.36-2.743l1.525-0.433c0.206,0.907,0.68,2.927,3.257,2.927c2.062,0,2.618-1.442,2.618-2.35
	c0-1.629-1.401-2.228-2.7-2.721c-1.587-0.618-2.227-0.868-2.947-1.505c-0.722-0.639-1.196-1.689-1.196-2.721
	c0-1.67,1.216-3.628,4.061-3.628c3.092,0,3.813,2.432,4.102,3.422L80.946,64.953z"/>
<path d="M85.377,64.975l1.753,7.626l1.732-7.626h1.092l1.876,7.709l1.813-7.709h1.257l-2.494,10.163h-1.278l-1.731-7.154
	l-1.629,7.154h-1.34l-2.556-10.163H85.377z"/>
<path d="M97.289,70.25c0,0.888-0.021,3.917,2.371,3.917c1.442,0,1.834-1.257,2.061-2.04l1.423,0.328
	c-0.639,2.373-2.104,2.97-3.567,2.97c-2.906,0-3.876-2.557-3.876-5.216c0-3.814,1.815-5.524,3.959-5.524
	c2.289,0,3.566,1.752,3.629,5.564H97.289z M101.576,69.014c0-1.525-0.475-3.072-2.082-3.072c-1.546,0-2,1.629-2.124,3.072H101.576z"
	/>
<path d="M112.302,61.387v13.75h-1.36v-1.422c-0.268,0.495-0.907,1.627-2.722,1.627c-3.236,0-3.566-3.628-3.566-5.153
	c0-3.525,1.505-5.421,3.608-5.421c1.732,0,2.268,1.072,2.536,1.588v-4.969H112.302z M110.797,69.096c0-0.515,0-1.38-0.578-2.185
	c-0.473-0.659-1.113-0.886-1.69-0.886c-1.836,0-2.206,2.06-2.206,3.958c0,2.35,0.536,4.102,2.288,4.102
	c0.639,0,1.258-0.309,1.649-0.825c0.495-0.618,0.536-1.463,0.536-2.475V69.096z"/>
<path d="M114.961,63.181v-1.753h1.629v1.753H114.961z M116.527,64.975v10.163h-1.504V64.975H116.527z"/>
<path d="M123.805,67.592c-0.166-0.433-0.578-1.65-1.979-1.65c-1.195,0-1.752,0.826-1.752,1.568c0,1.03,0.701,1.258,2.371,1.752
	c1.299,0.413,3.113,1.01,3.113,3.051c0,1.464-1.113,3.113-3.69,3.113c-3.051,0-3.484-2.145-3.649-2.908l1.402-0.308
	c0.103,0.535,0.392,1.958,2.35,1.958c1.464,0,2.02-0.949,2.02-1.669c0-1.134-1.072-1.463-1.979-1.752
	c-1.732-0.536-2.432-0.804-2.928-1.525c-0.309-0.433-0.494-0.948-0.494-1.504c0-1.216,0.99-3.03,3.319-3.03
	c2.473,0,3.009,1.834,3.216,2.578L123.805,67.592z"/>
<path d="M128.814,61.387v5.153c0.186-0.535,0.681-1.854,2.536-1.854c1.052,0,1.938,0.473,2.371,1.278
	c0.351,0.68,0.351,1.752,0.351,2.865v6.309h-1.505v-6.309c0-1.381,0-2.887-1.649-2.887c-1.897,0-2.103,2.619-2.103,3.877v5.319
	h-1.505v-13.75H128.814z"/>
<path d="M150.522,71.2c-0.371,2.061-1.114,4.226-4.247,4.226c-4.165,0-4.783-4.391-4.783-7.112c0-1.876,0.288-7.216,4.844-7.216
	c3.38,0,4.02,2.928,4.267,4.185l-1.587,0.392c-0.268-1.34-0.639-3.176-2.638-3.176c-3.031,0-3.113,4.412-3.113,5.773
	c0,1.917,0.309,5.751,3.113,5.751c1.546,0,2.144-0.824,2.638-3.196L150.522,71.2z"/>
<path d="M159.756,69.942c0,1.793-0.288,5.484-3.916,5.484c-3.155,0-3.876-2.99-3.876-5.36c0-2.062,0.495-5.38,3.938-5.38
	C159.097,64.686,159.756,67.798,159.756,69.942z M153.634,70.066c0,1.155,0.103,4.102,2.227,4.102c2.123,0,2.226-2.947,2.226-4.102
	c0-0.948-0.041-4.124-2.226-4.124C153.695,65.942,153.634,69.036,153.634,70.066z"/>
<path d="M161.565,64.975h1.402v1.545c0.392-0.845,0.865-1.834,2.494-1.834c1.979,0,2.288,1.38,2.433,2.061
	c0.267-0.64,0.803-2.061,2.68-2.061c0.824,0,1.731,0.329,2.247,1.133c0.433,0.681,0.433,1.979,0.433,3.051v6.268h-1.505v-6.185
	c0-1.546,0-3.011-1.547-3.011c-1.772,0-2.041,2.001-2.041,3.197v5.999h-1.505v-6.865c0-1.958-0.66-2.331-1.587-2.331
	c-1.072,0-1.484,0.744-1.69,1.155c-0.309,0.66-0.309,1.361-0.309,2.145v5.896h-1.506V64.975z"/>
<path d="M177.078,64.975v1.772c0.267-0.618,0.845-1.979,2.7-1.979c2.185,0,3.566,2.02,3.566,5.154c0,1.03-0.227,5.421-3.566,5.421
	c-1.505,0-2.042-0.7-2.556-1.525v4.762h-1.505V64.975H177.078z M177.222,70.828c0,0.846,0,1.628,0.557,2.372
	c0.412,0.558,0.969,0.886,1.669,0.886c0.681,0,1.196-0.247,1.629-1.009c0.495-0.866,0.598-2.207,0.598-3.073
	c0-1.464-0.31-3.979-2.227-3.979c-0.597,0-1.236,0.186-1.751,1.114c-0.474,0.845-0.474,1.484-0.474,2.164V70.828z"/>
<path d="M186.384,70.25c0,0.888-0.021,3.917,2.371,3.917c1.444,0,1.836-1.257,2.062-2.04l1.423,0.328
	c-0.64,2.373-2.103,2.97-3.567,2.97c-2.906,0-3.875-2.557-3.875-5.216c0-3.814,1.814-5.524,3.958-5.524
	c2.289,0,3.567,1.752,3.629,5.564H186.384z M190.672,69.014c0-1.525-0.474-3.072-2.083-3.072c-1.546,0-2,1.629-2.124,3.072H190.672z
	"/>
<path d="M196.114,62.459v2.516h1.979v1.236h-1.979v5.113c0,1.958,0,2.782,1.566,2.782c0.372,0,0.639-0.041,0.907-0.103v1.278
	c-0.37,0.061-0.803,0.144-1.401,0.144c-2.576,0-2.576-1.649-2.576-4.102v-5.113h-1.464v-1.236h1.464v-2.372L196.114,62.459z"/>
<path d="M199.797,63.181v-1.753h1.629v1.753H199.797z M201.365,64.975v10.163h-1.505V64.975H201.365z"/>
<path d="M205.735,62.459v2.516h1.978v1.236h-1.978v5.113c0,1.958,0,2.782,1.566,2.782c0.372,0,0.639-0.041,0.907-0.103v1.278
	c-0.37,0.061-0.803,0.144-1.401,0.144c-2.577,0-2.577-1.649-2.577-4.102v-5.113h-1.464v-1.236h1.464v-2.372L205.735,62.459z"/>
<path d="M209.419,63.181v-1.753h1.627v1.753H209.419z M210.985,64.975v10.163h-1.505V64.975H210.985z"/>
<path d="M220.725,69.942c0,1.793-0.289,5.484-3.917,5.484c-3.154,0-3.875-2.99-3.875-5.36c0-2.062,0.495-5.38,3.938-5.38
	C220.064,64.686,220.725,67.798,220.725,69.942z M214.602,70.066c0,1.155,0.104,4.102,2.227,4.102s2.225-2.947,2.225-4.102
	c0-0.948-0.04-4.124-2.225-4.124C214.664,65.942,214.602,69.036,214.602,70.066z"/>
<path d="M222.692,64.975h1.402v1.566c0.269-0.599,0.825-1.854,2.619-1.854c1.154,0,2.061,0.535,2.431,1.36
	c0.289,0.618,0.31,1.484,0.31,2.617v6.474h-1.505V68.87c0-1.69,0-2.928-1.568-2.928c-1.215,0-2.184,0.846-2.184,3.712v5.484h-1.505
	V64.975z"/>
<path d="M241.105,61.387l3.668,13.75h-1.688l-1.011-3.938h-4.124l-0.988,3.938h-1.691l3.855-13.75H241.105z M241.726,69.86
	l-1.713-6.845l-1.731,6.845H241.726z"/>
<path d="M247.583,64.975v6.411c0,1.71,0,2.783,1.546,2.783c2.205,0,2.205-2.988,2.205-4.555v-4.639h1.505v10.163h-1.402v-1.505
	c-0.33,0.66-0.885,1.793-2.659,1.793c-0.495,0-1.732-0.062-2.35-1.34c-0.351-0.701-0.351-2.082-0.351-2.68v-6.432H247.583z"/>
<path d="M257.231,62.459v2.516h1.978v1.236h-1.978v5.113c0,1.958,0,2.782,1.565,2.782c0.372,0,0.64-0.041,0.907-0.103v1.278
	c-0.371,0.061-0.802,0.144-1.4,0.144c-2.577,0-2.577-1.649-2.577-4.102v-5.113h-1.465v-1.236h1.465v-2.372L257.231,62.459z"/>
<path d="M262.322,61.387v5.153c0.185-0.535,0.68-1.854,2.535-1.854c1.053,0,1.938,0.473,2.372,1.278
	c0.35,0.68,0.35,1.752,0.35,2.865v6.309h-1.504v-6.309c0-1.381,0-2.887-1.649-2.887c-1.896,0-2.103,2.619-2.103,3.877v5.319h-1.503
	v-13.75H262.322z"/>
<path d="M277.181,69.942c0,1.793-0.288,5.484-3.918,5.484c-3.154,0-3.874-2.99-3.874-5.36c0-2.062,0.495-5.38,3.937-5.38
	C276.521,64.686,277.181,67.798,277.181,69.942z M271.058,70.066c0,1.155,0.104,4.102,2.227,4.102c2.123,0,2.227-2.947,2.227-4.102
	c0-0.948-0.041-4.124-2.227-4.124C271.12,65.942,271.058,69.036,271.058,70.066z"/>
<path d="M280.488,64.975v2.123c0.288-0.722,0.989-2.535,2.927-2.391v1.69c-1.669-0.185-2.763,0.969-2.763,3.484v5.258h-1.506V64.975
	H280.488z"/>
<path d="M284.581,63.181v-1.753h1.628v1.753H284.581z M286.148,64.975v10.163h-1.505V64.975H286.148z"/>
<path d="M290.519,62.459v2.516h1.978v1.236h-1.978v5.113c0,1.958,0,2.782,1.566,2.782c0.371,0,0.639-0.041,0.905-0.103v1.278
	c-0.37,0.061-0.802,0.144-1.399,0.144c-2.578,0-2.578-1.649-2.578-4.102v-5.113h-1.465v-1.236h1.465v-2.372L290.519,62.459z"/>
<path d="M294.641,64.975l2.081,7.607l2.248-7.607h1.443l-3.505,11.193c-0.476,1.505-0.97,2.639-2.66,2.639
	c-0.413,0-0.701-0.062-0.989-0.103v-1.236c0.227,0.041,0.412,0.082,0.701,0.082c1.136,0,1.381-0.473,2.04-2.865l-2.865-9.709
	H294.641z"/>
<g>
	<path fill="#FFCD1C" d="M52.79,1.758c-1.211-1.769-3.602-2.296-5.439-1.153C32.75,9.686,12.341,25.979,1.475,34.883
		c-1.721,1.41-1.973,3.948-0.562,5.669c0.796,0.972,1.952,1.475,3.118,1.475c0.898,0,1.802-0.299,2.551-0.913
		C12.224,36.49,20.47,29.85,29.088,23.308C17.032,38.935,8.112,53.33,1.971,67.042c-0.909,2.031,0,4.414,2.03,5.323
		c0.535,0.24,1.094,0.353,1.644,0.353c1.539,0,3.009-0.887,3.679-2.383c5.521-12.33,13.445-25.301,24.043-39.349
		c-3.093,6.898-6.138,14.284-8.573,21.741c-0.69,2.115,0.464,4.389,2.579,5.079c0.415,0.136,0.836,0.2,1.251,0.2
		c1.696,0,3.273-1.08,3.828-2.779c4.165-12.755,10.296-25.522,15.222-35.78c2.558-5.325,4.766-9.924,6.092-13.303
		C54.382,4.574,53.941,2.854,52.79,1.758z"/>
	<path fill="#0069B4" d="M67.842,3.752C66.63,1.984,64.24,1.456,62.402,2.6c-14.611,9.088-35.014,25.377-45.876,34.278
		c-1.721,1.41-1.973,3.948-0.562,5.669c0.796,0.972,1.953,1.475,3.118,1.475c0.898,0,1.802-0.299,2.551-0.913
		c5.355-4.389,13.058-10.595,21.198-16.811C30.998,41.705,22.219,55.916,16.152,69.462c-0.909,2.03,0,4.414,2.03,5.323
		c0.535,0.24,1.094,0.353,1.644,0.353c1.539,0,3.009-0.887,3.679-2.383c6.192-13.827,15.403-28.46,28.021-44.511
		c-4.068,9.645-8.442,20.503-11.68,30.419c-0.69,2.115,0.464,4.389,2.579,5.079c0.415,0.136,0.836,0.2,1.25,0.2
		c1.696,0,3.273-1.08,3.829-2.779C51.998,47.4,58.828,31.562,63.815,19.997c2.082-4.829,3.88-8.999,5.003-11.859
		C69.434,6.568,68.993,4.848,67.842,3.752z"/>
</g>
<g>
	<polygon points="93.477,24.114 87.509,24.114 79.525,36.747 79.525,24.114 74.042,24.114 74.042,53.403 79.525,53.403 
		79.525,43.778 82.434,39.69 88.626,53.403 94.583,53.403 85.825,35.014 	"/>
	<path d="M104.953,23.601c-4.858,0-10.648,2.633-10.648,15.179c0,12.511,5.814,15.137,10.691,15.137
		c6.911,0,10.563-5.234,10.563-15.137C115.559,28.85,111.891,23.601,104.953,23.601z M101.164,30.947
		c0.617-1.389,1.504-2.674,3.789-2.674c2.224,0,3.115,1.287,3.744,2.669c0.927,2.165,1.122,5.458,1.122,7.839
		c0,1.922-0.146,5.491-1.12,7.792c-0.583,1.321-1.479,2.672-3.703,2.672c-1.906,0-2.98-0.75-3.828-2.666
		c-1.014-2.409-1.124-6.256-1.124-7.799C100.043,34.417,100.653,32.111,101.164,30.947z"/>
	<polygon points="134.479,43.269 125.719,24.114 119.521,24.114 119.521,53.403 124.234,53.403 124.234,31.966 134.15,53.403 
		139.193,53.403 139.193,24.114 134.479,24.114 	"/>
	<polygon points="163.575,24.114 157.606,24.114 149.622,36.747 149.622,24.114 144.139,24.114 144.139,53.403 149.622,53.403 
		149.622,43.778 152.531,39.69 158.724,53.403 164.681,53.403 155.922,35.014 	"/>
	<path d="M180.21,42.114c0,4.14,0,7.131-4.268,7.131c-4.353,0-4.353-3.265-4.353-7.046V24.114h-5.398v18.085
		c0,4.667,0,11.718,9.495,11.718c3.518,0,5.353-1.043,6.431-1.83c3.106-2.319,3.106-6.319,3.106-10.188V24.114h-5.013V42.114z"/>
	<path d="M208.602,32.626c0-4.248-2.205-6.3-3.155-6.986c-1.499-1.069-3.395-1.526-6.339-1.526h-8.981v29.289h5.482V41.479h3.784
		l4.488,11.924h5.945l-5.517-13.119C205.739,39.517,208.602,37.655,208.602,32.626z M195.609,28.529h3.285
		c2.871,0,4.268,1.326,4.268,4.054c0,2.974-1.451,4.481-4.311,4.481h-3.242V28.529z"/>
	<path d="M231.597,32.626c0-4.248-2.206-6.299-3.156-6.986c-1.499-1.069-3.394-1.526-6.339-1.526h-8.981v29.289h5.483V41.479h3.783
		l4.488,11.924h5.944l-5.516-13.119C228.733,39.517,231.597,37.657,231.597,32.626z M218.604,28.529h3.285
		c2.872,0,4.269,1.326,4.269,4.054c0,2.974-1.451,4.481-4.311,4.481h-3.242V28.529z"/>
	<polygon points="241.597,40.625 250.702,40.625 250.702,36.082 241.597,36.082 241.597,28.658 253.181,28.658 253.181,24.114 
		236.115,24.114 236.115,53.403 253.394,53.403 253.394,48.776 241.597,48.776 	"/>
	<polygon points="270.99,43.269 262.229,24.114 256.031,24.114 256.031,53.403 260.744,53.403 260.744,31.966 270.661,53.403 
		275.704,53.403 275.704,24.114 270.99,24.114 	"/>
	<path d="M290.885,35.852l-0.197-0.077c-3.267-1.281-5.239-2.055-5.239-4.303c0-1.106,0.732-3.2,3.498-3.2
		c2.727,0,3.809,1.583,4.674,4.137l0.126,0.375l4.744-1.666l-0.108-0.358c-0.596-1.958-2.178-7.159-9.178-7.159
		c-6.289,0-9.152,4.368-9.152,8.426c0,3.393,1.887,5.401,2.699,6.108c1.615,1.393,3.035,1.929,6.146,3.106
		c2.526,0.925,4.617,1.886,4.617,4.291c0,0.62-0.204,3.712-4.225,3.712c-4.282,0-5.108-3.558-5.434-4.955l-0.093-0.4l-4.584,1.31
		l-0.35,0.148l0.089,0.365c0.495,2.029,2.003,8.204,10.242,8.204c6.846,0,9.963-4.678,9.963-9.024
		C299.124,38.956,294.163,37.087,290.885,35.852z"/>
	<polygon points="310.787,45.559 305.666,24.114 299.896,24.114 307.372,53.11 307.447,53.398 313.181,53.494 320.865,24.114 
		315.906,24.114 	"/>
	<polygon points="328.487,40.625 337.591,40.625 337.591,36.082 328.487,36.082 328.487,28.658 340.069,28.658 340.069,24.114 
		323.004,24.114 323.004,53.403 340.282,53.403 340.282,48.776 328.487,48.776 	"/>
	<path d="M361.567,32.626c0-4.248-2.206-6.299-3.155-6.986c-1.499-1.069-3.395-1.526-6.34-1.526h-8.981v29.289h5.483V41.479h3.784
		l4.488,11.924h5.943l-5.517-13.119C358.704,39.517,361.567,37.657,361.567,32.626z M348.574,28.529h3.284
		c2.873,0,4.27,1.326,4.27,4.054c0,2.974-1.451,4.481-4.312,4.481h-3.242V28.529z"/>
	<polygon points="385.521,24.114 379.553,24.114 371.567,36.747 371.567,24.114 366.086,24.114 366.086,53.403 371.567,53.403 
		371.567,43.778 374.478,39.69 380.67,53.403 386.628,53.403 377.868,35.014 	"/>
	<polygon points="393.835,40.625 402.938,40.625 402.938,36.082 393.835,36.082 393.835,28.658 405.418,28.658 405.418,24.114 
		388.353,24.114 388.353,53.403 405.632,53.403 405.632,48.776 393.835,48.776 	"/>
	<polygon points="406.866,24.114 406.866,28.915 413.148,28.915 413.148,53.403 418.632,53.403 418.632,28.915 425,28.915 
		425,24.114 	"/>
</g>
</svg>
