<svg width="147" height="42" viewBox="0 0 147 42" fill="none" xmlns="http://www.w3.org/2000/svg">
<g id="krimvarden 1">
<g id="Lager 2">
<path id="Vector" d="M1.35999 32C1.44249 34.6197 2.54117 37.1046 4.42347 38.9285C6.30577 40.7525 8.82395 41.7724 11.445 41.7724C14.066 41.7724 16.5842 40.7525 18.4665 38.9285C20.3488 37.1046 21.4475 34.6197 21.53 32V18.57H1.35999V32Z" fill="#3D69AF"/>
<path id="Vector_2" d="M11.46 5.75C3.05999 5.99 1.04999 11.19 1.04999 11.19L2.28999 17.19H20.62L21.87 11.19C21.87 11.19 19.87 5.99 11.46 5.75Z" fill="#A41546"/>
<path id="Vector_3" d="M11.46 5.75C3.05999 5.99 1.04999 11.19 1.04999 11.19L2.28999 17.19H20.62L21.87 11.19C21.87 11.19 19.86 6 11.46 5.75Z" stroke="#000100" stroke-width="0.16" stroke-miterlimit="3.86"/>
<path id="Vector_4" d="M11.47 10.52C11.1756 10.52 10.8933 10.6369 10.6851 10.8451C10.4769 11.0533 10.36 11.3356 10.36 11.63C10.3587 11.8854 10.4472 12.1332 10.61 12.33C10.4794 12.2785 10.3404 12.2514 10.2 12.25C9.92507 12.2762 9.66978 12.4039 9.48398 12.6082C9.29819 12.8126 9.19523 13.0788 9.19523 13.355C9.19523 13.6312 9.29819 13.8974 9.48398 14.1018C9.66978 14.3061 9.92507 14.4338 10.2 14.46C10.3755 14.4579 10.5474 14.4097 10.6983 14.3202C10.8493 14.2307 10.974 14.103 11.06 13.95C11.0504 14.0297 11.0504 14.1103 11.06 14.19C11.06 14.8 10.74 15.61 10.06 15.65C9.82798 15.6692 9.59603 15.6123 9.39932 15.4877C9.20261 15.3632 9.05188 15.1779 8.97 14.96C8.8849 15.1778 8.73203 15.3624 8.53396 15.4867C8.33588 15.6109 8.10311 15.6682 7.87 15.65C7.17 15.65 6.87 14.8 6.87 14.19V14C6.95513 14.1516 7.0783 14.2783 7.22736 14.3677C7.37641 14.4572 7.54621 14.5062 7.72 14.51C7.87394 14.5247 8.02925 14.507 8.17597 14.4581C8.32269 14.4093 8.45758 14.3303 8.57199 14.2263C8.6864 14.1222 8.77782 13.9954 8.84037 13.854C8.90292 13.7126 8.93523 13.5596 8.93523 13.405C8.93523 13.2504 8.90292 13.0974 8.84037 12.956C8.77782 12.8146 8.6864 12.6878 8.57199 12.5837C8.45758 12.4797 8.32269 12.4007 8.17597 12.3519C8.02925 12.303 7.87394 12.2853 7.72 12.3C7.57959 12.3014 7.44063 12.3285 7.31 12.38C7.47277 12.1832 7.56125 11.9354 7.56 11.68C7.57466 11.526 7.55699 11.3707 7.50813 11.224C7.45926 11.0773 7.38028 10.9424 7.27625 10.828C7.17221 10.7136 7.04542 10.6222 6.904 10.5596C6.76257 10.4971 6.60964 10.4648 6.455 10.4648C6.30036 10.4648 6.14742 10.4971 6.006 10.5596C5.86457 10.6222 5.73778 10.7136 5.63374 10.828C5.52971 10.9424 5.45073 11.0773 5.40187 11.224C5.353 11.3707 5.33533 11.526 5.35 11.68C5.34874 11.9354 5.43722 12.1832 5.6 12.38C5.46936 12.3285 5.3304 12.3014 5.19 12.3C5.03605 12.2853 4.88074 12.303 4.73403 12.3519C4.58731 12.4007 4.45242 12.4797 4.338 12.5837C4.22359 12.6878 4.13218 12.8146 4.06962 12.956C4.00707 13.0974 3.97476 13.2504 3.97476 13.405C3.97476 13.5596 4.00707 13.7126 4.06962 13.854C4.13218 13.9954 4.22359 14.1222 4.338 14.2263C4.45242 14.3303 4.58731 14.4093 4.73403 14.4581C4.88074 14.507 5.03605 14.5247 5.19 14.51C5.36378 14.5062 5.53358 14.4572 5.68264 14.3677C5.83169 14.2783 5.95486 14.1516 6.04 14V14.24C6.04 14.85 5.71 15.67 5.04 15.7C4.79133 15.7386 4.53695 15.69 4.32004 15.5624C4.10313 15.4348 3.93706 15.2361 3.85 15C3.79191 15.2147 3.65955 15.4019 3.47645 15.5283C3.29335 15.6546 3.07137 15.7119 2.85 15.69C2.26 15.63 2.19 15 2.03 14.42C2.03 14.34 1.97 14.08 1.96 13.99C2.15 14.3 2.27 14.5 2.67 14.5C2.81017 14.5007 2.94893 14.4719 3.07727 14.4155C3.20561 14.3592 3.32066 14.2764 3.41495 14.1727C3.50925 14.069 3.58068 13.9466 3.62462 13.8135C3.66856 13.6803 3.68402 13.5395 3.67 13.4C3.67 13.2542 3.64129 13.1099 3.5855 12.9752C3.52972 12.8405 3.44796 12.7182 3.34489 12.6151C3.24181 12.512 3.11945 12.4303 2.98478 12.3745C2.8501 12.3187 2.70576 12.29 2.56 12.29C2.41959 12.2914 2.28063 12.3185 2.15 12.37C2.31277 12.1732 2.40125 11.9254 2.4 11.67C2.38212 11.3667 2.2489 11.0817 2.02764 10.8734C1.80638 10.6652 1.51384 10.5495 1.21 10.55H0.589996L1.99 18.55H20.99L22.38 10.55H21.66C21.3673 10.5526 21.0876 10.6707 20.8816 10.8786C20.6756 11.0865 20.56 11.3673 20.56 11.66C20.5587 11.9154 20.6472 12.1632 20.81 12.36C20.6794 12.3085 20.5404 12.2814 20.4 12.28C20.1056 12.28 19.8233 12.397 19.6151 12.6051C19.4069 12.8133 19.29 13.0956 19.29 13.39C19.2791 13.5319 19.2963 13.6746 19.3408 13.8098C19.3852 13.945 19.4559 14.0701 19.5488 14.1779C19.6417 14.2857 19.7551 14.3741 19.8823 14.4379C20.0095 14.5018 20.148 14.5399 20.29 14.55C20.69 14.55 20.8 14.35 21 14.04C21 14.14 21 14.21 21 14.29C20.88 14.91 20.79 15.63 20.16 15.67C19.9399 15.6924 19.719 15.6365 19.5361 15.5121C19.3532 15.3878 19.22 15.2029 19.16 14.99C19.0754 15.2061 18.9241 15.3895 18.728 15.5136C18.532 15.6377 18.3015 15.696 18.07 15.68C17.38 15.68 17.07 14.83 17.07 14.22C17.065 14.1401 17.065 14.0599 17.07 13.98C17.1551 14.1315 17.2783 14.2583 17.4274 14.3477C17.5764 14.4372 17.7462 14.4862 17.92 14.49C18.0739 14.5047 18.2292 14.487 18.376 14.4381C18.5227 14.3893 18.6576 14.3103 18.772 14.2063C18.8864 14.1022 18.9778 13.9754 19.0404 13.834C19.1029 13.6926 19.1352 13.5396 19.1352 13.385C19.1352 13.2304 19.1029 13.0774 19.0404 12.936C18.9778 12.7946 18.8864 12.6678 18.772 12.5638C18.6576 12.4597 18.5227 12.3807 18.376 12.3319C18.2292 12.283 18.0739 12.2653 17.92 12.28C17.7796 12.2814 17.6406 12.3085 17.51 12.36C17.6728 12.1632 17.7613 11.9154 17.76 11.66C17.7747 11.5061 17.757 11.3507 17.7081 11.204C17.6593 11.0573 17.5803 10.9224 17.4762 10.808C17.3722 10.6936 17.2454 10.6022 17.104 10.5396C16.9626 10.4771 16.8096 10.4448 16.655 10.4448C16.5004 10.4448 16.3474 10.4771 16.206 10.5396C16.0646 10.6022 15.9378 10.6936 15.8337 10.808C15.7297 10.9224 15.6507 11.0573 15.6019 11.204C15.553 11.3507 15.5353 11.5061 15.55 11.66C15.5535 11.9146 15.6415 12.1608 15.8 12.36C15.6694 12.3085 15.5304 12.2814 15.39 12.28C15.1151 12.3062 14.8598 12.4339 14.674 12.6382C14.4882 12.8426 14.3852 13.1088 14.3852 13.385C14.3852 13.6612 14.4882 13.9274 14.674 14.1318C14.8598 14.3361 15.1151 14.4638 15.39 14.49C15.548 14.4753 15.7003 14.4232 15.8342 14.338C15.9681 14.2528 16.0797 14.1369 16.16 14C16.1554 14.0866 16.1554 14.1734 16.16 14.26C16.16 14.87 15.82 15.66 15.16 15.7C14.9264 15.7215 14.6921 15.6656 14.4934 15.5409C14.2946 15.4163 14.1423 15.2297 14.06 15.01C13.9781 15.2279 13.8274 15.4132 13.6307 15.5377C13.434 15.6623 13.202 15.7192 12.97 15.7C12.28 15.7 11.97 14.85 11.97 14.24C11.9744 14.1601 11.9744 14.0799 11.97 14C12.0551 14.1516 12.1783 14.2783 12.3274 14.3677C12.4764 14.4572 12.6462 14.5062 12.82 14.51C12.9739 14.5247 13.1292 14.507 13.276 14.4581C13.4227 14.4093 13.5576 14.3303 13.672 14.2263C13.7864 14.1222 13.8778 13.9954 13.9404 13.854C14.0029 13.7126 14.0352 13.5596 14.0352 13.405C14.0352 13.2504 14.0029 13.0974 13.9404 12.956C13.8778 12.8146 13.7864 12.6878 13.672 12.5837C13.5576 12.4797 13.4227 12.4007 13.276 12.3519C13.1292 12.303 12.9739 12.2853 12.82 12.3C12.6796 12.3014 12.5406 12.3285 12.41 12.38C12.5728 12.1832 12.6613 11.9354 12.66 11.68C12.66 11.3873 12.5444 11.1065 12.3384 10.8986C12.1324 10.6907 11.8526 10.5726 11.56 10.57" fill="#F0E51B"/>
<path id="Vector_5" d="M11.47 10.52C11.1756 10.52 10.8933 10.6369 10.6851 10.8451C10.4769 11.0533 10.36 11.3356 10.36 11.63C10.3587 11.8854 10.4472 12.1332 10.61 12.33C10.4794 12.2785 10.3404 12.2514 10.2 12.25C9.92507 12.2762 9.66978 12.4039 9.48398 12.6082C9.29819 12.8126 9.19523 13.0788 9.19523 13.355C9.19523 13.6312 9.29819 13.8974 9.48398 14.1018C9.66978 14.3061 9.92507 14.4338 10.2 14.46C10.3755 14.4579 10.5474 14.4097 10.6983 14.3202C10.8493 14.2307 10.974 14.103 11.06 13.95C11.0504 14.0297 11.0504 14.1103 11.06 14.19C11.06 14.8 10.74 15.61 10.06 15.65C9.82798 15.6692 9.59603 15.6123 9.39932 15.4877C9.20261 15.3632 9.05188 15.1779 8.97 14.96C8.8849 15.1778 8.73203 15.3624 8.53396 15.4867C8.33588 15.6109 8.10311 15.6682 7.87 15.65C7.17 15.65 6.87 14.8 6.87 14.19V14C6.95513 14.1516 7.0783 14.2783 7.22736 14.3677C7.37641 14.4572 7.54621 14.5062 7.72 14.51C7.87394 14.5247 8.02925 14.507 8.17597 14.4581C8.32269 14.4093 8.45758 14.3303 8.57199 14.2263C8.6864 14.1222 8.77782 13.9954 8.84037 13.854C8.90292 13.7126 8.93523 13.5596 8.93523 13.405C8.93523 13.2504 8.90292 13.0974 8.84037 12.956C8.77782 12.8146 8.6864 12.6878 8.57199 12.5837C8.45758 12.4797 8.32269 12.4007 8.17597 12.3519C8.02925 12.303 7.87394 12.2853 7.72 12.3C7.57959 12.3014 7.44063 12.3285 7.31 12.38C7.47277 12.1832 7.56125 11.9354 7.56 11.68C7.57466 11.526 7.55699 11.3707 7.50813 11.224C7.45926 11.0773 7.38028 10.9424 7.27625 10.828C7.17221 10.7136 7.04542 10.6222 6.904 10.5596C6.76257 10.4971 6.60964 10.4648 6.455 10.4648C6.30036 10.4648 6.14742 10.4971 6.006 10.5596C5.86457 10.6222 5.73778 10.7136 5.63374 10.828C5.52971 10.9424 5.45073 11.0773 5.40187 11.224C5.353 11.3707 5.33533 11.526 5.35 11.68C5.34874 11.9354 5.43722 12.1832 5.6 12.38C5.46936 12.3285 5.3304 12.3014 5.19 12.3C5.03605 12.2853 4.88074 12.303 4.73403 12.3519C4.58731 12.4007 4.45242 12.4797 4.338 12.5837C4.22359 12.6878 4.13218 12.8146 4.06962 12.956C4.00707 13.0974 3.97476 13.2504 3.97476 13.405C3.97476 13.5596 4.00707 13.7126 4.06962 13.854C4.13218 13.9954 4.22359 14.1222 4.338 14.2263C4.45242 14.3303 4.58731 14.4093 4.73403 14.4581C4.88074 14.507 5.03605 14.5247 5.19 14.51C5.36378 14.5062 5.53358 14.4572 5.68264 14.3677C5.83169 14.2783 5.95486 14.1516 6.04 14V14.24C6.04 14.85 5.71 15.67 5.04 15.7C4.79133 15.7386 4.53695 15.69 4.32004 15.5624C4.10313 15.4348 3.93706 15.2361 3.85 15C3.79191 15.2147 3.65955 15.4019 3.47645 15.5283C3.29335 15.6546 3.07137 15.7119 2.85 15.69C2.26 15.63 2.19 15 2.03 14.42C2.03 14.34 1.97 14.08 1.96 13.99C2.15 14.3 2.27 14.5 2.67 14.5C2.81017 14.5007 2.94893 14.4719 3.07727 14.4155C3.20561 14.3592 3.32066 14.2764 3.41495 14.1727C3.50925 14.069 3.58068 13.9466 3.62462 13.8135C3.66856 13.6803 3.68402 13.5395 3.67 13.4C3.67 13.2542 3.64129 13.1099 3.5855 12.9752C3.52972 12.8405 3.44796 12.7182 3.34489 12.6151C3.24181 12.512 3.11945 12.4303 2.98478 12.3745C2.8501 12.3187 2.70576 12.29 2.56 12.29C2.41959 12.2914 2.28063 12.3185 2.15 12.37C2.31277 12.1732 2.40125 11.9254 2.4 11.67C2.38212 11.3667 2.2489 11.0817 2.02764 10.8734C1.80638 10.6652 1.51384 10.5495 1.21 10.55H0.589996L1.99 18.55H20.99L22.38 10.55H21.66C21.3673 10.5526 21.0876 10.6707 20.8816 10.8786C20.6756 11.0865 20.56 11.3673 20.56 11.66C20.5587 11.9154 20.6472 12.1632 20.81 12.36C20.6794 12.3085 20.5404 12.2814 20.4 12.28C20.1056 12.28 19.8233 12.397 19.6151 12.6051C19.4069 12.8133 19.29 13.0956 19.29 13.39C19.2791 13.5319 19.2963 13.6746 19.3408 13.8098C19.3852 13.945 19.4559 14.0701 19.5488 14.1779C19.6417 14.2857 19.7551 14.3741 19.8823 14.4379C20.0095 14.5018 20.148 14.5399 20.29 14.55C20.69 14.55 20.8 14.35 21 14.04C21 14.14 21 14.21 21 14.29C20.88 14.91 20.79 15.63 20.16 15.67C19.9399 15.6924 19.719 15.6365 19.5361 15.5121C19.3532 15.3878 19.22 15.2029 19.16 14.99C19.0754 15.2061 18.9241 15.3895 18.728 15.5136C18.532 15.6377 18.3015 15.696 18.07 15.68C17.38 15.68 17.07 14.83 17.07 14.22C17.065 14.1401 17.065 14.0599 17.07 13.98C17.1551 14.1315 17.2783 14.2583 17.4274 14.3477C17.5764 14.4372 17.7462 14.4862 17.92 14.49C18.0739 14.5047 18.2292 14.487 18.376 14.4381C18.5227 14.3893 18.6576 14.3103 18.772 14.2063C18.8864 14.1022 18.9778 13.9754 19.0404 13.834C19.1029 13.6926 19.1352 13.5396 19.1352 13.385C19.1352 13.2304 19.1029 13.0774 19.0404 12.936C18.9778 12.7946 18.8864 12.6678 18.772 12.5638C18.6576 12.4597 18.5227 12.3807 18.376 12.3319C18.2292 12.283 18.0739 12.2653 17.92 12.28C17.7796 12.2814 17.6406 12.3085 17.51 12.36C17.6728 12.1632 17.7613 11.9154 17.76 11.66C17.7747 11.5061 17.757 11.3507 17.7081 11.204C17.6593 11.0573 17.5803 10.9224 17.4762 10.808C17.3722 10.6936 17.2454 10.6022 17.104 10.5396C16.9626 10.4771 16.8096 10.4448 16.655 10.4448C16.5004 10.4448 16.3474 10.4771 16.206 10.5396C16.0646 10.6022 15.9378 10.6936 15.8337 10.808C15.7297 10.9224 15.6507 11.0573 15.6019 11.204C15.553 11.3507 15.5353 11.5061 15.55 11.66C15.5535 11.9146 15.6415 12.1608 15.8 12.36C15.6694 12.3085 15.5304 12.2814 15.39 12.28C15.1151 12.3062 14.8598 12.4339 14.674 12.6382C14.4882 12.8426 14.3852 13.1088 14.3852 13.385C14.3852 13.6612 14.4882 13.9274 14.674 14.1318C14.8598 14.3361 15.1151 14.4638 15.39 14.49C15.548 14.4753 15.7003 14.4232 15.8342 14.338C15.9681 14.2528 16.0797 14.1369 16.16 14C16.1554 14.0866 16.1554 14.1734 16.16 14.26C16.16 14.87 15.82 15.66 15.16 15.7C14.9264 15.7215 14.6921 15.6656 14.4934 15.5409C14.2946 15.4163 14.1423 15.2297 14.06 15.01C13.9781 15.2279 13.8274 15.4132 13.6307 15.5377C13.434 15.6623 13.202 15.7192 12.97 15.7C12.28 15.7 11.97 14.85 11.97 14.24C11.9744 14.1601 11.9744 14.0799 11.97 14C12.0551 14.1516 12.1783 14.2783 12.3274 14.3677C12.4764 14.4572 12.6462 14.5062 12.82 14.51C12.9739 14.5247 13.1292 14.507 13.276 14.4581C13.4227 14.4093 13.5576 14.3303 13.672 14.2263C13.7864 14.1222 13.8778 13.9954 13.9404 13.854C14.0029 13.7126 14.0352 13.5596 14.0352 13.405C14.0352 13.2504 14.0029 13.0974 13.9404 12.956C13.8778 12.8146 13.7864 12.6878 13.672 12.5837C13.5576 12.4797 13.4227 12.4007 13.276 12.3519C13.1292 12.303 12.9739 12.2853 12.82 12.3C12.6796 12.3014 12.5406 12.3285 12.41 12.38C12.5728 12.1832 12.6613 11.9354 12.66 11.68C12.6675 11.5231 12.6416 11.3664 12.584 11.2202C12.5265 11.0741 12.4385 10.9418 12.3261 10.8322C12.2136 10.7225 12.0791 10.638 11.9315 10.5842C11.784 10.5304 11.6267 10.5085 11.47 10.52V10.52Z" stroke="#1D1D1B" stroke-width="0.2" stroke-miterlimit="3.86"/>
<path id="Vector_6" d="M11.43 10.37L12.64 9.75C12.64 9.75 12.33 6.75 12.3 6.23C13.0023 6.57589 13.6215 7.06953 14.1151 7.6771C14.6088 8.28467 14.9652 8.99179 15.16 9.75L16.53 10.32L17.44 9.75C16.7898 8.29806 15.6696 7.1074 14.26 6.37C16.4202 6.87625 18.3616 8.06072 19.8 9.75L21.47 10.42L21.73 9.61C18.9804 6.92819 15.3008 5.41264 11.46 5.38C7.60799 5.40073 3.91476 6.91747 1.16 9.61L1.42 10.42L3.09 9.75C4.55853 8.06693 6.51654 6.88514 8.69 6.37C7.27613 7.12092 6.14047 8.30564 5.45 9.75C5.45 9.75 6.32 10.35 6.34 10.35L7.73 9.75C7.92037 8.99547 8.2707 8.29067 8.75724 7.68336C9.24379 7.07604 9.85518 6.5804 10.55 6.23C10.55 6.75 10.21 9.75 10.21 9.75L11.43 10.37Z" fill="#F0E51B"/>
<path id="Vector_7" d="M11.43 10.37L12.64 9.75C12.64 9.75 12.33 6.75 12.3 6.23C13.0023 6.57589 13.6215 7.06953 14.1151 7.6771C14.6088 8.28467 14.9652 8.99179 15.16 9.75L16.53 10.32L17.44 9.75C16.7898 8.29806 15.6696 7.1074 14.26 6.37C16.4202 6.87625 18.3616 8.06072 19.8 9.75L21.47 10.42L21.73 9.61C18.9804 6.92819 15.3008 5.41264 11.46 5.38C7.60799 5.40073 3.91476 6.91747 1.16 9.61L1.42 10.42L3.09 9.75C4.55853 8.06693 6.51654 6.88514 8.69 6.37C7.27613 7.12092 6.14047 8.30564 5.45 9.75C5.45 9.75 6.32 10.35 6.34 10.35L7.73 9.75C7.92037 8.99547 8.2707 8.29067 8.75724 7.68336C9.24379 7.07604 9.85518 6.5804 10.55 6.23C10.55 6.75 10.21 9.75 10.21 9.75L11.43 10.37Z" stroke="#1D1D1B" stroke-width="0.2" stroke-miterlimit="3.86"/>
<path id="Vector_8" d="M10.07 4C10.07 3.72904 10.1504 3.46416 10.3009 3.23887C10.4514 3.01357 10.6654 2.83797 10.9157 2.73428C11.1661 2.63059 11.4415 2.60346 11.7073 2.65632C11.973 2.70918 12.2171 2.83966 12.4087 3.03126C12.6003 3.22286 12.7308 3.46697 12.7837 3.73272C12.8365 3.99848 12.8094 4.27394 12.7057 4.52427C12.602 4.77461 12.4264 4.98857 12.2011 5.13911C11.9758 5.28965 11.711 5.37 11.44 5.37C11.0767 5.37 10.7282 5.22566 10.4713 4.96873C10.2143 4.71181 10.07 4.36334 10.07 4" fill="#3F69B1"/>
<path id="Vector_9" d="M10.07 4C10.07 3.72904 10.1504 3.46416 10.3009 3.23887C10.4514 3.01357 10.6654 2.83797 10.9157 2.73428C11.1661 2.63059 11.4415 2.60346 11.7073 2.65632C11.973 2.70918 12.2171 2.83966 12.4087 3.03126C12.6003 3.22286 12.7308 3.46697 12.7837 3.73272C12.8365 3.99848 12.8094 4.27394 12.7057 4.52427C12.602 4.77461 12.4264 4.98857 12.2011 5.13911C11.9758 5.28965 11.711 5.37 11.44 5.37C11.0767 5.37 10.7282 5.22566 10.4713 4.96873C10.2143 4.71181 10.07 4.36334 10.07 4V4Z" stroke="#1D1D1B" stroke-width="0.2" stroke-miterlimit="3.86"/>
<path id="Vector_10" d="M11.44 2.63C11.3268 2.62186 11.2132 2.62186 11.1 2.63V3.69H10.16C10.1516 3.79984 10.1516 3.91016 10.16 4.02C10.1666 4.14449 10.1833 4.26823 10.21 4.39H12.85C12.85 4.39 12.85 4.12 12.85 4.01C12.8572 3.90346 12.8572 3.79655 12.85 3.69H11.85V2.63C11.85 2.63 11.62 2.63 11.49 2.63" fill="#F0E51B"/>
<path id="Vector_11" d="M11.44 2.63C11.3268 2.62186 11.2132 2.62186 11.1 2.63V3.69H10.16C10.1516 3.79984 10.1516 3.91016 10.16 4.02C10.1666 4.14449 10.1833 4.26823 10.21 4.39H12.85C12.85 4.39 12.85 4.12 12.85 4.01C12.8572 3.90346 12.8572 3.79655 12.85 3.69H11.85V2.63C11.85 2.63 11.57 2.63 11.44 2.63Z" stroke="#1D1D1B" stroke-width="0.2" stroke-miterlimit="3.86"/>
<path id="Vector_12" d="M11.16 1.26H10.38V1.83H11.16V2.63C11.2665 2.62205 11.3735 2.62205 11.48 2.63C11.6032 2.62258 11.7268 2.62258 11.85 2.63V1.83H12.63V1.26H11.85V0.510002H11.16V1.26Z" fill="#F0E51B"/>
<path id="Vector_13" d="M11.16 1.26H10.38V1.83H11.16V2.63C11.2665 2.62205 11.3735 2.62205 11.48 2.63C11.6032 2.62258 11.7268 2.62258 11.85 2.63V1.83H12.63V1.26H11.85V0.510002H11.16V1.26Z" stroke="#1D1D1B" stroke-width="0.2" stroke-miterlimit="3.86"/>
<path id="Vector_14" d="M42.51 31.33H41.97H40.7L39.89 31.38L39.66 31.02L39.28 30.44L38.95 29.96C38.67 29.5 38.25 28.96 37.71 28.22C36.71 26.9 36.37 26.44 35.33 25.22L34.93 25.64L34.51 26.07V27.89C34.4514 29.0391 34.5763 30.1902 34.88 31.3H34.41H33.09H32.58C32.64 30.94 32.67 30.67 32.69 30.49C32.8152 29.6227 32.8588 28.7455 32.82 27.87V21.94C32.8426 21.3105 32.799 20.6804 32.69 20.06C32.6 19.68 32.33 19.5 31.81 19.5H31.63L31.97 18.74H32.42H34.16H34.72C34.5936 19.8252 34.5434 20.9178 34.57 22.01V24.66L37.3 21.74C37.8742 21.1398 38.3992 20.4943 38.87 19.81C39.06 19.5079 39.1765 19.1653 39.21 18.81H39.79H41.41H41.88L41.94 18.98C40.9355 19.6889 40.0042 20.4962 39.16 21.39L36.54 24.08L36.92 24.58L38.02 26C38.25 26.29 38.7 26.88 39.35 27.77C40.0125 28.7036 40.7481 29.583 41.55 30.4C41.8463 30.6987 42.1829 30.9546 42.55 31.16L42.48 31.32" fill="#1D1D1B"/>
<path id="Vector_15" d="M48 23.21L47.84 23.97L47.73 24.48H47.52C47.4198 24.3525 47.29 24.2512 47.1419 24.185C46.9938 24.1188 46.8319 24.0897 46.67 24.1C46.3579 24.1245 46.0575 24.2294 45.7981 24.4047C45.5387 24.58 45.3291 24.8196 45.19 25.1C44.825 25.7536 44.6844 26.5089 44.79 27.25V27.88C44.7344 29.0284 44.8558 30.1785 45.15 31.29H44.7H43.62H43.1C43.15 30.93 43.19 30.66 43.2 30.48C43.26 30.05 43.31 28.82 43.33 27.86V26C43.3457 25.3287 43.2853 24.6577 43.15 24C43.04 23.62 42.77 23.46 42.28 23.46H42.16L42.5 22.76H42.95L43.95 22.69L44.65 22.63V24.71L45.16 24C46.06 22.86 46.62 22.5 47.45 22.5C47.6904 22.4879 47.9294 22.5433 48.14 22.66L47.97 23.22" fill="#1D1D1B"/>
<path id="Vector_16" d="M51.37 31.3H50.27H49.76C49.8189 31.0327 49.8623 30.7623 49.89 30.49C49.94 30.06 50 28.83 50 27.87V25.87C50.0122 25.2407 49.9687 24.6116 49.87 23.99C49.8336 23.814 49.7319 23.6584 49.5853 23.5544C49.4387 23.4505 49.2581 23.406 49.08 23.43H48.93L49.27 22.73H49.73L51.04 22.66H51.6C51.49 24.23 51.46 24.88 51.46 25.66V27.91C51.3941 29.0587 51.5157 30.2104 51.82 31.32H51.37V31.3ZM50.57 20.58C50 20.58 49.85 20.43 49.85 19.77C49.85 18.77 50.02 18.61 50.94 18.61C51.53 18.61 51.66 18.77 51.66 19.44V19.53C51.66 20.45 51.5 20.56 50.57 20.56V20.58Z" fill="#1D1D1B"/>
<path id="Vector_17" d="M67.38 31.3H66.29H65.79C65.84 30.94 65.9 30.67 65.91 30.49C65.992 29.6192 66.0287 28.7446 66.02 27.87V26.66V26.54C66.0544 25.966 65.9867 25.3904 65.82 24.84C65.7093 24.5075 65.4932 24.2202 65.2045 24.0217C64.9157 23.8231 64.5701 23.7242 64.22 23.74C63.581 23.749 62.9681 23.9949 62.5 24.43C61.89 24.97 61.71 25.49 61.71 26.74V27.89C61.6544 29.0384 61.7758 30.1885 62.07 31.3H61.6H60.54H60.03C60.1 30.94 60.14 30.67 60.16 30.49C60.16 30.06 60.25 28.96 60.27 27.87V26.54C60.2988 25.9674 60.2381 25.3938 60.09 24.84C59.9779 24.5084 59.7615 24.222 59.473 24.0237C59.1846 23.8254 58.8397 23.7259 58.49 23.74C57.845 23.7488 57.2257 23.9944 56.75 24.43C56.14 24.97 55.96 25.43 55.96 26.74V27.89C55.9044 29.0384 56.0258 30.1885 56.32 31.3H55.87H54.77H54.26C54.3189 31.0327 54.3623 30.7623 54.39 30.49C54.39 30.06 54.5 28.83 54.5 27.87V25.87C54.5122 25.2407 54.4687 24.6116 54.37 23.99C54.3336 23.814 54.2319 23.6583 54.0853 23.5544C53.9387 23.4505 53.7581 23.406 53.58 23.43H53.46L53.81 22.73H54.26L55.34 22.66L55.92 22.6V24.19L56.64 23.58C57.3354 22.8789 58.273 22.4709 59.26 22.44C59.8816 22.4136 60.4886 22.6327 60.95 23.05C61.2889 23.3524 61.5292 23.7495 61.64 24.19L62.4 23.58C63.0932 22.8877 64.0211 22.4808 65 22.44C65.4392 22.4282 65.8732 22.5376 66.2543 22.7564C66.6353 22.9751 66.9487 23.2947 67.16 23.68C67.3047 23.9267 67.403 24.1978 67.45 24.48C67.5224 24.9362 67.5459 25.3988 67.52 25.86V27.92C67.4541 29.0687 67.5757 30.2204 67.88 31.33H67.42" fill="#1D1D1B"/>
<path id="Vector_18" d="M71.9 31.3H70.8H70.29C70.3489 31.0327 70.3923 30.7623 70.42 30.49C70.48 30.06 70.53 28.83 70.53 27.87V25.87C70.5423 25.2407 70.4988 24.6116 70.4 23.99C70.3614 23.8132 70.2577 23.6574 70.1095 23.5536C69.9612 23.4499 69.7793 23.4057 69.6 23.43H69.46L69.8 22.73H70.26L71.57 22.66H72.13C72.03 24.23 71.99 24.88 71.99 25.66V27.91C71.9242 29.0587 72.0458 30.2104 72.35 31.32H71.9V31.3ZM71.16 20.56C70.58 20.56 70.44 20.41 70.44 19.75C70.44 18.75 70.6 18.59 71.52 18.59C72.11 18.59 72.24 18.75 72.24 19.42V19.51C72.16 20.45 72.03 20.56 71.16 20.56Z" fill="#1D1D1B"/>
<path id="Vector_19" d="M82.35 31.3H81.27H80.76C80.81 30.94 80.87 30.67 80.89 30.49C80.89 30.06 81 28.96 81 27.87V26.56C81.0275 25.9934 80.9633 25.4261 80.81 24.88C80.6738 24.529 80.4304 24.23 80.1144 24.0253C79.7984 23.8206 79.426 23.7208 79.05 23.74C78.401 23.7435 77.7768 23.9896 77.3 24.43C76.68 24.97 76.5 25.43 76.5 26.74V27.89C76.4444 29.0384 76.5658 30.1885 76.86 31.3H76.41H75.31H74.81C74.88 30.94 74.91 30.67 74.93 30.49C74.99 30.06 75.04 28.83 75.04 27.87V25.87C75.0523 25.2407 75.0088 24.6116 74.91 23.99C74.8736 23.814 74.7719 23.6584 74.6253 23.5544C74.4787 23.4505 74.2981 23.406 74.12 23.43H73.97L74.32 22.73H74.77L75.85 22.66L76.43 22.6V24.19L77.15 23.58C77.8709 22.8744 78.8317 22.4672 79.84 22.44C80.2914 22.4185 80.7404 22.5174 81.141 22.7265C81.5416 22.9356 81.8795 23.2474 82.12 23.63C82.258 23.8834 82.3558 24.1566 82.41 24.44C82.4815 24.8996 82.505 25.3655 82.48 25.83V27.83C82.4244 28.9784 82.5458 30.1285 82.84 31.24H82.37" fill="#1D1D1B"/>
<path id="Vector_20" d="M91.76 31.31H91.31L90.31 31.39L89.73 31.44L89.67 30.11L88.99 30.7C88.7068 30.9887 88.3692 31.2187 87.9968 31.3765C87.6244 31.5344 87.2245 31.6172 86.82 31.62C86.5138 31.6311 86.2087 31.577 85.9251 31.4612C85.6414 31.3454 85.3856 31.1705 85.1747 30.9482C84.9638 30.726 84.8026 30.4614 84.7018 30.172C84.6009 29.8827 84.5629 29.5752 84.59 29.27C84.5776 28.8971 84.6558 28.5268 84.8177 28.1907C84.9797 27.8546 85.2207 27.5627 85.52 27.34C86.4127 26.8375 87.4076 26.5435 88.43 26.48C89.43 26.35 89.43 26.32 89.43 25.7C89.43 24.75 89.34 24.42 89.01 24.08C88.8241 23.9036 88.6038 23.7673 88.363 23.6795C88.1222 23.5918 87.8659 23.5545 87.61 23.57C87.2967 23.5736 86.9861 23.6276 86.69 23.73C86.3099 23.852 85.9844 24.1032 85.77 24.44H85.57V23.77V23.13C86.0559 22.8817 86.5797 22.7161 87.12 22.64C87.4496 22.5771 87.7845 22.547 88.12 22.55C89.94 22.55 90.89 23.32 90.86 24.88V25.8V28.09C90.8384 28.7626 90.9057 29.435 91.06 30.09C91.17 30.47 91.4 30.61 91.89 30.61H92.05L91.71 31.31H91.76ZM89.49 28V27.19C88.6514 27.181 87.8202 27.3479 87.05 27.68C86.7868 27.7859 86.5613 27.9683 86.4026 28.2035C86.244 28.4388 86.1595 28.7162 86.16 29C86.1431 29.1862 86.1656 29.3738 86.2262 29.5507C86.2867 29.7276 86.3838 29.8897 86.5111 30.0265C86.6385 30.1633 86.7933 30.2718 86.9654 30.3447C87.1375 30.4177 87.3231 30.4536 87.51 30.45C87.952 30.4379 88.3775 30.2796 88.72 30C88.9954 29.8064 89.212 29.5406 89.3461 29.2319C89.4802 28.9231 89.5265 28.5834 89.48 28.25L89.49 28Z" fill="#1D1D1B"/>
<path id="Vector_21" d="M95.36 31.3H94.26H93.75C93.8089 31.0327 93.8523 30.7623 93.88 30.49C93.88 30.22 93.88 29.77 93.95 29.19C94.02 28.61 93.95 28.19 93.95 27.87V21.07C93.9697 20.4402 93.9228 19.81 93.81 19.19C93.7693 19.0177 93.6658 18.8668 93.5196 18.7669C93.3735 18.667 93.1953 18.6253 93.02 18.65H92.87L93.21 17.93H93.66L94.98 17.86L95.54 17.8C95.43 19.45 95.4 20.08 95.4 20.8V27.8C95.3444 28.9484 95.4658 30.0985 95.76 31.21H95.31" fill="#1D1D1B"/>
<path id="Vector_22" d="M104.6 23.66C104.273 24.2686 103.982 24.8964 103.73 25.54L102 29.71C101.744 30.3048 101.54 30.9204 101.39 31.55H101.04H100.43H100.05C99.98 31.16 99.92 30.9 99.89 30.76C99.8 30.45 99.62 29.86 99.33 29.03L98.54 26.79C98.2198 25.7976 97.8391 24.8258 97.4 23.88C97.3268 23.7338 97.2114 23.6128 97.0689 23.5326C96.9263 23.4524 96.763 23.4167 96.6 23.43H96.46L96.8 22.73H97.25L98.36 22.66H98.93C98.9517 22.8724 98.9884 23.0829 99.04 23.29C99.2616 24.2498 99.532 25.1977 99.85 26.13L100.56 28.29L101.03 29.63L101.39 28.82L102.39 26.25C102.64 25.6 102.93 24.76 103.06 24.25C103.178 23.7417 103.238 23.2218 103.24 22.7H104.7L105.13 22.64V22.8C104.926 23.0671 104.745 23.3515 104.59 23.65" fill="#1D1D1B"/>
<path id="Vector_23" d="M112.35 31.31H111.9L110.9 31.39L110.32 31.44L110.26 30.11L109.58 30.7C109.297 30.9887 108.959 31.2186 108.587 31.3765C108.214 31.5344 107.814 31.6172 107.41 31.62C107.103 31.631 106.798 31.5768 106.514 31.4611C106.23 31.3453 105.973 31.1707 105.762 30.9486C105.55 30.7265 105.388 30.4621 105.286 30.1728C105.184 29.8834 105.144 29.5757 105.17 29.27C105.16 28.8964 105.24 28.5258 105.403 28.1897C105.567 27.8537 105.809 27.5622 106.11 27.34C107.003 26.8387 107.998 26.5448 109.02 26.48C110.02 26.35 110.02 26.32 110.02 25.7C110.02 24.75 109.93 24.42 109.6 24.08C109.414 23.9036 109.194 23.7673 108.953 23.6795C108.712 23.5918 108.456 23.5545 108.2 23.57C107.887 23.5736 107.576 23.6276 107.28 23.73C106.9 23.852 106.574 24.1032 106.36 24.44H106.16V23.77V23.13C106.646 22.8817 107.17 22.7161 107.71 22.64C108.04 22.5771 108.375 22.547 108.71 22.55C110.53 22.55 111.49 23.32 111.45 24.88V25.8V28.09C111.428 28.7626 111.496 29.435 111.65 30.09C111.76 30.47 111.99 30.61 112.48 30.61H112.64L112.3 31.31H112.35ZM110.03 28.01V27.2C109.191 27.191 108.36 27.3579 107.59 27.69C107.338 27.8029 107.124 27.987 106.975 28.2197C106.825 28.4524 106.747 28.7236 106.75 29C106.733 29.1862 106.756 29.3738 106.816 29.5507C106.877 29.7276 106.974 29.8897 107.101 30.0265C107.229 30.1633 107.383 30.2718 107.555 30.3447C107.728 30.4177 107.913 30.4536 108.1 30.45C108.542 30.4379 108.968 30.2796 109.31 30C109.585 29.8064 109.802 29.5406 109.936 29.2319C110.07 28.9231 110.117 28.5834 110.07 28.25L110.03 28.01ZM108.74 21.93C108.525 21.9452 108.31 21.9157 108.107 21.8435C107.904 21.7713 107.718 21.6579 107.561 21.5105C107.405 21.363 107.28 21.1847 107.195 20.9867C107.111 20.7887 107.068 20.5753 107.07 20.36C107.074 20.1271 107.124 19.8974 107.218 19.6844C107.313 19.4714 107.449 19.2795 107.618 19.12C107.788 18.9606 107.988 18.8368 108.207 18.7561C108.425 18.6753 108.657 18.6392 108.89 18.65C109.103 18.6361 109.317 18.6666 109.517 18.7397C109.718 18.8127 109.901 18.9267 110.055 19.0743C110.21 19.2219 110.331 19.4 110.413 19.5973C110.495 19.7945 110.535 20.0066 110.53 20.22C110.529 20.4467 110.483 20.6709 110.394 20.8798C110.306 21.0886 110.177 21.2779 110.016 21.4369C109.854 21.5958 109.662 21.7212 109.452 21.8058C109.242 21.8904 109.017 21.9326 108.79 21.93H108.74ZM108.83 19.24C108.688 19.239 108.547 19.2682 108.417 19.3258C108.288 19.3834 108.171 19.468 108.077 19.574C107.982 19.6799 107.911 19.8048 107.869 19.9404C107.826 20.0759 107.813 20.219 107.83 20.36C107.814 20.4901 107.826 20.6222 107.867 20.7469C107.907 20.8716 107.975 20.9859 108.064 21.0814C108.154 21.1769 108.264 21.2515 108.386 21.2996C108.508 21.3478 108.639 21.3684 108.77 21.36C108.909 21.3606 109.047 21.332 109.175 21.2763C109.302 21.2205 109.417 21.1386 109.511 21.036C109.605 20.9334 109.677 20.8123 109.721 20.6804C109.766 20.5485 109.783 20.4087 109.77 20.27C109.79 20.142 109.783 20.011 109.747 19.8863C109.712 19.7616 109.649 19.6461 109.565 19.548C109.48 19.4499 109.375 19.3715 109.256 19.3183C109.138 19.2651 109.01 19.2384 108.88 19.24H108.83Z" fill="#1D1D1B"/>
<path id="Vector_24" d="M119.02 23.21L118.85 23.97L118.75 24.48H118.53C118.43 24.3525 118.3 24.2512 118.152 24.185C118.004 24.1188 117.842 24.0897 117.68 24.1C117.368 24.1245 117.067 24.2294 116.808 24.4047C116.549 24.58 116.339 24.8196 116.2 25.1C115.84 25.7553 115.7 26.509 115.8 27.25V27.88C115.741 29.0291 115.866 30.1802 116.17 31.29H115.71H114.63H114.11C114.11 30.93 114.2 30.66 114.22 30.48C114.22 30.05 114.33 28.82 114.34 27.86V26C114.356 25.3287 114.295 24.6577 114.16 24C114.05 23.62 113.78 23.46 113.29 23.46H113.16L113.5 22.76H113.95L114.95 22.69L115.65 22.63V24.71L116.16 24C117.06 22.86 117.62 22.5 118.45 22.5C118.69 22.4879 118.929 22.5433 119.14 22.66L118.98 23.22" fill="#1D1D1B"/>
<path id="Vector_25" d="M127.36 31.31L126.66 31.37H126.1L126.05 29.77L125.34 30.42C125.016 30.7615 124.627 31.0353 124.196 31.2258C123.765 31.4163 123.301 31.5197 122.83 31.53C120.83 31.53 119.48 29.87 119.48 27.35C119.426 26.6977 119.514 26.0414 119.739 25.4264C119.963 24.8114 120.317 24.2523 120.778 23.7876C121.239 23.3228 121.795 22.9635 122.409 22.7343C123.022 22.5051 123.677 22.4116 124.33 22.46C124.867 22.4468 125.403 22.5142 125.92 22.66V21.05C125.948 20.4195 125.898 19.788 125.77 19.17C125.729 18.9977 125.626 18.8468 125.48 18.7469C125.333 18.647 125.155 18.6053 124.98 18.63H124.84L125.16 18H125.61L126.93 17.93L127.52 17.87C127.4 19.52 127.34 20.15 127.34 20.87V27.54C127.34 28.4025 127.393 29.2642 127.5 30.12C127.539 30.5233 127.63 30.9198 127.77 31.3H127.32L127.36 31.31ZM125.88 25.15C125.901 24.7962 125.806 24.4451 125.61 24.15C125.386 23.9265 125.116 23.7544 124.819 23.6456C124.522 23.5368 124.205 23.4939 123.89 23.52C122.11 23.52 121.03 24.78 121.03 26.87C121.03 28.96 121.96 30.23 123.51 30.23C124.101 30.2281 124.668 30.0031 125.1 29.6C125.319 29.4216 125.499 29.2004 125.63 28.95C125.853 28.4268 125.939 27.8556 125.88 27.29V26.03C125.94 25.81 125.94 25.52 125.92 25.16L125.88 25.15Z" fill="#1D1D1B"/>
<path id="Vector_26" d="M136.59 26.19L136.43 26.37H135.49H133.49H131.63L130.73 26.43V26.52C130.73 28.97 131.98 30.4 134.12 30.4C134.375 30.4019 134.629 30.3818 134.88 30.34C135.352 30.2597 135.798 30.0677 136.18 29.78L136.35 29.87L136.13 30.47L135.95 31.1L135.42 31.28C134.771 31.4747 134.097 31.5725 133.42 31.57C132.837 31.6096 132.252 31.5149 131.711 31.2929C131.17 31.071 130.687 30.7279 130.3 30.29C129.557 29.3871 129.16 28.2491 129.18 27.08C129.18 24.33 130.91 22.37 133.33 22.37C133.756 22.342 134.183 22.4054 134.583 22.5558C134.983 22.7062 135.346 22.9403 135.648 23.2422C135.95 23.5442 136.184 23.9072 136.334 24.3069C136.485 24.7066 136.548 25.1338 136.52 25.56C136.52 25.71 136.52 25.85 136.52 26.14L136.59 26.19ZM133.16 23.25C131.84 23.25 131.01 24.06 130.8 25.56H132.1H133.68C134.59 25.56 134.95 25.31 134.95 24.81C134.919 24.3659 134.713 23.9521 134.378 23.6596C134.042 23.3671 133.604 23.2198 133.16 23.25V23.25Z" fill="#1D1D1B"/>
<path id="Vector_27" d="M146.16 31.3H145.06H144.55C144.61 30.94 144.66 30.67 144.68 30.49C144.68 30.06 144.79 28.96 144.79 27.87V26.56C144.815 25.9941 144.754 25.4278 144.61 24.88C144.471 24.5291 144.225 24.2306 143.908 24.0262C143.59 23.8218 143.217 23.7217 142.84 23.74C142.191 23.7435 141.567 23.9896 141.09 24.43C140.47 24.97 140.29 25.43 140.29 26.74V27.89C140.234 29.0384 140.356 30.1885 140.65 31.3H140.2H139.1H138.6C138.67 30.94 138.7 30.67 138.72 30.49C138.78 30.06 138.83 28.83 138.83 27.87V25.87C138.842 25.2407 138.799 24.6116 138.7 23.99C138.664 23.814 138.562 23.6584 138.415 23.5544C138.269 23.4505 138.088 23.406 137.91 23.43H137.76L138.11 22.73H138.56L139.64 22.66L140.22 22.6V24.19L140.95 23.58C141.663 22.8691 142.623 22.4607 143.63 22.44C144.082 22.4164 144.531 22.5144 144.932 22.7237C145.333 22.933 145.671 23.246 145.91 23.63C146.048 23.8834 146.146 24.1566 146.2 24.44C146.272 24.8997 146.295 25.3655 146.27 25.83V27.83C146.214 28.9784 146.336 30.1285 146.63 31.24H146.16" fill="#1D1D1B"/>
<path id="Vector_28" d="M5.07 29.1C4.74355 28.5784 4.57043 27.9754 4.57043 27.36C4.57043 26.7446 4.74355 26.1416 5.07 25.62H7V20.41H8.82V22.24H10.44V20.41H12.44V22.24H14.12V20.41H15.98V25.62H21.59V29.09H5.07" fill="#F0E51B"/>
<path id="Vector_29" d="M17.73 30.38C18.0446 30.9069 18.217 31.5065 18.23 32.12C18.218 32.7305 18.0456 33.3272 17.73 33.85H15.79V39.07H13.97V37.24H12.35V39.07H10.35V37.24H8.70998V39.07H6.85998V33.85H1.41998V30.38H17.73Z" fill="white"/>
<path id="Vector_30" d="M1.35999 32C1.44249 34.6197 2.54117 37.1046 4.42347 38.9285C6.30577 40.7525 8.82395 41.7724 11.445 41.7724C14.066 41.7724 16.5842 40.7525 18.4665 38.9285C20.3488 37.1046 21.4475 34.6197 21.53 32V18.57H1.35999V32Z" stroke="#1D1D1B" stroke-width="0.3" stroke-miterlimit="3.86"/>
</g>
</g>
</svg>
