<svg xmlns="http://www.w3.org/2000/svg" width="300" height="48" viewBox="0 0 300 48">
    <g fill="none" fill-rule="evenodd">
        <g>
            <path fill="#878E26" d="M29 12.75v20.5c0 .527-.289.653-.643.281l-6.915-7.265h-.001l-2.682-2.817c-.232-.248-.23-.65.003-.897l9.601-10.087c.351-.364.636-.237.636.284zm6.68 28.478l-3.976-4.18 11.164-11.732c.588-.618.911-1.44.911-2.315 0-.878-.323-1.7-.91-2.316L31.703 8.955l3.976-4.178c.235-.248.621-.248.857 0l16.918 17.775c.235.247.235.65.002.898l-16.92 17.778c-.236.247-.622.247-.857 0zm21.41-20.543L38.312.958C37.724.34 36.94 0 36.108 0c-.832 0-1.616.34-2.204.958l-4.905 5.154L24.095.958C23.505.34 22.723 0 21.889 0c-.832 0-1.616.34-2.203.958L.91 20.685c-.588.616-.91 1.438-.91 2.316 0 .875.322 1.697.91 2.315l18.776 19.726c.587.618 1.37.958 2.203.958.834 0 1.615-.34 2.206-.958l4.904-5.153 4.905 5.153c.588.618 1.372.958 2.204.958.832 0 1.616-.34 2.205-.958l18.776-19.726c.586-.618.911-1.44.911-2.315 0-.878-.325-1.7-.91-2.316z"/>
            <path fill="#000307" d="M229.291 14.856c.964-.123 1.83-.064 2.33.04.673.155.862.522.788 1.51l-.015.18c-.102 1.097-.368 1.42-.815 1.4l-.08-.006c-.58-.054-1.065-.033-1.468.017-1.063.138-1.851.612-2.251 1.406.948 1.028 1.573 2.41 1.64 4.224l.005.324v.463c0 4.735-2.678 7.018-8.224 7.018-2.226 0-3.477-.38-4.813-1.057-.606.678-.89 1.524-.89 2.285 0 .886.363 1.69 1.012 2.279 1.578-.42 2.953-.634 4.934-.634 7.44 0 10.467 2.288 10.568 6.502l.002.22v.423c0 4.31-2.799 6.55-10.65 6.55-7.72 0-10.705-2.166-10.802-6.337l-.002-.593c0-2.026.856-3.626 2.493-4.648l.218-.13v-.507c-1.01-.759-1.536-1.943-1.536-3.296 0-1.562.809-3.083 2.223-4.1-.674-.982-1.07-2.181-1.124-3.635l-.006-.34v-.463c0-4.733 3.112-7.1 8.373-7.1 1.39 0 2.563.231 3.892.762.79-1.592 2.03-2.475 4.198-2.757zm-7.968 22.45c-5.031 0-6.804 1.259-6.877 3.65l-.002.157v.21c0 2.564 1.858 3.63 6.561 3.675l.318.001c4.91 0 6.727-1.01 6.804-3.507l.002-.379c0-2.493-1.584-3.807-6.806-3.807zM165.215 16.85c5.835 0 9.739 3.47 9.867 10.139l.004.342v.677c0 6.89-3.938 10.44-9.87 10.44-5.835 0-9.741-3.433-9.87-10.098l-.003-.342v-.677c0-6.891 3.94-10.48 9.872-10.48zm100.142 0c5.806 0 8.64 3.385 8.738 8.954l.002.3v.972c0 1.35-.301 1.79-2.405 1.818l-12.073.001c.163 4.567 2.222 6.34 6.784 6.34 1.915 0 3.44-.324 4.965-.772l.382-.115c.774-.242 1.066-.177 1.41.977l.047.164c.364 1.27.282 1.567-.484 1.859-2.106.761-4.17 1.1-6.658 1.1-7.05 0-10.422-3.398-10.53-9.987l-.002-.327v-.93c0-6.764 3.952-10.354 9.824-10.354zm-18.863-9.343h2.996c1.637 0 2.073.472 2.103 1.826l.002.16v24.18c0 .874.394 1.037 1.08 1.053l.62.002c.728 0 .93.254.93 1.606 0 1.29-.257 1.58-.912 1.605l-.101.002h-1.09c-2.54 0-3.61-.748-4.046-2.284l-.044-.168h-.325c-1.094 1.859-3.381 2.96-6.25 2.96-5.337 0-8.994-3.758-9.118-9.785l-.004-.32v-1.013c0-6.128 3.232-10.48 9.465-10.48 2.395 0 4.005.785 5.115 1.978l.148.165h.607v-7.557c0-.51-.142-.692-.615-.715l-.116-.003h-1.132c-.648 0-.97-.298-.97-1.354 0-1.377.37-1.821 1.505-1.856l.152-.002h2.996-2.996zM119.41 16.85c5.836 0 9.74 3.47 9.87 10.139l.002.342v.677c0 6.89-3.937 10.44-9.872 10.44-5.832 0-9.738-3.433-9.867-10.098l-.003-.342v-.677c0-6.891 3.94-10.48 9.87-10.48zm80.465 0c5.834 0 9.738 3.47 9.866 10.139l.004.342v.677c0 6.89-3.937 10.44-9.87 10.44-5.837 0-9.742-3.433-9.87-10.098l-.004-.342v-.677c0-6.891 3.938-10.48 9.874-10.48zM67.01 7.508h7.892c.77 0 .954.344.97 1.473v.176c0 1.247-.146 1.614-.859 1.646l-.111.002H73.04v10.229H78.5l7.698-10.229h-2.436c-.77 0-.953-.307-.969-1.468l-.001-.18c0-1.21.146-1.611.86-1.646l.11-.003h9.188c.77 0 .954.344.97 1.473v.176c0 1.247-.146 1.614-.859 1.646l-.11.002h-2.33l-8.53 11.253 7.27 12.664h1.935c.812 0 .973.33.973 1.61l-.005.336c-.032.888-.215 1.235-.85 1.27l-.118.004h-2.703c-1.664 0-2.367-.503-3.275-1.803l-.125-.182L78.66 24.33H73.04v10.394h1.984c.77 0 .955.3.971 1.431l.001.176c0 1.177-.147 1.57-.856 1.607l-.116.003h-8.056c-.807 0-.969-.37-.969-1.61l.005-.34c.03-.944.213-1.236.853-1.264l.111-.003h1.903v-23.92h-1.861c-.81 0-.972-.338-.972-1.648l.005-.34c.03-.946.214-1.275.855-1.306l.112-.003h7.892-7.892zm39.948 9.343c1.053 0 2.086.13 2.793.422.564.261.577.647.098 1.635l-.168.333c-.63 1.258-.879 1.482-1.74 1.34l-.425-.073c-.33-.05-.63-.067-1.164-.067-3.613 0-5.745 2.074-5.826 7.577l-.002.327v6.384h2.59c.772 0 .918.306.93 1.431l.001.175c0 1.208-.11 1.573-.82 1.605l-.112.002h-8.419c-.769 0-.917-.307-.929-1.432v-.175c0-1.208.11-1.572.819-1.604l.11-.002h1.903v-13.44c0-.511-.139-.694-.613-.717l-.116-.003h-1.132c-.768 0-.972-.424-.972-1.351 0-1.379.373-1.824 1.508-1.859l.152-.002h2.387c1.354 0 1.895.424 2.012 1.608l.013.167.12 1.818h.568c.89-2.916 3.36-4.099 6.434-4.099zM187.762 7c2.105 0 3.76.466 5.138 1.143.647.336.689.801.362 1.773-.406 1.185-.645 1.522-1.457 1.228-1.418-.55-3.159-.889-4.213-.889-2.685 0-3.828 1.206-3.882 4.721l-.002.268v2.113h4.965c.77 0 .917.306.929 1.431v.175c0 1.208-.109 1.572-.818 1.604l-.111.002h-4.965v14.16h3.683c.809 0 .93.337.93 1.606l-.004.338c-.024.94-.177 1.238-.815 1.267l-.111.002h-9.958c-.77 0-.917-.307-.929-1.432v-.175c0-1.208.109-1.572.818-1.604l.111-.002h2.348v-14.16h-3.278c-.77 0-.917-.306-.93-1.43v-.176c0-1.208.11-1.572.82-1.604l.11-.002h3.278V15.54c0-5.496 2.315-8.54 7.981-8.54zm101.42 9.851c5.835 0 7.562 3.798 7.619 9.427l.001 8.45h2.269c.769 0 .916.307.928 1.432l.001.175c0 1.208-.11 1.573-.818 1.605l-.111.002h-8.258c-.772 0-.917-.307-.93-1.432v-.175c0-1.208.108-1.572.819-1.604l.111-.002h2.064l-.001-7.812c-.026-4.194-.441-6.857-4.716-6.857-3.728 0-5.594 1.981-5.675 6.218l-.003.293v8.158h2.307c.77 0 .918.306.93 1.431l.001.175c0 1.208-.111 1.573-.82 1.605l-.111.002h-8.136c-.77 0-.919-.307-.931-1.432l-.001-.175c0-1.208.112-1.572.821-1.604l.111-.002h1.903v-13.44c0-.511-.14-.694-.612-.717l-.115-.003h-1.134c-.769 0-.974-.424-.974-1.351 0-1.379.372-1.824 1.51-1.859l.152-.002h2.348c1.354 0 1.82.463 2 1.613l.022.162.121 1.184h.566c1.297-2.537 3.124-3.465 6.743-3.465zm-145.14 0c5.835 0 7.56 3.798 7.618 9.427l.001 8.45h2.265c.771 0 .918.307.93 1.432v.175c0 1.208-.109 1.573-.819 1.605l-.11.002h-8.257c-.772 0-.918-.307-.93-1.432l-.002-.175c0-1.208.11-1.572.82-1.604l.112-.002h2.064v-7.564c-.012-4.337-.355-7.105-4.716-7.105-3.73 0-5.594 1.981-5.675 6.218l-.003.293v8.158h2.305c.772 0 .92.306.932 1.431v.175c0 1.208-.11 1.573-.82 1.605l-.112.002h-8.134c-.771 0-.918-.307-.93-1.432l-.002-.175c0-1.208.11-1.572.82-1.604l.112-.002h1.901v-13.44c0-.511-.138-.694-.611-.717l-.115-.003h-1.134c-.77 0-.973-.424-.973-1.351 0-1.379.372-1.824 1.509-1.859l.153-.002h2.346c1.354 0 1.82.463 2 1.613l.023.162.122 1.184h.568c1.294-2.537 3.124-3.465 6.741-3.465zm55.832 3.17c-4.044 0-5.677 2.715-5.742 7.198l-.002.282v.338c0 4.65 1.616 7.484 5.744 7.484 4.08 0 5.714-2.72 5.78-7.202l.001-.62c0-4.65-1.617-7.48-5.781-7.48zm-34.659 0c-4.043 0-5.677 2.715-5.742 7.198l-.002.62c0 4.65 1.617 7.484 5.744 7.484 4.08 0 5.715-2.72 5.78-7.202l.002-.282V27.5c0-4.65-1.618-7.48-5.782-7.48zm-45.806 0c-4.042 0-5.676 2.715-5.741 7.198l-.002.62c0 4.65 1.616 7.484 5.743 7.484 4.081 0 5.716-2.72 5.78-7.202l.003-.62c0-4.65-1.617-7.48-5.783-7.48zm122.85.082c-4.008 0-5.723 3.085-5.792 7.263l-.002.643c0 3.72 1.36 7.187 5.566 7.187 3.662 0 5.666-2.412 5.755-6.008l.003-.253v-1.852c0-4.236-1.705-6.98-5.53-6.98zm-20.802-.252h-.256c-3.35.04-4.432 1.525-4.525 4.022l-.005.205v.253c0 2.746 1.172 4.102 4.53 4.102 3.271 0 4.324-1.285 4.377-3.888l.002-.467c-.04-2.555-.855-4.187-4.123-4.227zm43.712.17c-3.58 0-5.42 2.053-5.504 5.657l-.003.26h10.67c0-3.678-1.346-5.918-5.163-5.918z"/>
        </g>
    </g>
</svg>
