<?xml version="1.0" encoding="utf-8"?>
<!-- Generator: Adobe Illustrator 18.1.0, SVG Export Plug-In . SVG Version: 6.00 Build 0)  -->
<svg version="1.1" id="Lager_1" xmlns="http://www.w3.org/2000/svg" x="0px" y="0px"
     viewBox="0 0 288 138" enable-background="new 0 0 288 138" xml:space="preserve">
<g>
	<path fill="#FFB819" d="M40.7,102.5V84.1l-3.4,5C37,89.5,37,90,37,90.6V91c0,1.5-1.1,2.2-2.2,2.2c-1.1,0-2.2-0.7-2.2-2.2v-0.4
		c0-0.6,0-1.1-0.3-1.5l-3.4-5v18.4c0,2.8-4.3,2.8-4.3,0V76.6c0-2.5,3-2.6,4.2-0.9l6,9.5l6-9.5C41.9,74,45,74,45,76.6v25.9
		C45,105.3,40.7,105.3,40.7,102.5z"/>
	<path fill="#FFB819" d="M158.7,104.5h-7.5c-3.6,0-6.4-2.9-6.4-6.4V81c0-3.5,2.9-6.4,6.4-6.4h7.5c3.5,0,6.4,2.9,6.4,6.4
		c0,2.9-4.3,2.9-4.3,0c0-1.2-1-2.1-2.1-2.1h-7.5c-1.2,0-2.1,0.9-2.1,2.1v17c0,1.2,1,2.2,2.1,2.2h7.5c1.2,0,2.1-1,2.1-2.2v-6.3h-3.4
		c-2.9,0-2.9-4.3,0-4.3h5.6c1.2,0,2.1,1,2.1,2.1V98C165.2,101.6,162.3,104.5,158.7,104.5z"/>
	<path fill="#FFB819" d="M186.9,102.5V91.7h-11.5v10.8c0,2.9-4.2,2.9-4.2,0V76.7c0-2.9,4.2-2.9,4.2,0v10.8h11.5V76.7
		c0-2.9,4.2-2.9,4.2,0v25.8C191.1,105.3,186.9,105.3,186.9,102.5z"/>
	<g>
		<path fill="#FFB819" d="M53.2,49.7v8.5h13.1c2.9,0,2.9,4.3,0,4.3H51c-1.2,0-2.1-1-2.1-2.1V34.7c0-1.2,1-2.1,2.1-2.1h15.2
			c2.9,0,2.9,4.3,0,4.3H53.2v8.6h8.7c2.9,0,2.9,4.3,0,4.3H53.2z"/>
	</g>
	<path fill="#FFB819" d="M113.1,104.5h-11.8c-1.2,0-2.1-1-2.1-2.1V76.8c0-1.2,1-2.1,2.1-2.1h11.8c3.6,0,6.4,2.8,6.4,6.4v17.1
		C119.5,101.6,116.6,104.5,113.1,104.5z M115.2,80.9c0-1.2-0.9-2.1-2.1-2.1h-9.7v21.5h9.7c1.2,0,2.1-1,2.1-2.2V80.9z"/>
	<path fill="#FFB819" d="M68,82.3l-6.8,8v12.3c0,2.8-4.3,2.8-4.3,0V90.1l-6.8-7.9c-1.3-1.5-1.2-2.1-1.2-4.3v-1.3
		c0-2.9,4.3-2.9,4.3,0v1.3c0,0.5,0,0.8,0.1,1.1l5.8,7l5.8-7c0.1-0.3,0.1-0.6,0.1-1.1v-1.3c0-2.9,4.3-2.9,4.3,0v1.3
		C69.2,80.1,69.3,80.7,68,82.3z"/>
	<path fill="#FFB819" d="M231.2,78.9v23.6c0,2.9-4.3,2.9-4.3,0V78.9H221c-2.9,0-2.9-4.3,0-4.3h16.1c2.9,0,2.9,4.3,0,4.3H231.2z"/>
	<g>
		<path fill="#FFB819" d="M37.5,49.7h-8.6v10.7c0,2.8-4.3,2.8-4.3,0V34.7c0-1.4,1.1-2.1,2.1-2.1h10.7c4.1,0,7.5,3.3,7.5,7.5v2.1
			C45,46.4,41.6,49.7,37.5,49.7z M40.7,40.1c0-1.8-1.5-3.2-3.2-3.2h-8.6v8.6h8.6c1.8,0,3.2-1.5,3.2-3.2V40.1z"/>
	</g>
	<g>
		<path fill="#FFB819" d="M126.2,62.5c-2.9,0-2.9-4.3,0-4.3h3.7V36.9h-3.7c-2.9,0-2.9-4.3,0-4.3H138c2.9,0,2.9,4.3,0,4.3h-3.8v21.3
			h3.8c2.9,0,2.9,4.3,0,4.3H126.2z"/>
	</g>
	<g>
		<path fill="#FFB819" d="M126.2,104.5c-2.9,0-2.9-4.3,0-4.3h3.7V78.9h-3.7c-2.9,0-2.9-4.3,0-4.3H138c2.9,0,2.9,4.3,0,4.3h-3.8v21.3
			h3.8c2.9,0,2.9,4.3,0,4.3H126.2z"/>
	</g>
	<path fill="#FFB819" d="M209.5,62.5h-5.3c-4.1,0-7.5-3.4-7.5-7.5c0-2.8,4.3-2.8,4.3,0c0,1.8,1.4,3.2,3.2,3.2h5.3
		c1.8,0,3.2-1.4,3.2-3.2c0-5.9-16-5.4-16-14.9c0-4.1,3.3-7.5,7.5-7.5h5.4c4.1,0,7.5,3.3,7.5,7.4c0,2.8-4.3,2.8-4.3,0
		c0-1.7-1.4-3.2-3.2-3.2h-5.4c-1.7,0-3.2,1.4-3.2,3.2c0,5.9,16,5.4,16,14.9C216.9,59.1,213.6,62.5,209.5,62.5z"/>
	<path fill="#FFB819" d="M112,62.5h-5.3c-4.1,0-7.5-3.4-7.5-7.5c0-2.8,4.3-2.8,4.3,0c0,1.8,1.4,3.2,3.2,3.2h5.3
		c1.8,0,3.2-1.4,3.2-3.2c0-5.9-16-5.4-16-14.9c0-4.1,3.3-7.5,7.5-7.5h5.4c4.1,0,7.5,3.3,7.5,7.4c0,2.8-4.3,2.8-4.3,0
		c0-1.7-1.4-3.2-3.2-3.2h-5.4c-1.7,0-3.2,1.4-3.2,3.2c0,5.9,16,5.4,16,14.9C119.4,59.1,116.1,62.5,112,62.5z"/>
	<path fill="#FFB819" d="M158.7,62.5h-7.5c-3.6,0-6.4-2.9-6.4-6.5V39c0-3.6,2.9-6.4,6.4-6.4h7.5c3.5,0,6.4,2.9,6.4,6.4v17
		C165.2,59.6,162.3,62.5,158.7,62.5z M160.9,39c0-1.2-1-2.1-2.1-2.1h-7.5c-1.2,0-2.1,0.9-2.1,2.1v17c0,1.2,1,2.2,2.1,2.2h7.5
		c1.2,0,2.1-1,2.1-2.2V39z"/>
	<path fill="#FFB819" d="M93.3,102.6c-0.1,2.8-4.2,2.7-4.2-0.1v-1.9L77.7,83.5l0,19c0,2.8-4.2,2.8-4.2,0c0,0,0-23.9,0-26
		c0-2.2,2.8-2.6,3.9-0.9c1.2,1.9,11.6,17.3,11.6,17.3l0-16.3c0-2.8,4.2-2.8,4.2,0L93.3,102.6z"/>
	<path fill="#FFB819" d="M285.7,102.6c-0.1,2.8-4.2,2.7-4.2-0.1v-1.9l-11.3-17.1l0,19c0,2.8-4.2,2.8-4.2,0c0,0,0-23.9,0-26
		c0-2.2,2.8-2.6,3.9-0.9c1.2,1.9,11.6,17.3,11.6,17.3l0-16.3c0-2.8,4.2-2.8,4.2,0L285.7,102.6z"/>
	<path fill="#FFB819" d="M93.3,60.5c-0.1,2.7-4.2,2.7-4.2-0.1v-1.9L77.7,41.4l0,19c0,2.8-4.2,2.8-4.2,0c0,0,0-23.9,0-26
		c0-2.2,2.8-2.6,3.9-0.9c1.2,1.9,11.6,17.3,11.6,17.3l0-16.3c0-2.8,4.2-2.8,4.2,0L93.3,60.5z"/>
	<path fill="#FFB819" d="M191,60.5c-0.1,2.7-4.2,2.7-4.2-0.1v-1.9l-11.3-17.1l0,19c0,2.8-4.2,2.8-4.2,0c0,0,0-23.9,0-26
		c0-2.2,2.8-2.6,3.9-0.9c1.2,1.9,11.6,17.3,11.6,17.3l0-16.3c0-2.8,4.2-2.8,4.2,0L191,60.5z"/>
	<g>
		<path fill="#FFB819" d="M200.9,91.7v8.5H214c2.9,0,2.9,4.3,0,4.3h-15.2c-1.2,0-2.1-1-2.1-2.1V76.8c0-1.2,1-2.1,2.1-2.1H214
			c2.9,0,2.9,4.3,0,4.3h-13.1v8.6h8.7c2.9,0,2.9,4.3,0,4.3H200.9z"/>
	</g>
	<g>
		<path fill="#FFB819" d="M246.3,91.7v8.5h13.1c2.9,0,2.9,4.3,0,4.3h-15.2c-1.2,0-2.1-1-2.1-2.1V76.8c0-1.2,1-2.1,2.1-2.1h15.2
			c2.9,0,2.9,4.3,0,4.3h-13.1v8.6h8.7c2.9,0,2.9,4.3,0,4.3H246.3z"/>
	</g>
	<path fill="#FFB819" d="M2,133.8V3.3c0-0.7,0.5-1.2,1.2-1.2l0,0c0.7,0,1.2,0.5,1.2,1.2l0,0v130.4c0,0.7-0.5,1.2-1.2,1.2l0,0
		C2.5,135,2,134.4,2,133.8L2,133.8z"/>
	<path fill="#FFB819" d="M2,133.8V3.3c0-0.7,0.5-1.2,1.2-1.2l0,0c0.7,0,1.2,0.5,1.2,1.2l0,0v130.4c0,0.7-0.5,1.2-1.2,1.2l0,0
		C2.5,135,2,134.4,2,133.8L2,133.8z"/>
	<path fill="#FFB819" d="M2,133.8V3.3c0-0.7,0.5-1.2,1.2-1.2l0,0c0.7,0,1.2,0.5,1.2,1.2l0,0v130.4c0,0.7-0.5,1.2-1.2,1.2l0,0
		C2.5,135,2,134.4,2,133.8L2,133.8z"/>
</g>
</svg>
