<svg version="1.1" id="Layer_1" xmlns="http://www.w3.org/2000/svg" x="0" y="0" viewBox="0 0 160 68.57" xml:space="preserve"><style>.st0{fill:#f6ab1b}.st1{fill:#ef4023}</style><path class="st0" d="M23.01 39.81c.39-.61.8-1.22 1.19-1.83-1.59-2.04-3.56-3.97-5.92-5.7-4.62-3.46-8.75-7.54-6.89-15.17C13.76 6.92 23.71 3.06 23.81 2.85c0 0-12.31 2.04-19 11.3-7.78 10.69-5.61 22.3 2.75 30.13C24.59 60.37 9.42 66.88 5 65.15c.88 1.53 5.8 4.68 12.2 2.85 4.42-1.32 8.17-5.09 10.04-9.87-6.39-4.07-8.06-11.7-4.23-18.32z"/><path class="st1" d="M24.21 37.98c-.39.61-.8 1.22-1.19 1.83-3.83 6.62-2.16 14.25 4.24 18.33 2.35-5.91 1.96-13.44-3.05-20.16zM32.56 18.63c0 4.89-3.83 8.86-8.55 8.86-4.74 0-8.57-3.97-8.57-8.86 0-4.99 3.83-8.96 8.57-8.96 4.72 0 8.55 3.97 8.55 8.96z"/><path class="st0" d="M37.78 5.19c0-2.85 3.44-4.79 3.94-5.19-1.48.2-9.55 1.43-9.55 8.25 0 5.09 5.31 6.72 5.31 12.32 0 7.13-6.49 9.67-13.28 17.41 5.01 6.72 5.4 14.25 3.04 20.16 1.09.61 2.27 1.12 3.54 1.63 1.68.51 7.19 1.53 10.63 1.12-3.44-1.43-7.67-4.38-7.67-8.35 0-8.04 13.68-17.41 13.68-27.59.01-9.68-9.64-14.36-9.64-19.76z"/><path d="M62.19 21.99c.2.1.39.2.68.2.2.1.59.2.89.31h1.18c.29 0 .59 0 .88-.1.2-.1.5-.2.7-.31.2-.2.29-.41.39-.61.2-.2.2-.41.2-.61 0-.31-.1-.61-.2-.81-.2-.31-.39-.51-.59-.71-.3-.2-.59-.41-.89-.61-.39-.2-.68-.41-.98-.61-.39-.2-.68-.41-1.08-.71-.3-.2-.59-.51-.89-.81-.29-.31-.59-.61-.79-1.02s-.29-.81-.29-1.32c0-.41.09-.92.29-1.32.2-.41.5-.71.89-1.02.29-.31.68-.51 1.18-.71.49-.2.98-.31 1.57-.31.88 0 1.67.1 2.16.31.59.1.98.31 1.29.41l-.59 1.53c-.3-.1-.59-.2-1.09-.41-.39-.1-.89-.2-1.48-.2s-1.08.2-1.47.41c-.39.2-.59.61-.59 1.02 0 .31.09.51.29.81.1.2.3.41.5.61.29.2.49.41.88.61.3.2.59.41.98.61.3.2.7.41.98.71.41.2.8.51 1.09.81.3.31.59.71.79 1.12.2.31.39.71.39 1.22s-.2 1.02-.49 1.53c-.2.41-.59.81-.98 1.12-.5.41-1 .61-1.48.81-.5.1-1.09.2-1.57.2-.59 0-1.09 0-1.48-.1-.39 0-.79-.1-1.08-.2-.3-.1-.59-.2-.79-.31-.2-.1-.39-.2-.5-.31l.59-1.43c.11.1.31.1.51.2zM72.03 15.48l2.07 5.6 2.06-5.6h1.77l-3.44 8.55h-1.18l-3.25-8.55zM80.68 21.99c.5.51 1.09.71 1.97.71.7 0 1.18 0 1.57-.1.3-.1.59-.2.79-.31l.39 1.12c-.09 0-.29.1-.39.2-.2.1-.39.1-.68.2-.2.1-.59.1-.89.2-.39 0-.88.1-1.38.1-.59 0-1.18-.1-1.77-.31-.49-.2-.88-.51-1.27-.92-.39-.31-.7-.81-.89-1.32-.2-.51-.29-1.12-.29-1.83 0-.61.09-1.22.29-1.73.2-.51.5-1.02.89-1.43.39-.41.79-.71 1.27-.92.5-.2 1.09-.31 1.57-.31.59 0 .98 0 1.48.2.49.2.88.51 1.27.81.3.41.59.92.79 1.43.2.61.3 1.32.3 2.14H80c0 .85.29 1.56.68 2.07zm2.36-4.78c-.29-.31-.68-.51-1.18-.51-.59 0-.98.2-1.27.61-.3.31-.5.81-.5 1.43h3.45c0-.72-.19-1.23-.5-1.53zM87.09 23.93v-8.45h1.86l.1 1.43c.09-.1.2-.2.39-.41.09-.2.29-.41.49-.51.2-.2.39-.31.59-.51.3-.1.59-.1.79-.1.39 0 .7 0 .89.1.29.1.49.31.59.41L92 17.32c-.1-.1-.2-.2-.39-.2-.2-.1-.39-.1-.7-.1-.2 0-.39 0-.59.1-.2.1-.29.2-.49.41-.2.1-.3.2-.39.31-.1.2-.2.31-.3.31v5.8h-2.05zM94.56 11.2c.29 0 .59.1.79.31.29.31.39.51.39.81s-.1.61-.39.82c-.2.2-.5.31-.79.31-.3 0-.5-.1-.79-.31-.2-.2-.3-.51-.3-.82s.1-.51.3-.81c.29-.21.49-.31.79-.31zm-.98 4.28h2.06v8.45h-2.06v-8.45zM100.27 20.77h-.39c-.2 0-.39.1-.5.1-.2.1-.29.2-.39.31-.09.1-.2.2-.2.41 0 .2.1.31.2.41.1.1.2.2.3.31.2 0 .39.1.49.1h2.86c.49 0 .88.1 1.27.2s.7.31.98.51c.3.31.5.61.59.92.1.41.2.81.1 1.32 0 .41-.2.82-.5 1.22-.29.41-.59.71-.98 1.02-.39.31-.88.51-1.38.71-.49.1-.98.2-1.47.2-.59 0-1.09 0-1.68-.1-.49-.1-.98-.2-1.47-.41-.39-.2-.79-.41-1.09-.71-.2-.31-.39-.71-.39-1.22 0-.3.1-.51.2-.81.1-.2.2-.41.39-.61.2-.2.3-.41.5-.51.2-.1.29-.2.49-.31-.09 0-.2-.1-.39-.2-.09-.1-.2-.2-.29-.31-.1-.2-.2-.31-.3-.51 0-.31-.09-.51-.09-.81 0-.2.09-.51.2-.71 0-.2.2-.41.29-.61.1-.2.3-.31.5-.51.2-.1.29-.2.49-.2-.2-.2-.39-.41-.68-.71-.2-.31-.3-.71-.3-1.22 0-.31 0-.61.2-.92.1-.41.3-.61.59-.92.2-.2.59-.41.98-.61s.79-.2 1.38-.2h1.09c.2.1.39.1.59.1h3.24v1.12h-1.86c.09.1.2.31.39.51.09.2.2.51.2.92 0 .41-.1.81-.3 1.12-.09.41-.39.71-.68.92-.3.2-.7.41-1.09.51-.39.1-.79.2-1.18.2h-.91zm-.98 3.56c-.2.1-.3.31-.39.41-.2.2-.3.31-.39.51-.1.2-.1.41-.1.61 0 .31.1.51.3.61.09.2.29.31.59.41.29.1.49.2.88.2.3.1.59.1.89.1.29 0 .68-.1.98-.1.29-.1.59-.31.79-.41.29-.2.49-.31.68-.51.1-.2.2-.41.2-.71.1-.41 0-.81-.29-1.02-.3-.2-.59-.31-.98-.31H99.7c-.13.01-.32.11-.41.21zm1.66-7.73c-.2 0-.39 0-.59.1-.2.1-.39.2-.49.31-.1.2-.2.31-.3.51-.09.2-.09.31-.09.51 0 .41.09.81.39 1.02.29.31.59.41 1.08.41.5 0 .89-.1 1.18-.41.2-.2.39-.61.39-1.02 0-.2-.09-.31-.09-.51-.1-.2-.2-.31-.3-.51-.09-.1-.29-.2-.49-.31-.19-.1-.39-.1-.69-.1zM108.93 21.99c.39.51 1.08.71 1.97.71.59 0 1.18 0 1.48-.1.29-.1.59-.2.79-.31l.49 1.12c-.2 0-.29.1-.49.2s-.39.1-.59.2c-.3.1-.59.1-.98.2-.39 0-.79.1-1.29.1-.7 0-1.29-.1-1.77-.31-.5-.2-.98-.51-1.38-.92-.3-.31-.59-.81-.79-1.32-.2-.51-.3-1.12-.3-1.83 0-.61.1-1.22.3-1.73.2-.51.49-1.02.88-1.43.3-.41.79-.71 1.29-.92.49-.2.98-.31 1.57-.31.49 0 .98 0 1.48.2.39.2.88.51 1.18.81.39.41.68.92.88 1.43.2.61.3 1.32.3 2.14h-5.72c0 .85.2 1.56.7 2.07zm2.27-4.78c-.3-.31-.7-.51-1.19-.51s-.98.2-1.27.61c-.2.31-.39.81-.5 1.43h3.56c-.12-.72-.31-1.23-.6-1.53zM115.42 22.3c.2.1.39.2.59.2.3.1.5.1.79.2h.79c.3 0 .59 0 .79-.2.3-.1.39-.31.39-.61 0-.2 0-.31-.09-.51-.1-.1-.3-.2-.5-.31-.09-.1-.29-.31-.59-.41-.2-.1-.39-.2-.59-.31-.2-.1-.39-.2-.68-.41-.2-.1-.5-.31-.7-.51-.2-.2-.39-.41-.49-.71-.2-.31-.2-.61-.2-.92 0-.41 0-.71.2-1.02.09-.31.29-.51.49-.71.3-.2.59-.41.89-.61.39-.1.79-.1 1.18-.1.79 0 1.38 0 1.77.2.39.1.79.2.98.41l-.5 1.22c-.2-.1-.49-.31-.88-.41-.3-.1-.7-.2-1.18-.2-.3 0-.59.1-.79.31-.2.1-.39.31-.39.51s.09.31.2.51c.09.1.2.2.39.31.2.1.29.2.59.41.2.1.39.2.59.31.2.1.39.2.68.41.2.1.5.31.7.51.29.2.49.51.59.71.2.31.29.61.29 1.02 0 .41-.09.71-.29 1.02-.2.31-.39.61-.7.81-.29.2-.68.41-.98.51-.39.1-.79.2-1.18.2-.39 0-.79-.1-1.18-.1-.29-.1-.59-.1-.88-.2-.2-.1-.39-.1-.59-.2-.2-.1-.3-.1-.39-.2l.49-1.22c.1-.01.2.09.39.09zM69.27 42.56l-5.42-6.11v5.9H61.6V29.63h2.25v5.7l5.03-5.7h2.36l-5.42 5.9 6.11 6.82z"/><path d="M75.96 33.8c.59 0 1.29.1 1.77.31.59.2 1.09.51 1.48.92.39.31.68.81.98 1.32.2.51.29 1.12.29 1.83s-.09 1.32-.29 1.83c-.3.51-.59 1.02-.98 1.43-.39.31-.89.61-1.48.81-.49.2-1.18.31-1.77.31-.68 0-1.27-.1-1.77-.31-.59-.2-1.08-.51-1.47-.81-.39-.41-.7-.92-.98-1.43-.2-.51-.3-1.12-.3-1.83s.1-1.32.3-1.83c.29-.51.59-1.02.98-1.32.39-.41.88-.71 1.47-.92.5-.21 1.09-.31 1.77-.31zm0 1.33c-.79 0-1.38.31-1.77.92-.39.51-.59 1.22-.59 2.14 0 .41 0 .82.2 1.22.1.31.2.71.39.92.3.31.5.51.79.71.3.1.59.2.98.2.3 0 .59-.1.89-.2.29-.2.59-.41.79-.71.2-.2.39-.61.49-.92.1-.41.2-.81.2-1.22 0-.41-.09-.81-.2-1.22-.09-.31-.29-.71-.49-.92-.2-.31-.5-.51-.79-.71-.3-.11-.59-.21-.89-.21zM93.97 42.35H92v-5.5c0-.41-.1-.81-.3-1.12-.2-.2-.49-.41-.98-.41-.2 0-.29.1-.49.1-.2.1-.39.1-.5.2-.2.1-.29.2-.39.31-.2.1-.29.1-.39.2v6.21h-1.97v-5.5c0-.41-.09-.81-.29-1.12-.1-.2-.5-.41-.98-.41-.1 0-.3.1-.5.1-.2.1-.29.1-.49.2-.1.1-.3.2-.39.31-.2.1-.3.2-.39.2v6.21h-1.97v-8.35h1.86l.1.92c.09-.1.2-.2.39-.41.2-.1.39-.2.59-.31.2-.1.49-.2.79-.31.2-.1.49-.1.88-.1.5 0 .98.1 1.29.31.39.2.68.41.88.81.1-.1.2-.2.39-.31.2-.2.39-.31.59-.41.2-.1.5-.2.79-.31.3-.1.59-.1.98-.1.89 0 1.48.2 1.88.71.39.51.59 1.12.59 1.83v6.05zM107.94 42.35h-2.07v-5.5c0-.41 0-.81-.2-1.12-.2-.2-.49-.41-.98-.41-.2 0-.39.1-.59.1-.09.1-.29.1-.39.2-.2.1-.29.2-.49.31-.1.1-.2.1-.3.2v6.21h-2.06v-5.5c0-.41 0-.81-.2-1.12-.2-.2-.5-.41-.98-.41-.2 0-.39.1-.5.1-.2.1-.39.1-.49.2-.2.1-.3.2-.5.31-.09.1-.2.2-.29.2v6.21h-2.07v-8.35h1.97l.1.92c.09-.1.2-.2.39-.41.09-.1.29-.2.59-.31.2-.1.39-.2.68-.31.3-.1.59-.1.89-.1.59 0 1.08.1 1.38.31.29.2.59.41.79.81.09-.1.29-.2.49-.31.1-.2.3-.31.59-.41.2-.1.5-.2.79-.31.3-.1.59-.1.98-.1.79 0 1.48.2 1.88.71.39.51.59 1.12.59 1.83v6.05zM111.68 34.01v5.5c0 .41.1.81.3 1.12.09.2.49.41.98.41.2 0 .39-.1.59-.1.29-.1.39-.2.59-.2.2-.1.39-.2.49-.31.1-.1.3-.2.3-.2v-6.21H117v8.35h-1.97v-.81c-.09 0-.29.1-.39.31-.2.1-.39.2-.59.31-.29.1-.59.2-.88.31-.3.1-.7.1-1.09.1-.79 0-1.48-.2-1.88-.71-.39-.41-.59-1.02-.59-1.83v-6.01h2.07zM124.47 42.35v-5.5c0-.41-.09-.81-.29-1.02-.2-.31-.59-.51-1.09-.51-.2 0-.49.1-.68.1-.2.1-.39.2-.59.31-.2 0-.39.1-.5.2-.2.1-.29.2-.39.31v6.11h-1.97V34h1.88l.09.81c.1 0 .2-.1.39-.2.1-.2.39-.31.59-.41.3-.1.59-.2.89-.31.29-.1.68-.1 1.08-.1.89 0 1.48.2 1.97.71.39.41.59 1.12.59 1.83v6.01h-1.97zM130.68 40.42c.39.51 1.08.71 1.97.71.68 0 1.18 0 1.47-.1.39-.1.7-.2.89-.31l.39 1.12c-.1.1-.3.2-.39.2-.2.1-.39.2-.7.31-.29 0-.59.1-.88.1-.39.1-.89.1-1.38.1-.7 0-1.18-.1-1.77-.31-.5-.2-.89-.41-1.29-.81-.39-.41-.68-.81-.88-1.32-.2-.61-.3-1.22-.3-1.83 0-.61.1-1.22.3-1.83.2-.51.49-1.02.88-1.43.39-.41.79-.71 1.29-.92.49-.2.98-.31 1.57-.31.49 0 .98.1 1.47.31.5.1.89.41 1.29.81.29.31.59.81.79 1.43.2.51.29 1.22.29 2.04h-5.71c0 .92.31 1.53.7 2.04zm2.36-4.79c-.3-.31-.7-.51-1.18-.51-.59 0-.98.2-1.29.61-.29.41-.49.81-.49 1.43h3.44c.01-.61-.19-1.12-.48-1.53zM137.07 42.35V34h1.88l.09 1.32c.1-.1.2-.2.39-.41.1-.1.3-.31.5-.51.2-.1.39-.31.59-.41.29-.1.49-.2.79-.2.39 0 .68.1.88.2.3.1.5.2.59.31l-.79 1.43c-.09-.1-.2-.1-.39-.2-.2 0-.39-.1-.68-.1-.2 0-.39.1-.59.2-.2.1-.3.2-.5.31-.2.1-.29.2-.39.41-.2.1-.29.2-.29.31v5.7h-2.08zM65.53 52.23c.59 0 1.18.1 1.77.31.5.2.98.51 1.48.92.39.41.68.81.88 1.43.3.51.39 1.12.39 1.73 0 .71-.09 1.32-.39 1.83-.2.61-.49 1.02-.88 1.43-.5.41-.98.71-1.48.92a5.5 5.5 0 01-1.77.31c-.7 0-1.29-.1-1.88-.31-.49-.2-.98-.51-1.38-.92-.39-.41-.79-.81-.98-1.43-.2-.51-.39-1.12-.39-1.83 0-.61.2-1.22.39-1.73.2-.61.59-1.02.98-1.43.39-.41.89-.71 1.38-.92.6-.21 1.19-.31 1.88-.31zm0 1.43c-.79 0-1.38.2-1.77.81-.39.61-.59 1.32-.59 2.14 0 .51 0 .92.09 1.22.1.41.3.71.5 1.02.2.2.49.51.79.61.29.2.59.2.98.2.29 0 .59 0 .88-.2.3-.1.5-.41.7-.61.29-.31.39-.61.5-1.02.2-.31.2-.71.2-1.22 0-.41 0-.81-.2-1.12-.1-.41-.21-.71-.5-1.02-.2-.31-.39-.51-.7-.61-.29-.2-.59-.2-.88-.2zM71.04 56.61c0-.61.2-1.22.39-1.73.3-.61.59-1.02.98-1.43.39-.41.89-.71 1.48-.92.49-.2 1.08-.31 1.67-.31.39 0 .7.1.98.1.39 0 .59.1.89.1.2.1.39.1.49.2.2 0 .3.1.5.1l-.5 1.32c-.2-.1-.49-.2-.79-.31-.29-.1-.79-.1-1.38-.1-.29 0-.49.1-.79.2-.39.1-.59.31-.88.51-.2.31-.39.61-.59 1.02-.2.31-.2.81-.2 1.22 0 .51 0 .92.2 1.32.2.31.39.71.59.92.29.31.49.51.88.61.3.1.5.2.79.2.59 0 1.09-.1 1.38-.1.3-.1.59-.2.89-.31l.39 1.22c-.2.1-.5.31-.98.41-.39.1-1.09.2-1.97.2-.59 0-1.29-.1-1.77-.41-.59-.2-.98-.51-1.38-.81-.39-.41-.7-.92-.89-1.43-.27-.47-.38-1.08-.38-1.79zM85.12 60.88v-5.6c0-.41-.1-.71-.3-1.02-.2-.31-.59-.41-1.08-.41-.2 0-.39 0-.59.1-.3 0-.5.1-.7.2-.09.1-.29.2-.49.31-.1.1-.2.1-.3.2v6.21H79.6V47.65l2.06-.31v6.01c.1-.1.2-.2.39-.31.1-.1.3-.2.59-.41.2-.1.5-.2.79-.2.39-.1.79-.2 1.18-.2.89 0 1.48.31 1.88.71.49.51.68 1.12.68 1.93v6.01h-2.05zM100.76 61.09l-3.54-6.01h-1.27v5.8h-2.16V48.16h3.54c.68 0 1.38.1 1.97.2.59.2 1.08.51 1.38.81.39.31.68.61.88 1.02.2.41.3.82.3 1.22 0 .41-.1.81-.3 1.22-.09.31-.29.71-.59.92-.2.31-.49.51-.79.71-.29.2-.49.31-.79.41l3.94 6.21-2.57.21zm-3.64-7.43c.39 0 .79-.1 1.08-.2.39-.1.59-.31.79-.51.3-.2.39-.41.5-.61.09-.2.2-.51.2-.71 0-.31-.1-.51-.2-.82-.1-.2-.2-.41-.39-.61-.3-.2-.5-.31-.79-.41-.39-.1-.79-.2-1.18-.2h-1.18v4.07h1.17zM106.17 58.95c.39.41 1.08.71 1.97.71.68 0 1.18-.1 1.47-.2.39-.1.59-.2.79-.2l.5 1.12c-.09 0-.3.1-.5.2-.09 0-.39.1-.59.2-.29.1-.59.1-.98.2-.39 0-.79.1-1.27.1-.7 0-1.29-.1-1.77-.31-.5-.2-.98-.51-1.38-.92-.3-.31-.59-.81-.79-1.32-.2-.51-.3-1.12-.3-1.83 0-.61.1-1.22.3-1.73.2-.61.49-1.02.88-1.43.3-.41.79-.71 1.29-.92.49-.31.98-.41 1.57-.41.49 0 .98.1 1.47.31.5.2.89.41 1.18.81.39.41.7.81.89 1.43.2.61.3 1.32.3 2.14h-5.72c0 .83.19 1.54.69 2.05zm2.36-4.79c-.3-.41-.79-.51-1.29-.51-.49 0-.88.2-1.18.51-.29.41-.49.92-.59 1.43h3.54c-.08-.61-.19-1.12-.48-1.43zM115.33 57.62c-.1 0-.2.1-.39.1s-.3 0-.5.1-.29.1-.39.31c-.09.1-.09.2-.09.41 0 .2 0 .31.09.41.1.1.2.2.39.2.1.1.3.1.39.2h2.86c.49 0 .88 0 1.27.2.39.1.79.31.98.51.3.31.5.61.59.92.2.41.2.81.1 1.22 0 .51-.2.92-.5 1.32-.2.41-.59.71-.98 1.02-.39.31-.88.51-1.38.61-.49.2-.98.31-1.47.31-.59 0-1.09-.1-1.68-.1-.49-.1-.98-.2-1.38-.41-.49-.2-.79-.41-1.08-.71-.3-.31-.39-.71-.39-1.22 0-.31 0-.61.09-.81.1-.31.3-.51.39-.61.2-.2.39-.41.5-.51.2-.1.39-.2.49-.31-.09 0-.2-.1-.29-.2-.2-.1-.3-.2-.39-.31-.1-.2-.2-.41-.2-.61-.1-.2-.2-.41-.2-.71 0-.2.09-.51.2-.71.09-.2.2-.41.29-.61.2-.2.3-.3.5-.51.2-.1.39-.2.59-.31-.3-.1-.5-.31-.7-.61-.29-.31-.39-.71-.39-1.22 0-.31.1-.61.2-1.02.1-.31.3-.61.59-.81.3-.31.59-.51.98-.61.39-.2.89-.31 1.38-.31.5 0 .79.1 1.09.1.2 0 .39.1.59.1h3.24v1.12h-1.86c.09.1.29.2.39.51.2.2.2.51.2.92 0 .41 0 .81-.2 1.12-.2.41-.5.61-.79.92-.3.2-.7.41-1.09.51-.39.1-.79.1-1.18.1h-.86zm-.98 3.67c-.1.1-.3.31-.39.41-.2.2-.3.31-.39.51-.1.2-.1.41-.1.61s.1.41.3.61c.2.2.39.31.59.41.29.1.59.2.88.2.3.1.59.1.89.1.39 0 .68-.1.98-.2.29-.1.59-.2.88-.31.2-.2.39-.41.59-.61.1-.2.2-.41.3-.61 0-.51-.1-.81-.39-1.02-.2-.2-.59-.31-.98-.31h-2.75c-.12.01-.22.11-.41.21zm1.66-7.84c-.2 0-.39.1-.59.2-.2.1-.39.2-.49.31-.1.1-.2.31-.3.51-.09.1-.09.31-.09.51 0 .41.09.71.39 1.02.29.31.68.41 1.08.41.59 0 .98-.1 1.18-.41.3-.31.39-.61.39-1.02 0-.2 0-.41-.09-.51-.1-.2-.1-.41-.3-.51-.09-.1-.29-.2-.49-.31-.19-.1-.39-.2-.69-.2zM122.7 48.16c.3 0 .59.1.79.31.3.2.39.51.39.81 0 .31-.09.61-.39.81-.2.2-.49.31-.79.31-.29 0-.49-.1-.79-.31-.2-.2-.29-.51-.29-.81 0-.31.09-.61.29-.81.31-.21.5-.31.79-.31zm-.98 4.27h2.07v8.45h-2.07v-8.45zM129.79 52.23c.7 0 1.29.1 1.88.31.49.2.98.51 1.38.92.49.41.79.81.98 1.43.29.51.39 1.12.39 1.73 0 .71-.1 1.32-.39 1.83-.2.61-.5 1.02-.98 1.43-.39.41-.89.71-1.38.92-.59.2-1.18.31-1.88.31-.59 0-1.18-.1-1.77-.31-.49-.2-.98-.51-1.38-.92-.49-.41-.79-.81-.98-1.43-.29-.51-.39-1.12-.39-1.83 0-.61.1-1.22.39-1.73.2-.61.5-1.02.98-1.43.39-.41.89-.71 1.38-.92.59-.21 1.18-.31 1.77-.31zm0 1.43c-.68 0-1.27.2-1.67.81-.5.61-.7 1.32-.7 2.14 0 .51.1.92.2 1.22.1.41.3.71.5 1.02.2.2.49.51.79.61.29.2.59.2.88.2.39 0 .7 0 .98-.2.3-.1.5-.41.7-.61.2-.31.39-.61.49-1.02.2-.31.2-.71.2-1.22 0-.41 0-.81-.2-1.12-.09-.41-.29-.71-.49-1.02-.2-.31-.39-.51-.7-.61-.29-.2-.59-.2-.98-.2zM141.4 60.88v-5.6c0-.41-.09-.71-.29-1.02-.2-.31-.5-.41-.98-.41-.3 0-.5 0-.7.1-.29 0-.49.1-.59.2-.2.1-.39.2-.59.31-.09.1-.2.1-.29.2v6.21h-2.07v-8.45h1.97l.1.92c0-.1.2-.2.29-.31.2-.1.39-.2.7-.41.2-.1.49-.2.79-.2.39-.1.79-.2 1.18-.2.79 0 1.47.31 1.86.71.5.51.7 1.12.7 1.93v6.01h-2.08zM147.8 58.95c.39.41 1.08.71 1.97.71.59 0 1.18-.1 1.47-.2.39-.1.59-.2.79-.2l.5 1.12c-.2 0-.3.1-.5.2-.2 0-.39.1-.59.2-.29.1-.59.1-.98.2-.39 0-.79.1-1.27.1-.7 0-1.29-.1-1.77-.31-.5-.2-.98-.51-1.38-.92-.3-.31-.59-.81-.79-1.32-.2-.51-.3-1.12-.3-1.83 0-.61.1-1.22.3-1.73.2-.61.49-1.02.88-1.43.3-.41.79-.71 1.29-.92.49-.31.98-.41 1.57-.41.49 0 .98.1 1.47.31.39.2.89.41 1.18.81.39.41.7.81.89 1.43.2.61.29 1.32.29 2.14h-5.71c-.01.83.19 1.54.69 2.05zm2.26-4.79c-.29-.41-.68-.51-1.18-.51-.49 0-.98.2-1.18.51-.29.41-.49.92-.59 1.43h3.54c-.1-.61-.29-1.12-.59-1.43zM154.29 60.88v-8.45h1.88l.09 1.43c0-.1.2-.2.3-.41.2-.2.29-.41.49-.51.2-.2.39-.41.7-.51.2-.1.49-.2.79-.2.39 0 .68.1.88.2s.39.2.59.31l-.79 1.53c-.2-.1-.29-.2-.49-.31h-.59c-.2 0-.39 0-.59.1-.2.1-.39.2-.59.31-.1.2-.3.31-.39.41-.1.1-.2.31-.3.31v5.8h-1.98z"/></svg>