<svg data-name="Lager 1" xmlns="http://www.w3.org/2000/svg" width="159.9" height="59.8"><path d="M2.2 57.2a3.31 3.31 0 01-1.9-.5L0 55.5a3.6 3.6 0 002.2.7 1.27 1.27 0 001.4-1.1c0-.6-.4-1.1-1.3-1.3-1.3-.4-2-1.2-2-2.2a2.09 2.09 0 012.3-2 3.1 3.1 0 011.6.4l-.2.9a2.59 2.59 0 00-1.4-.4 1.13 1.13 0 00-1.2 1c0 .5.4.9 1.2 1.1 1.3.4 2.1 1.1 2.1 2.4a2.19 2.19 0 01-2.5 2.2zM10.1 52.7H8.5v2.9a.71.71 0 00.8.7 1.27 1.27 0 00.6-.1l-.2.9h-.5a1.6 1.6 0 01-1.7-1.6v-2.9h-1v-.8h1v-1.1l1-.5v1.6h1.8zM15.9 57.2a1.12 1.12 0 01-.8-.7 1.8 1.8 0 01-1.5.7 1.67 1.67 0 01-1.7-1.6 1.75 1.75 0 011.7-1.7l1.2-.1v-.3a.87.87 0 00-1-.9 2.89 2.89 0 00-1.4.4l-.2-.9a3.29 3.29 0 011.7-.4 1.81 1.81 0 012 1.9v2.1a.78.78 0 00.6.8zm-1-2.5l-1 .1c-.6.1-.9.5-.9.8a.68.68 0 00.7.7 1.22 1.22 0 001.2-1.2zM21.6 52.7h-1.7v2.9a.71.71 0 00.8.7 1.27 1.27 0 00.6-.1l-.2.9h-.5a1.6 1.6 0 01-1.7-1.6v-2.9h-1v-.8h1v-1.1l1-.5v1.6h1.8zM28.2 54.2l-.6.6h-3.1a1.79 1.79 0 001.9 1.6 3.1 3.1 0 001.7-.5l-.3 1.1a3.06 3.06 0 01-1.5.3 2.71 2.71 0 01-2.8-2.7 2.6 2.6 0 012.6-2.7 2.15 2.15 0 012.3 2c-.2 0-.2.1-.2.3zM26 52.6a1.51 1.51 0 00-1.5 1.2h2.6v-.1a1 1 0 00-1.1-1.1zM33.9 57.1v-3.4a1.07 1.07 0 00-1.2-1.1 1.23 1.23 0 00-1.3 1.1v3.4h-1v-5.2h.9v.5a2 2 0 011.6-.6 1.86 1.86 0 012 1.9v3.5h-1zM38.8 57.2a3 3 0 01-1.5-.4l-.2-1.2a2.52 2.52 0 001.7.6c.5 0 .8-.3.8-.6s-.3-.6-.7-.8c-1-.4-1.6-.9-1.6-1.7s.7-1.5 1.8-1.5a3.66 3.66 0 011.4.3l-.3 1.1a1.74 1.74 0 00-1.2-.3c-.4 0-.7.2-.7.6s.2.5.8.7c1 .4 1.6.9 1.6 1.8 0 .7-.7 1.4-1.9 1.4zM49.9 52.7h-1.7v2.9a.71.71 0 00.8.7 1.27 1.27 0 00.6-.1l-.2.9h-.5a1.6 1.6 0 01-1.7-1.6v-2.9h-1v-.8h1v-1.1l1-.5v1.6H50zM51.7 59.8l-.7-.7a1.36 1.36 0 001.1-1.5v-5.7h1.1v5.8a2 2 0 01-1.5 2.1zm1-8.9a.9.9 0 01-.6-.6.6.6 0 011.2 0c.1.1-.4.6-.6.6zM59.6 57.2a1.12 1.12 0 01-.8-.7 1.8 1.8 0 01-1.5.7 1.67 1.67 0 01-1.7-1.6 1.75 1.75 0 011.7-1.7l1.2-.1v-.3a.87.87 0 00-1-.9 2.89 2.89 0 00-1.4.4l-.1-.8a3.29 3.29 0 011.7-.4 1.81 1.81 0 012 1.9v2.1a.78.78 0 00.6.8zM57 51a.64.64 0 01-.5-.5c0-.2.4-.5.5-.5a.64.64 0 01.5.5c0 .1-.3.5-.5.5zm1.6 3.7l-1 .1c-.6.1-.9.5-.9.8a.68.68 0 00.7.7 1.22 1.22 0 001.2-1.2zm-.1-3.7a.5.5 0 11.5-.5c0 .1-.3.5-.5.5zM65.8 57.1v-3.4a1.07 1.07 0 00-1.2-1.1 1.23 1.23 0 00-1.3 1.1v3.4h-1v-5.2h.9v.5a2 2 0 011.6-.6 1.86 1.86 0 012 1.9v3.5h-1zM70.7 57.2a3 3 0 01-1.5-.4l-.2-1.1a2.52 2.52 0 001.7.6c.5 0 .8-.3.8-.6s-.3-.6-.7-.8c-1-.4-1.6-.9-1.6-1.7s.7-1.5 1.8-1.5a3.66 3.66 0 011.4.3l-.3 1a1.74 1.74 0 00-1.2-.3c-.4 0-.7.2-.7.6s.2.5.8.7c1 .4 1.6.9 1.6 1.8 0 .7-.6 1.4-1.9 1.4zM78 52.7h-1.7v2.9a.71.71 0 00.8.7 1.27 1.27 0 00.6-.1l-.2.9H77a1.6 1.6 0 01-1.7-1.6v-2.9h-1v-.8h1v-1.1l1-.5v1.6h1.8zM84.6 54.2l-.6.5h-3.1a1.79 1.79 0 001.9 1.6 3.1 3.1 0 001.7-.5l-.3 1.1a3.06 3.06 0 01-1.5.3 2.71 2.71 0 01-2.8-2.7 2.6 2.6 0 012.6-2.7 2.15 2.15 0 012.3 2c-.2.1-.2.2-.2.4zm-2.2-1.6a1.51 1.51 0 00-1.5 1.2h2.6v-.1a1.11 1.11 0 00-1.1-1.1zM89.2 57.2a3.55 3.55 0 01-1.3-.3v2.9h-1v-7.9h.9v.4a2.35 2.35 0 011.6-.5 2.702 2.702 0 01-.2 5.4zm0-4.5a1.73 1.73 0 00-1.3.5v2.6a1.79 1.79 0 101.3-3.1zM98.7 54.2l-.6.6H95a1.79 1.79 0 001.9 1.6 3.1 3.1 0 001.7-.5l-.3 1.1a3.06 3.06 0 01-1.5.3 2.71 2.71 0 01-2.8-2.7 2.6 2.6 0 012.6-2.7 2.15 2.15 0 012.3 2c-.1 0-.1.1-.2.3zm-2.1-1.6a1.51 1.51 0 00-1.5 1.2h2.6v-.1a1.11 1.11 0 00-1.1-1.1zM104.5 57.1v-3.4a1.07 1.07 0 00-1.2-1.1 1.23 1.23 0 00-1.3 1.1v3.4h-1v-5.2h.9v.5a2 2 0 011.6-.6 1.86 1.86 0 012 1.9v3.5h-1zM109.3 57.2a3 3 0 01-1.5-.4l-.2-1.2a2.52 2.52 0 001.7.6c.5 0 .8-.3.8-.6s-.3-.6-.7-.8c-1-.4-1.6-.9-1.6-1.7s.7-1.5 1.8-1.5a3.66 3.66 0 011.4.3l-.2.9a1.74 1.74 0 00-1.2-.3c-.4 0-.7.2-.7.6s.2.5.8.7c1 .4 1.6.9 1.6 1.8a1.77 1.77 0 01-2 1.6zM114.2 50.9a.9.9 0 01-.6-.6.6.6 0 111.2 0c0 .1-.4.6-.6.6zm-.5 6.2v-5.2h1.1v5.2zM119.9 57.2a2.7 2.7 0 112.8-2.7 2.65 2.65 0 01-2.8 2.7zm0-4.5a1.8 1.8 0 101.7 1.8 1.71 1.71 0 00-1.7-1.8zM128.4 57.1v-3.4a1.07 1.07 0 00-1.2-1.1 1.23 1.23 0 00-1.3 1.1v3.4h-1v-5.2h.9v.5a2 2 0 011.6-.6 1.86 1.86 0 012 1.9v3.5h-1zM133.2 57.2a3 3 0 01-1.5-.4l-.2-1.2a2.52 2.52 0 001.7.6c.5 0 .8-.3.8-.6s-.3-.6-.7-.8c-1-.4-1.6-.9-1.6-1.7s.7-1.5 1.8-1.5a3.66 3.66 0 011.4.3l-.2.9a1.74 1.74 0 00-1.2-.3c-.4 0-.7.2-.7.6s.2.5.8.7c1 .4 1.6.9 1.6 1.8a1.77 1.77 0 01-2 1.6zM139.4 57.2h-.4l-2.2-5.3h1.1l.9 2.3c.1.3.3.7.4 1.1.1-.4.3-.8.4-1.1l.9-2.3h1zM148 54.2l-.6.6h-3.1a1.79 1.79 0 001.9 1.6 3.1 3.1 0 001.7-.5l-.3 1.1a3.06 3.06 0 01-1.5.3 2.71 2.71 0 01-2.8-2.7 2.6 2.6 0 012.6-2.7 2.15 2.15 0 012.3 2c-.1 0-.1.1-.2.3zm-2.1-1.6a1.51 1.51 0 00-1.5 1.2h2.6v-.1a1.11 1.11 0 00-1.1-1.1zM153.3 52.7a1.77 1.77 0 00-1.9 1.9v2.5h-1v-5.2h1v.8a1.91 1.91 0 011.8-.9l.2.9zM158.6 57.1l-2.2-2.5v2.5h-1v-8.2h1v5.5l2.2-2.5h1.2l-2.3 2.6 2.4 2.6zM47.6 2.4A60 60 0 0031.8 0c-10.7-.1-21 1.5-21.1 10.1-.1 11 9.5 11.5 21.3 14.2 4.1.9 7.7 2.8 7.7 5.7 0 4.4-5 6.2-11.1 6.2-9-.1-11.3-3.7-12-9.7l-5.6-.3.3 9.7c6.2 1.8 10.4 3 16.6 3 11.1.2 22.7-1.9 22.7-11.5 0-8.2-5.9-10.6-15.7-12.7-8.1-1.8-13.8-2-13.8-6.6 0-4.4 4.8-5.5 10.8-5.4 7 .1 10 3.3 10.4 8l5.6.2-.3-8.5zM118.1 38.2c1.3-.1 2.7-.1 4-.1s2.7.1 4.1.1l13.1-25.3c1.7-3.2 2.6-5.4 3.9-7s1.9-3.1 6.1-3.1V.7c-1.2.1-4.3.1-7.4.1-3.5-.1-7-.1-10.5-.1v2.2c1.5.1 6.3.1 6.7 1.7.2 1.3-1.6 4.7-3.2 8l-8.7 18.5-11.4-22.5a9.12 9.12 0 01-1.2-3.5c0-2 4.5-2.1 6.5-2.2V.7c-3.8.1-8.1.1-12.4.1S99 .7 95.6.7v2.2a7.89 7.89 0 013.4.6c2.4 1 3.9 4.4 4.8 6.2l14.3 28.5zM70.5 22.5c2 0 3.9.2 7.2.1 12.2-.3 18.6-3 18.6-11.9 0-7.6-4.3-9.9-14.8-10-8.1.1-11.1.1-16.6.1C60.4.7 56 .7 52.3.7v2.2c7.9 0 6.7 1.1 6.8 4.4v24.3c-.1 3.1 1.1 4.4-6.3 4.4v2.2c3.2-.1 7.6-.1 12-.1s8.8.1 13.2.1V36c-8.2 0-7.6-.6-7.6-4.4l.1-9.1zm0-19.2c1.4-.1 2.5-.2 3.6-.2 8 0 10.1 2.8 10.1 7.7 0 6.3-3.8 10.1-13.6 9.5l-.1-17z" fill="#0039a6"/></svg>