<?xml version="1.0" encoding="UTF-8" standalone="no"?>
<!-- Generator: Adobe Illustrator 23.0.0, SVG Export Plug-In . SVG Version: 6.00 Build 0)  -->

<svg
   xmlns:dc="http://purl.org/dc/elements/1.1/"
   xmlns:cc="http://creativecommons.org/ns#"
   xmlns:rdf="http://www.w3.org/1999/02/22-rdf-syntax-ns#"
   xmlns:svg="http://www.w3.org/2000/svg"
   xmlns="http://www.w3.org/2000/svg"
   xmlns:sodipodi="http://sodipodi.sourceforge.net/DTD/sodipodi-0.dtd"
   xmlns:inkscape="http://www.inkscape.org/namespaces/inkscape"
   version="1.1"
   id="Lager_1"
   x="0px"
   y="0px"
   viewBox="0 0 350 95.000003"
   xml:space="preserve"
   sodipodi:docname="logo-verksamt-foretag.svg"
   width="350"
   height="95"
   inkscape:version="0.92.2 5c3e80d, 2017-08-06"
   
   inkscape:export-xdpi="96"
   inkscape:export-ydpi="96"><metadata
     id="metadata75"><rdf:RDF><cc:Work
         rdf:about=""><dc:format>image/svg+xml</dc:format><dc:type
           rdf:resource="http://purl.org/dc/dcmitype/StillImage" /><dc:title></dc:title></cc:Work></rdf:RDF></metadata><defs
     id="defs73"><clipPath
       clipPathUnits="userSpaceOnUse"
       id="clipPath4524"><path
         d="M 0,841.89 H 595.28 V 0 H 0 Z"
         id="path4522"
         inkscape:connector-curvature="0" /></clipPath></defs><sodipodi:namedview
     pagecolor="#ffffff"
     bordercolor="#666666"
     borderopacity="1"
     objecttolerance="10"
     gridtolerance="10"
     guidetolerance="10"
     inkscape:pageopacity="0"
     inkscape:pageshadow="2"
     inkscape:window-width="1812"
     inkscape:window-height="1527"
     id="namedview71"
     showgrid="false"
     inkscape:zoom="1.6001094"
     inkscape:cx="59.039315"
     inkscape:cy="-42.122614"
     inkscape:window-x="1994"
     inkscape:window-y="201"
     inkscape:window-maximized="0"
     inkscape:current-layer="Lager_1" /><style
     type="text/css"
     id="style2">
	.st0{fill-rule:evenodd;clip-rule:evenodd;}
</style><g
     id="g68"
     transform="matrix(2.0484892,0,0,2.0260083,-35.101265,-47.969847)"
     aria-label="Till företag från myndigheter"
     style="fill:#1a171b"><path
       d="m 25.34,57.93 h -2.33 v 7.72 c 0,0.12 -0.08,0.24 -0.21,0.24 h -0.66 c -0.12,0 -0.22,-0.11 -0.22,-0.24 v -7.72 h -2.33 c -0.13,0 -0.24,-0.06 -0.24,-0.19 v -0.53 c 0,-0.12 0.11,-0.22 0.24,-0.22 h 5.75 c 0.13,0 0.23,0.08 0.23,0.22 v 0.53 c 0,0.12 -0.09,0.19 -0.23,0.19 z"
       id="path16"
       inkscape:connector-curvature="0" /><path
       d="m 28.34,58.25 h -0.61 c -0.13,0 -0.24,-0.11 -0.24,-0.24 v -0.96 c 0,-0.13 0.11,-0.24 0.24,-0.24 h 0.61 c 0.13,0 0.24,0.11 0.24,0.24 v 0.96 c 0,0.13 -0.11,0.24 -0.24,0.24 z m -0.02,7.63 h -0.57 c -0.13,0 -0.24,-0.11 -0.24,-0.24 v -6.1 c 0,-0.13 0.11,-0.24 0.24,-0.24 h 0.57 c 0.13,0 0.24,0.11 0.24,0.24 v 6.1 c 0,0.14 -0.11,0.24 -0.24,0.24 z"
       id="path18"
       inkscape:connector-curvature="0" /><path
       d="m 31.86,65.88 h -0.62 c -0.12,0 -0.22,-0.11 -0.22,-0.24 v -8.53 c 0,-0.12 0.08,-0.23 0.22,-0.23 h 0.62 c 0.12,0 0.22,0.1 0.22,0.23 v 8.53 c -0.01,0.12 -0.09,0.24 -0.22,0.24 z"
       id="path20"
       inkscape:connector-curvature="0" /><path
       d="m 35.35,65.88 h -0.62 c -0.12,0 -0.22,-0.11 -0.22,-0.24 v -8.53 c 0,-0.12 0.08,-0.23 0.22,-0.23 h 0.62 c 0.12,0 0.22,0.1 0.22,0.23 v 8.53 c -0.01,0.12 -0.09,0.24 -0.22,0.24 z"
       id="path22"
       inkscape:connector-curvature="0" /><path
       d="m 44.64,57.62 h -0.57 c -0.56,0 -0.73,0.17 -0.73,0.83 v 0.86 h 1.26 c 0.13,0 0.23,0.1 0.23,0.22 V 60 c 0,0.12 -0.1,0.2 -0.23,0.2 h -1.26 v 5.46 c 0,0.12 -0.11,0.24 -0.23,0.24 h -0.59 c -0.13,0 -0.24,-0.12 -0.24,-0.24 V 60.2 l -1.16,-0.13 c -0.13,-0.01 -0.23,-0.1 -0.23,-0.21 v -0.32 c 0,-0.12 0.1,-0.22 0.23,-0.22 h 1.16 v -0.86 c 0,-1.28 0.62,-1.66 1.67,-1.66 0.32,0 0.51,0.04 0.67,0.07 0.13,0.04 0.23,0.08 0.23,0.19 v 0.4 c 0,0.11 -0.08,0.16 -0.21,0.16 z"
       id="path24"
       inkscape:connector-curvature="0" /><path
       d="m 48.72,65.97 c -1.76,0 -2.66,-1.16 -2.66,-2.92 v -0.91 c 0,-1.76 0.9,-2.92 2.66,-2.92 1.76,0 2.67,1.16 2.67,2.92 v 0.91 c -0.01,1.76 -0.92,2.92 -2.67,2.92 z m 1.61,-3.83 c 0,-1.22 -0.49,-2 -1.61,-2 -1.11,0 -1.6,0.77 -1.6,2 v 0.91 c 0,1.22 0.48,2 1.6,2 1.11,0 1.61,-0.77 1.61,-2 z m -2.44,-3.92 h -0.47 c -0.12,0 -0.24,-0.1 -0.24,-0.23 v -0.97 c 0,-0.12 0.12,-0.24 0.24,-0.24 h 0.47 c 0.12,0 0.24,0.12 0.24,0.24 v 0.97 c 0,0.13 -0.12,0.23 -0.24,0.23 z m 2.09,0 h -0.47 c -0.12,0 -0.24,-0.1 -0.24,-0.23 v -0.97 c 0,-0.12 0.12,-0.24 0.24,-0.24 h 0.47 c 0.12,0 0.24,0.12 0.24,0.24 v 0.97 c 0,0.13 -0.12,0.23 -0.24,0.23 z"
       id="path26"
       inkscape:connector-curvature="0" /><path
       d="m 56.07,60.13 c -0.55,0 -1.05,0.14 -1.65,0.5 v 5.01 c 0,0.12 -0.11,0.24 -0.24,0.24 h -0.59 c -0.12,0 -0.23,-0.11 -0.23,-0.24 v -6.1 c 0,-0.13 0.1,-0.24 0.23,-0.24 h 0.56 c 0.13,0 0.23,0.11 0.23,0.24 v 0.25 c 0.6,-0.42 1.15,-0.57 1.69,-0.57 0.17,0 0.25,0.07 0.25,0.21 v 0.49 c 0,0.14 -0.08,0.21 -0.25,0.21 z"
       id="path28"
       inkscape:connector-curvature="0" /><path
       d="m 62.59,62.93 h -4.01 v 0.17 c 0,1.42 0.56,1.95 1.66,1.95 0.69,0 1.58,-0.05 2.13,-0.13 0.02,0 0.04,0 0.06,0 0.1,0 0.19,0.05 0.19,0.17 v 0.41 c 0,0.16 -0.05,0.24 -0.24,0.28 -0.68,0.13 -1.34,0.2 -2.14,0.2 -1.38,0 -2.72,-0.65 -2.72,-2.87 v -1.08 c 0,-1.71 0.94,-2.8 2.66,-2.8 1.75,0 2.63,1.1 2.63,2.8 v 0.65 c 0,0.14 -0.08,0.25 -0.22,0.25 z m -0.84,-0.91 c 0,-1.35 -0.51,-1.88 -1.57,-1.88 -1.03,0 -1.6,0.59 -1.6,1.88 v 0.11 h 3.17 z"
       id="path30"
       inkscape:connector-curvature="0" /><path
       d="m 67.74,65.91 c -0.24,0.04 -0.55,0.06 -0.78,0.06 -1.1,0 -1.63,-0.29 -1.63,-1.6 V 60.2 l -1.16,-0.13 c -0.13,-0.01 -0.23,-0.08 -0.23,-0.21 v -0.32 c 0,-0.13 0.1,-0.22 0.23,-0.22 h 1.16 v -1.17 c 0,-0.12 0.08,-0.21 0.22,-0.24 l 0.62,-0.1 c 0.01,0 0.02,0 0.04,0 0.1,0 0.18,0.08 0.18,0.2 v 1.3 h 1.29 c 0.13,0 0.24,0.11 0.24,0.24 v 0.41 c 0,0.13 -0.11,0.24 -0.24,0.24 h -1.29 v 4.17 c 0,0.66 0.17,0.75 0.65,0.75 h 0.67 c 0.17,0 0.25,0.05 0.25,0.17 v 0.42 c -0.01,0.1 -0.06,0.17 -0.22,0.2 z"
       id="path32"
       inkscape:connector-curvature="0" /><path
       d="m 73.98,65.88 h -0.55 c -0.13,0 -0.24,-0.11 -0.24,-0.24 v -0.26 c -0.57,0.33 -1.17,0.59 -1.84,0.59 -1.02,0 -1.95,-0.44 -1.95,-1.94 v -0.14 c 0,-1.29 0.75,-1.94 2.88,-1.94 h 0.89 v -0.48 c 0,-1 -0.35,-1.35 -1.28,-1.35 -0.78,0 -1.35,0.05 -1.83,0.1 -0.02,0 -0.04,0 -0.06,0 -0.11,0 -0.22,-0.04 -0.22,-0.19 V 59.6 c 0,-0.13 0.08,-0.2 0.25,-0.23 0.49,-0.08 1.04,-0.16 1.85,-0.16 1.66,0 2.33,0.84 2.33,2.25 v 4.17 c 0.01,0.15 -0.1,0.25 -0.23,0.25 z M 73.17,62.7 h -0.89 c -1.45,0 -1.83,0.32 -1.83,1.17 v 0.14 c 0,0.86 0.41,1.09 1.1,1.09 0.55,0 1.04,-0.17 1.62,-0.48 z"
       id="path34"
       inkscape:connector-curvature="0" /><path
       d="m 81.65,60.11 -0.43,0.08 c 0.22,0.23 0.41,0.59 0.41,1.23 v 0.1 c 0,1.32 -0.81,2.05 -2.66,2.05 -0.63,0 -1.04,-0.1 -1.39,-0.24 -0.2,0.1 -0.3,0.23 -0.3,0.41 0,0.2 0.1,0.31 0.37,0.38 l 1.78,0.45 c 1.17,0.3 2.3,0.63 2.3,1.76 v 0.1 c 0,1.15 -0.77,1.85 -2.73,1.85 -1.89,0 -2.75,-0.73 -2.75,-1.9 v -0.11 c 0,-0.67 0.36,-1.22 0.75,-1.52 l -0.08,-0.04 c -0.38,-0.17 -0.55,-0.56 -0.55,-0.93 v -0.01 c 0,-0.32 0.16,-0.67 0.49,-0.86 -0.37,-0.35 -0.55,-0.78 -0.55,-1.39 v -0.1 c 0,-1.07 0.6,-2.12 2.66,-2.12 h 2.62 c 0.14,0 0.28,0.12 0.28,0.26 v 0.31 c -0.01,0.16 -0.09,0.21 -0.22,0.24 z m -0.97,6.22 c 0,-0.47 -0.38,-0.66 -1.46,-0.93 l -1.35,-0.35 c -0.35,0.3 -0.59,0.6 -0.59,1.22 v 0.11 c 0,0.67 0.39,1.09 1.72,1.09 1.36,0 1.67,-0.38 1.67,-1.04 v -0.1 z m -0.1,-4.91 c 0,-0.72 -0.32,-1.28 -1.62,-1.28 -1.34,0 -1.61,0.61 -1.61,1.28 v 0.1 c 0,0.53 0.24,1.22 1.61,1.22 1.29,0 1.62,-0.5 1.62,-1.22 z"
       id="path36"
       inkscape:connector-curvature="0" /><path
       d="m 90.43,57.62 h -0.57 c -0.56,0 -0.73,0.17 -0.73,0.83 v 0.86 h 1.26 c 0.13,0 0.23,0.1 0.23,0.22 V 60 c 0,0.12 -0.1,0.2 -0.23,0.2 h -1.26 v 5.46 c 0,0.12 -0.11,0.24 -0.23,0.24 h -0.59 c -0.13,0 -0.24,-0.12 -0.24,-0.24 V 60.2 l -1.16,-0.13 c -0.13,-0.01 -0.23,-0.1 -0.23,-0.21 v -0.32 c 0,-0.12 0.1,-0.22 0.23,-0.22 h 1.16 v -0.86 c 0,-1.28 0.62,-1.66 1.67,-1.66 0.32,0 0.51,0.04 0.67,0.07 0.13,0.04 0.23,0.08 0.23,0.19 v 0.4 c 0.01,0.11 -0.08,0.16 -0.21,0.16 z"
       id="path38"
       inkscape:connector-curvature="0" /><path
       d="m 95.03,60.13 c -0.55,0 -1.05,0.14 -1.65,0.5 v 5.01 c 0,0.12 -0.11,0.24 -0.24,0.24 h -0.59 c -0.12,0 -0.23,-0.11 -0.23,-0.24 v -6.1 c 0,-0.13 0.1,-0.24 0.23,-0.24 h 0.56 c 0.13,0 0.23,0.11 0.23,0.24 v 0.25 c 0.6,-0.42 1.15,-0.57 1.69,-0.57 0.17,0 0.25,0.07 0.25,0.21 v 0.49 c 0.01,0.14 -0.08,0.21 -0.25,0.21 z"
       id="path40"
       inkscape:connector-curvature="0" /><path
       d="m 101.01,65.88 h -0.55 c -0.13,0 -0.24,-0.11 -0.24,-0.24 v -0.26 c -0.57,0.33 -1.17,0.59 -1.84,0.59 -1.02,0 -1.95,-0.44 -1.95,-1.94 v -0.14 c 0,-1.29 0.75,-1.94 2.88,-1.94 h 0.89 v -0.48 c 0,-1 -0.35,-1.35 -1.28,-1.35 -0.78,0 -1.35,0.05 -1.83,0.1 -0.02,0 -0.04,0 -0.06,0 -0.11,0 -0.22,-0.04 -0.22,-0.19 V 59.6 c 0,-0.13 0.08,-0.2 0.25,-0.23 0.49,-0.08 1.04,-0.16 1.85,-0.16 1.66,0 2.33,0.84 2.33,2.25 v 4.17 c 0.01,0.15 -0.09,0.25 -0.23,0.25 z M 100.2,62.7 h -0.89 c -1.45,0 -1.83,0.32 -1.83,1.17 v 0.14 c 0,0.86 0.41,1.09 1.1,1.09 0.55,0 1.04,-0.17 1.62,-0.48 z m -1.27,-4.02 c -0.67,0 -1.22,-0.54 -1.22,-1.21 0,-0.67 0.55,-1.22 1.22,-1.22 0.67,0 1.21,0.55 1.21,1.22 0,0.67 -0.54,1.21 -1.21,1.21 z m 0,-1.84 c -0.35,0 -0.62,0.28 -0.62,0.62 0,0.34 0.28,0.63 0.62,0.63 0.34,0 0.63,-0.29 0.63,-0.63 0,-0.34 -0.28,-0.62 -0.63,-0.62 z"
       id="path42"
       inkscape:connector-curvature="0" /><path
       d="m 108.25,65.88 h -0.57 c -0.13,0 -0.24,-0.11 -0.24,-0.24 V 61.7 c 0,-1.21 -0.41,-1.58 -1.32,-1.58 -0.5,0 -1.06,0.19 -1.62,0.47 v 5.05 c 0,0.12 -0.11,0.24 -0.24,0.24 h -0.59 c -0.12,0 -0.23,-0.11 -0.23,-0.24 v -6.1 c 0,-0.13 0.1,-0.24 0.23,-0.24 h 0.6 c 0.13,0 0.23,0.11 0.23,0.24 v 0.23 c 0.66,-0.37 1.2,-0.55 1.9,-0.55 1.44,0 2.08,0.9 2.08,2.49 v 3.94 c 0.01,0.13 -0.1,0.23 -0.23,0.23 z"
       id="path44"
       inkscape:connector-curvature="0" /><path
       d="m 121.89,65.88 h -0.57 c -0.13,0 -0.24,-0.11 -0.24,-0.24 V 61.4 c 0,-1 -0.47,-1.28 -1.09,-1.28 -0.43,0 -0.93,0.14 -1.4,0.32 0.07,0.26 0.11,0.57 0.11,0.93 v 4.26 c 0,0.12 -0.08,0.24 -0.22,0.24 h -0.63 c -0.12,0 -0.2,-0.11 -0.2,-0.24 v -4.26 c 0,-1.04 -0.3,-1.26 -0.92,-1.26 -0.43,0 -0.96,0.21 -1.46,0.47 v 5.05 c 0,0.12 -0.08,0.24 -0.22,0.24 h -0.63 c -0.12,0 -0.2,-0.11 -0.2,-0.24 v -6.1 c 0,-0.13 0.1,-0.24 0.23,-0.24 h 0.6 c 0.13,0 0.23,0.11 0.23,0.24 v 0.23 c 0.48,-0.3 1.09,-0.56 1.75,-0.56 0.51,0 0.9,0.14 1.2,0.49 0.66,-0.31 1.36,-0.49 1.99,-0.49 1.08,0 1.94,0.54 1.94,2.2 v 4.24 c -0.03,0.14 -0.14,0.24 -0.27,0.24 z"
       id="path46"
       inkscape:connector-curvature="0" /><path
       d="m 129.24,59.59 -1.97,6.89 c -0.37,1.29 -0.81,1.77 -2.19,1.77 -0.33,0 -0.75,-0.05 -1,-0.11 -0.14,-0.04 -0.25,-0.07 -0.25,-0.19 v -0.44 c 0,-0.13 0.1,-0.19 0.23,-0.19 0.01,0 0.02,0 0.04,0 0.26,0.02 0.8,0.07 1.06,0.07 0.68,0 0.98,-0.18 1.18,-1.02 l 0.12,-0.49 h -0.17 c -0.36,0 -0.67,-0.08 -0.89,-0.83 l -1.59,-5.47 c -0.01,-0.02 -0.01,-0.06 -0.01,-0.08 0,-0.12 0.07,-0.2 0.21,-0.2 h 0.66 c 0.1,0 0.18,0.1 0.2,0.19 l 1.41,5.19 c 0.06,0.24 0.14,0.26 0.23,0.26 h 0.19 l 1.46,-5.47 c 0.02,-0.1 0.12,-0.18 0.23,-0.18 h 0.67 c 0.12,0 0.19,0.08 0.19,0.2 0.01,0.04 0.01,0.08 -0.01,0.1 z"
       id="path48"
       inkscape:connector-curvature="0" /><path
       d="m 135.9,65.88 h -0.57 c -0.13,0 -0.24,-0.11 -0.24,-0.24 V 61.7 c 0,-1.21 -0.41,-1.58 -1.32,-1.58 -0.5,0 -1.07,0.19 -1.62,0.47 v 5.05 c 0,0.12 -0.11,0.24 -0.24,0.24 h -0.59 c -0.12,0 -0.23,-0.11 -0.23,-0.24 v -6.1 c 0,-0.13 0.1,-0.24 0.23,-0.24 h 0.6 c 0.13,0 0.23,0.11 0.23,0.24 v 0.23 c 0.66,-0.37 1.2,-0.55 1.9,-0.55 1.44,0 2.08,0.9 2.08,2.49 v 3.94 c 0.01,0.13 -0.1,0.23 -0.23,0.23 z"
       id="path50"
       inkscape:connector-curvature="0" /><path
       d="m 142.93,65.76 c -0.74,0.14 -1.47,0.2 -2.2,0.2 -1.78,0 -2.61,-1.16 -2.61,-2.96 v -0.86 c 0,-1.88 0.86,-2.93 2.61,-2.93 0.37,0 0.93,0.04 1.4,0.12 v -2.22 c 0,-0.12 0.1,-0.23 0.23,-0.23 h 0.61 c 0.12,0 0.21,0.1 0.21,0.23 v 8.37 c 0,0.16 -0.03,0.25 -0.25,0.28 z m -0.8,-5.53 c -0.39,-0.07 -1.02,-0.08 -1.4,-0.08 -1.17,0 -1.55,0.73 -1.55,2.01 v 0.86 c 0,1.3 0.37,2.03 1.55,2.03 0.41,0 0.99,-0.04 1.4,-0.07 z"
       id="path52"
       inkscape:connector-curvature="0" /><path
       d="m 146.35,58.25 h -0.61 c -0.13,0 -0.24,-0.11 -0.24,-0.24 v -0.96 c 0,-0.13 0.11,-0.24 0.24,-0.24 h 0.61 c 0.13,0 0.24,0.11 0.24,0.24 v 0.96 c 0,0.13 -0.11,0.24 -0.24,0.24 z m -0.02,7.63 h -0.57 c -0.13,0 -0.24,-0.11 -0.24,-0.24 v -6.1 c 0,-0.13 0.11,-0.24 0.24,-0.24 h 0.57 c 0.13,0 0.24,0.11 0.24,0.24 v 6.1 c 0,0.14 -0.11,0.24 -0.24,0.24 z"
       id="path54"
       inkscape:connector-curvature="0" /><path
       d="m 154.14,60.11 -0.43,0.08 c 0.22,0.23 0.41,0.59 0.41,1.23 v 0.1 c 0,1.32 -0.81,2.05 -2.66,2.05 -0.63,0 -1.04,-0.1 -1.39,-0.24 -0.2,0.1 -0.3,0.23 -0.3,0.41 0,0.2 0.1,0.31 0.37,0.38 l 1.78,0.45 c 1.17,0.3 2.3,0.63 2.3,1.76 v 0.1 c 0,1.15 -0.77,1.85 -2.73,1.85 -1.89,0 -2.75,-0.73 -2.75,-1.9 v -0.11 c 0,-0.67 0.36,-1.22 0.75,-1.52 l -0.08,-0.04 c -0.38,-0.17 -0.55,-0.56 -0.55,-0.93 v -0.01 c 0,-0.32 0.16,-0.67 0.49,-0.86 -0.37,-0.35 -0.55,-0.78 -0.55,-1.39 v -0.1 c 0,-1.07 0.6,-2.12 2.66,-2.12 h 2.62 c 0.14,0 0.28,0.12 0.28,0.26 v 0.31 c -0.01,0.16 -0.09,0.21 -0.22,0.24 z m -0.97,6.22 c 0,-0.47 -0.38,-0.66 -1.46,-0.93 l -1.35,-0.35 c -0.35,0.3 -0.59,0.6 -0.59,1.22 v 0.11 c 0,0.67 0.39,1.09 1.72,1.09 1.36,0 1.67,-0.38 1.67,-1.04 v -0.1 z m -0.1,-4.91 c 0,-0.72 -0.32,-1.28 -1.62,-1.28 -1.34,0 -1.62,0.61 -1.62,1.28 v 0.1 c 0,0.53 0.24,1.22 1.62,1.22 1.29,0 1.62,-0.5 1.62,-1.22 z"
       id="path56"
       inkscape:connector-curvature="0" /><path
       d="m 160.96,65.88 h -0.57 c -0.13,0 -0.24,-0.11 -0.24,-0.24 V 61.7 c 0,-1.2 -0.5,-1.57 -1.28,-1.57 -0.37,0 -1.13,0.1 -1.65,0.33 v 5.17 c 0,0.12 -0.11,0.24 -0.24,0.24 h -0.59 c -0.12,0 -0.23,-0.11 -0.23,-0.24 v -8.52 c 0,-0.13 0.1,-0.24 0.23,-0.24 h 0.6 c 0.13,0 0.23,0.11 0.23,0.24 v 2.46 c 0.57,-0.25 1.32,-0.37 1.83,-0.37 1.27,0 2.15,0.73 2.15,2.49 v 3.94 c 0,0.15 -0.1,0.25 -0.24,0.25 z"
       id="path58"
       inkscape:connector-curvature="0" /><path
       d="m 168.24,62.93 h -4.01 v 0.17 c 0,1.42 0.56,1.95 1.66,1.95 0.69,0 1.58,-0.05 2.13,-0.13 0.02,0 0.04,0 0.06,0 0.1,0 0.19,0.05 0.19,0.17 v 0.41 c 0,0.16 -0.05,0.24 -0.24,0.28 -0.68,0.13 -1.34,0.2 -2.14,0.2 -1.38,0 -2.71,-0.65 -2.71,-2.87 v -1.08 c 0,-1.71 0.94,-2.8 2.66,-2.8 1.75,0 2.63,1.1 2.63,2.8 v 0.65 c 0,0.14 -0.08,0.25 -0.23,0.25 z m -0.83,-0.91 c 0,-1.35 -0.51,-1.88 -1.57,-1.88 -1.03,0 -1.6,0.59 -1.6,1.88 v 0.11 h 3.17 z"
       id="path60"
       inkscape:connector-curvature="0" /><path
       d="m 173.4,65.91 c -0.24,0.04 -0.55,0.06 -0.78,0.06 -1.1,0 -1.63,-0.29 -1.63,-1.6 V 60.2 l -1.16,-0.13 c -0.13,-0.01 -0.23,-0.08 -0.23,-0.21 v -0.32 c 0,-0.13 0.1,-0.22 0.23,-0.22 h 1.16 v -1.17 c 0,-0.12 0.08,-0.21 0.22,-0.24 l 0.62,-0.1 c 0.01,0 0.02,0 0.04,0 0.1,0 0.18,0.08 0.18,0.2 v 1.3 h 1.29 c 0.13,0 0.24,0.11 0.24,0.24 v 0.41 c 0,0.13 -0.11,0.24 -0.24,0.24 h -1.29 v 4.17 c 0,0.66 0.17,0.75 0.65,0.75 h 0.67 c 0.17,0 0.25,0.05 0.25,0.17 v 0.42 c -0.01,0.1 -0.07,0.17 -0.22,0.2 z"
       id="path62"
       inkscape:connector-curvature="0" /><path
       d="m 180.14,62.93 h -4.01 v 0.17 c 0,1.42 0.56,1.95 1.66,1.95 0.69,0 1.58,-0.05 2.13,-0.13 0.02,0 0.04,0 0.06,0 0.1,0 0.19,0.05 0.19,0.17 v 0.41 c 0,0.16 -0.05,0.24 -0.24,0.28 -0.68,0.13 -1.34,0.2 -2.14,0.2 -1.38,0 -2.71,-0.65 -2.71,-2.87 v -1.08 c 0,-1.71 0.94,-2.8 2.66,-2.8 1.75,0 2.63,1.1 2.63,2.8 v 0.65 c 0,0.14 -0.09,0.25 -0.23,0.25 z m -0.84,-0.91 c 0,-1.35 -0.51,-1.88 -1.57,-1.88 -1.03,0 -1.6,0.59 -1.6,1.88 v 0.11 h 3.17 z"
       id="path64"
       inkscape:connector-curvature="0" /><path
       d="m 185.08,60.13 c -0.55,0 -1.05,0.14 -1.65,0.5 v 5.01 c 0,0.12 -0.11,0.24 -0.24,0.24 h -0.59 c -0.12,0 -0.23,-0.11 -0.23,-0.24 v -6.1 c 0,-0.13 0.1,-0.24 0.23,-0.24 h 0.56 c 0.13,0 0.23,0.11 0.23,0.24 v 0.25 c 0.6,-0.42 1.15,-0.57 1.69,-0.57 0.17,0 0.25,0.07 0.25,0.21 v 0.49 c 0,0.14 -0.08,0.21 -0.25,0.21 z"
       id="path66"
       inkscape:connector-curvature="0" /></g><g
     style="display:inline"
     id="g4518"
     transform="matrix(1.3333349,0,0,-1.3333295,-214.08858,739.55577)"><g
       id="g4520"
       clip-path="url(#clipPath4524)"><g
         id="g4526"
         transform="translate(361.9629,519.8115)"><path
           style="fill:#1a171b;fill-opacity:1;fill-rule:evenodd;stroke:none"
           d="m 0,0 c 1.2733745,-1.207497 3.8563402,-3.4320115 1.496,-5.004 -1.85225835,-0.3304952 -4.3292179,-0.4129039 -5.289,1.32 -1.5257755,1.7632897 0.1241578,4.17366489 2.453,3.883 C -0.90473166,0.12818996 -0.41944569,0.17667206 0,0 Z"
           id="path4528"
           inkscape:connector-curvature="0" /></g><g
         id="g4530"
         transform="translate(257.9712,517.2568)"><path
           style="fill:#1a171b;fill-opacity:1;fill-rule:evenodd;stroke:none"
           d="m 0,0 c 2.5265337,1.4296179 4.162087,7.964808 -0.283,4.477 -2.9279003,-1.4867889 -7.8442328,-2.6682611 -7.185,-6.961 1.774154,-1.7667978 4.66778,0.8737024 6.312,1.578 C -0.64540788,-0.71489805 -0.40960685,-0.30813153 0,0 Z m 19.48,13.461 c -1.433021,-1.659273 -3.911208,-3.058733 -4.155,-5.27975 2.254313,0.2647026 3.585782,2.991988 5.39,4.20975 1.773951,2.125257 4.544038,3.555218 6.09,5.839 -3.086962,-0.582422 -4.993801,-2.933862 -7.325,-4.769 z m 40.289,0.684 c 3.238275,2.58179 7.002423,5.958554 11.188,6.066 0.710258,-2.727885 -2.712434,-4.502285 -3.473,-6.961 -1.683135,-3.24075 -3.180406,-6.9643757 -5.16,-10.258 -1.172849,-2.70014235 1.49468,-1.2540496 2.488,-0.281 3.794149,2.4761019 7.585212,4.8507028 11.008,7.711 2.65304,1.553804 3.437786,5.101471 4.277,7.445 -1.10469,-0.258021 -4.604058,0.468056 -2.875,1.906 1.960299,-0.471995 4.786922,-0.492688 5.324,2.11 2.767845,4.155928 5.006487,8.426802 8.891,11.66 2.198443,1.584838 5.145418,-2.312458 2.449,-3.535 -4.202361,-0.877308 -6.298721,-5.385508 -8.359,-8.727 6.44657,0.509521 12.831125,2.456981 19.219,2.969 1.36483,-0.417142 5.17294,1.746183 4.359,-0.941 -3.16018,-0.90219 -7.0093,-0.769239 -10.426,-1.497 C 93.667708,20.610718 88.359476,20.03552 83.546,18.254 82.087259,15.939468 81.353273,13.590053 80.015,11.246 78.638503,7.6293607 76.938749,3.9279336 77.058,0.07 c 3.101909,-2.3797417 7.149489,1.1561307 9.836,3.063 1.607079,1.1955995 3.248125,3.814851 5.109,4.027 C 90.205243,3.6401935 86.737828,1.3374194 83.89,-0.941 81.249214,-2.459669 77.200785,-3.5713577 74.96,-1.32 73.761938,1.8998636 75.621878,5.3893121 76.492,8.445 77.668874,11.251998 75.033357,8.1015957 74.417,7.523 70.473747,4.185876 65.976634,1.4552639 61.652,-1.402 c -3.248943,-0.028729 -2.068887,4.8934155 -0.684,6.785 1.589069,3.3722371 3.889314,6.426821 5.184,9.926 C 61.623404,12.75866 58.417472,8.0812699 54.281,4.711 52.418486,3.0904784 50.292437,-0.75316335 47.449,1.203 c -1.554208,2.2963607 0.409889,5.9230101 1.636,8.242 1.266487,2.953107 3.775074,5.356811 4.856,7.774 C 48.50177,12.891951 43.961868,8.1588168 39.43,2.992 38.804649,1.4046971 36.338318,-0.32338389 34.941,0.473 c 0.22304,3.2384124 2.017698,6.4716578 3.356,9.445 1.22604,2.636045 3.866588,4.87735 4.82,7.336 C 36.850258,12.733113 31.44401,6.9265424 25.957,1.672 24.488555,0.37936603 23.327273,-1.994439 21.422,-2.52 c -2.873214,1.95011919 -1.088104,5.8860904 -0.164,8.477 0.841705,1.0623275 2.271941,5.323991 0.047,2.488 -2.895558,-2.9418927 -5.441284,-5.8959459 -8.446,-8.679 -1.802939,-1.4378198 -5.2698709,-0.5256879 -4.05,2.046 0.021813,3.1597719 4.048706,5.5931294 4.91,8.516 C 11.054615,8.9038252 6.9250431,8.4235615 5.273,5.984 4.4788173,0.27936196 -1.0301791,-4.0720458 -6.607,-4.629 c -2.8460887,0.3149762 -4.416813,3.0875586 -7.15,1.203 -5.204544,-1.5685266 -10.369578,2.77873482 -10.753,7.879 -0.169424,2.354471 -2.290157,-0.6901781 -2.767,-1.637 -1.603324,-1.7699473 -2.735251,-4.1477366 -4.428,-5.89 -2.578396,-0.5601639 -1.169889,2.44936783 -0.33,3.5 4.364224,5.9124412 7.899903,12.009067 11.424,18.511 1.977485,3.517632 3.085989,7.884148 6.3,10.415 3.324693,1.966153 5.1133873,-4.601854 0.955,-4.536 -3.66667,-1.051719 -4.048424,-5.647871 -5.984,-8.375 -0.207419,-1.129798 -1.58478,-2.632054 -1.248,-3.472 3.225328,1.301475 6.004667,4.915974 9.434,5.402 1.3316791,-1.704068 -2.059594,-2.558998 -3.133,-3.601 -2.418881,-2.97272 -7.792997,-3.719619 -8.433,-8.055 -1.042778,-4.2241514 2.629351,-9.0650876 6.891,-9.082 2.549844,-0.1766328 5.187936,0.076403 5.063,2.992 3.6763392,3.6693649 8.7366864,5.2285368 13.543,6.937 C 2.6076306,11.435356 -2.1565536,14.370036 0.473625,18.181125 2.1161468,20.180683 6.6204167,22.051719 8.313,19.574 7.8840074,16.397886 5.2459416,20.864957 3.496,18.535 0.08233698,17.594642 1.1202906,13.868708 2.66,12.129 3.5281802,10.870501 4.1335882,9.6839315 5.051,8.527 c 5.801381,2.073072 11.763256,4.266117 16.347,8.809 2.244338,1.477252 5.442192,5.038342 8.008,2.898 1.083977,-0.150702 3.387373,-1.807301 0.848,-3.121 -3.980484,-3.999702 -5.129022,-9.5692035 -7.82,-14.336 -1.587383,-3.9966335 1.909739,-0.7911598 2.945,0.743 4.397318,4.7425902 9.628437,8.915757 14.816,12.828 2.032601,1.57359 3.58403,3.931221 6.476,4.144 2.213175,-0.246264 3.699681,-3.722728 1.036,-5.015 -2.402916,-0.619501 -3.689756,-3.021766 -4.887,-4.914 3.546566,1.515722 5.794691,6.146058 9.551,8.14 1.410317,0.585971 5.075246,2.94775 5.277,0.352 0.497201,-1.645625 -2.024156,-3.132596 -2.59,-4.782 -1.237283,-1.749811 -2.498875,-4.04505 -1.285,-5.863 2.271681,1.5533833 3.833179,3.87105 5.996,5.735 z"
           id="path4532"
           inkscape:connector-curvature="0" /></g><g
         id="g4534"
         transform="translate(206.4204,549.8584)"><path
           style="fill:#1a171b;fill-opacity:0.98431373;fill-rule:evenodd;stroke:none"
           d="m 0,0 c -1.4760404,0.54222727 -3.361152,-1.6442248 -4.982,-2.121 -10.506462,-6.8332041 -20.43927,-14.908616 -28.795,-24.356 -2.38261,-2.046591 -3.721668,-4.930035 -5.17,-7.527 -1.494853,-1.619868 -4.283841,-0.280547 -3.193,1.766 1.25059,7.634233 4.505086,14.613941 7.22,21.8 1.247393,2.3884872 2.21522,7.6361219 6.089,6.208 2.462995,-0.7391068 1.861773,-4.8751384 -0.766,-5.016 -3.135191,-2.606027 -3.749641,-7.008985 -5.629,-10.555 -1.225977,-2.652588 -2.547142,-5.414718 -3.027,-8.23 2.704402,1.010045 4.146265,4.156896 6.454,5.781 7.385009,7.331773 15.852297,13.7099313 24.721,19.48 2.6340095,1.1467118 4.9910568,3.60988115 7.714,3.887 C 0.56694852,0.88194345 0.66017626,-0.58053869 0,0 Z"
           id="path4536"
           inkscape:connector-curvature="0" /></g><g
         id="g4538"
         transform="translate(380.8457,523.6045)"><path
           style="fill:#1a171b;fill-opacity:1;fill-rule:evenodd;stroke:none"
           d="m 0,0 c -2.7268883,-0.69984042 -6.3824221,-3.4381026 -5.078,-6.43 2.9050509,-0.9488664 4.55252844,3.0248729 5.039,5.325 C -0.00552725,-0.89170136 0.47824828,-0.05542152 0,0 Z m 27.344,16.242 c -3.318368,-0.610457 -6.658205,-3.498387 -7.137,-6.785 2.102876,-0.2529038 4.207619,1.148077 6.137,1.922 0.91251,0.93339 2.124314,3.993261 1,4.863 z M -0.863,15.016 c 2.6651814,3.177814 8.9682308,5.235356 11.625,1.261 C 11.85158,13.942687 8.203549,12.984373 7.125,14.512 4.1181924,15.728109 -0.79296478,12.856791 1.117,9.328 2.0178716,7.3232839 2.066832,5.240729 2.695,3.051 5.5866041,3.0769812 8.1973225,4.5793448 10.973,5.242 14.987183,11.356478 20.996918,16.287423 27.84,18.738 31.402741,16.950434 29.811375,11.589267 27.203,9.41 25.57749,6.9706444 22.197566,7.1335101 19.609,5.867 16.226042,4.6477649 11.354447,3.2942717 11.633,-1.215 c 0.683888,-3.3710469 4.06816,-6.1777796 7.855,-5.097 7.031788,1.0122626 12.411422,6.87077612 19.328,8.316 C 35.150104,-0.35244649 30.869653,-2.5369956 27.332,-4.992 25.820953,-5.7110053 22.880044,-7.4681469 20.656,-7.809 16.719875,-8.8807474 11.154049,-10.035181 8.867,-5.594 7.2113591,-2.7269781 8.2542446,0.9456235 9.551,3.461 6.8155353,2.5411841 2.3656188,2.3225798 1.953,-1.234 1.017959,-4.4445655 -1.2467298,-9.0612783 -5.23,-8.031 c -3.3031544,0.9500658 -2.0111269,6.0384139 0.48,7.394 1.4162181,1.7288884 6.3276701,1.38795842 5.172,4.325 0.15890887,3.4509157 -3.3299004,5.6221243 -2.887,9.101 0.4721082,0.813262 0.9768383,1.492465 1.602,2.227 z"
           id="path4540"
           inkscape:connector-curvature="0" /></g><g
         id="g4542"
         transform="translate(194.6665,531.3896)"><path
           style="fill:#1a171b;fill-opacity:1;fill-rule:evenodd;stroke:none"
           d="M 0,0 C 1.5718374,0.46359362 7.8077502,6.2305074 4.322,5.016 3.0109903,3.9116823 -0.89809056,0.94176534 0,0 Z M -2.521,2.191 C 0.41938205,4.9792925 4.1373122,9.1478826 8.444,8.48 11.073628,6.7243682 7.6448633,3.6914741 5.925,2.426 3.5680935,0.28900066 0.75409674,-1.5990111 -0.035,-4.781 c -1.4325311,-2.0260378 -4.0984086,0.7641093 -5.252,-1.649 -1.1330234,-2.3251261 -1.3212184,-5.184274 -0.083,-7.422 2.8656335,-0.800284 5.19112728,2.405106 7.502,3.7 5.9348807,4.0587338 11.731955,8.4300407 17.654,12.601 2.930359,1.3252509 3.551227,4.9809961 6.36,6.125 1.542765,-0.7242523 -1.252755,-2.8310994 -1.401,-4.144 -1.180234,-2.5842523 -3.642397,-4.64086861 -4.24,-7.586 3.335023,0.8148161 5.135642,4.2963303 7.95,6.054 3.125196,2.0442381 6.463087,3.8068333 10.175,4.403 C 42.1911,4.6227955 36.026595,6.2010698 34.567,4.805 28.239238,2.099974 23.667562,-3.3603827 18.797,-8.16 c -1.790629,-2.912247 -4.172241,-5.481204 -4.982,-8.574 -2.227809,-0.994282 -2.261931,1.855912 -1.119,3.132 2.436466,3.6929413 4.408657,7.7086472 6.042,11.895 0.114707,0.6864998 2.182205,3.4317696 0.742,2.836 -7.621331,-5.5924334 -15.0531967,-11.775751 -22.93,-16.77 -4.3007865,-1.793075 -5.4971188,3.551914 -4.97,6.629 0.2880114,4.4007025 3.3901655,7.9532881 5.899,11.203 z"
           id="path4544"
           inkscape:connector-curvature="0" /></g></g></g></svg>